<?xml version="1.0" encoding="utf-8"?>
<!-- Generator: Adobe Illustrator 25.2.1, SVG Export Plug-In . SVG Version: 6.00 Build 0)  -->
<svg version="1.1" id="Model_2_Gauge_3_CS_Water" xmlns="http://www.w3.org/2000/svg" xmlns:xlink="http://www.w3.org/1999/xlink"
	 x="0px" y="0px" viewBox="0 0 402 157" style="enable-background:new 0 0 402 157;" xml:space="preserve">
<style type="text/css">
	.st0{opacity:0.4;fill:#50ACFF;enable-background:new    ;}
	.st1{fill:none;stroke:#1B96DB;stroke-miterlimit:10;}
</style>
<path id="flood_right_water_level_CREST" class="st0" d="M401,116.1H267.6V96H401V116.1z"/>
<path id="flood_right_water_level_FLOOD4" class="st0" d="M401,116.1H267.6V55.3H401V116.1z"/>
<path id="center_water_level_LOW" class="st0" d="M267.6,116.1H138.8v-5.8h128.9v5.8H267.6z"/>
<path id="center_water_level_MED" class="st0" d="M267.6,116.1H138.8v-10.6h128.9v10.6H267.6z"/>
<path id="center_water_level_HI" class="st0" d="M267.6,116.1H138.8v-15.2h128.9v15.2H267.6z"/>
<path id="center_water_level_CREST" class="st0" d="M267.6,116.1H138.8V96h128.9v20.1H267.6z"/>
<path id="center_water_level_FLOOD4" class="st0" d="M267.6,116.1H138.8V54.8h128.9v61.3H267.6z"/>
<path id="flood_left_water_level_CREST" class="st0" d="M138.8,116.1H1V96h137.8V116.1z"/>
<path id="flood_left_water_level_FLOOD4" class="st0" d="M138.8,116.1H1V55.3h137.8V116.1z"/>
<path id="right_water_level_LOW" class="st0" d="M398,156H201v-41.4c0,0,1.7,0,2.6,0c2.6,0,5.4,0,8.2-0.1c5.8-0.1,11.3-0.1,15-0.1
	c1.9,0,3.4,0.2,4.9,0.4c3.2,0.4,6,0.7,11.4-1c3.1-0.9,4.9-2,6.3-3.4c0.2-0.2,1.2,0,1.4,0c0.3,0,0.8,0,1.2,0c0.3,0,0.8,0,1,0
	s1.4,0,1.7,0c0.6,0,1.1,0,1.4,0c0.5,0,0.9,0,1.2,0c0.3,0,0.7,0,1.8,0c1.7,0,54,1,56.7,1c2.3,0,6,0,9.8-0.1s9.1-0.1,11.9-0.2
	c3.4-0.1,10-0.3,20.9-0.6c9.2-0.3,17.3-0.6,20.6-0.5c4.4,0,10.3,0.3,15.5,0.5c1.1,0.1,5.3,0.4,6.5,0.5v42
	C401,154.7,399.7,156,398,156z"/>
<path id="right_water_level_MED" class="st0" d="M398,156H201v-41.4c0,0,1.7,0,2.6,0c2.6,0,5.4,0,8.2-0.1c5.8-0.1,11.3-0.1,15-0.1
	c1.9,0,3.4,0.2,4.9,0.4c3.2,0.4,6,0.7,11.4-1c3.1-0.9,4.9-2,6.3-3.4c0.9-1,1.7-2.2,2.4-3.7c0.1-0.2,0.3-0.6,0.5-1.1
	c0.1-0.2,0.9,0,1,0c0.2,0,1,0,1.3,0c0.6,0,0.9,0,1.2,0c0.5,0,1.1,0,1.4,0s0.8,0,1.9,0c1.7,0,54.6,0.9,57.2,1c2.3,0,5.9,0.1,9.6,0
	c3.8-0.1,7.9-0.4,10.7-0.8c3.4-0.4,10.3-1.2,21.2-2.5c9-1.1,18.1-1,21.4-1.1c4.4,0,11.2-0.1,16.4,0.2c1.1,0.1,4.1,0.1,5.3,0.2V153
	C401,154.7,399.7,156,398,156z"/>
<path id="right_water_level_HI" class="st0" d="M398,156H201v-41.4c0,0,1.7,0,2.6,0c2.6,0,5.4,0,8.2-0.1c5.8-0.1,11.3-0.1,15-0.1
	c1.9,0,3.4,0.2,4.9,0.4c3.2,0.4,6,0.7,11.4-1c3.1-0.9,4.9-2,6.3-3.4c0.9-1,1.7-2.2,2.4-3.7c0.1-0.2,0.3-0.6,0.5-1.1
	c0.4-1.1,1-2.9,1.7-4.7c0-0.1,0.3,0,0.5,0c0.1,0,0.2,0,0.4,0s0.2,0,0.4,0c0.1,0,0.1,0,0.3,0c0.1,0,58.6,0.4,61.3,0.3
	c2.1,0,5.4-0.2,9.1-0.5c3.9-0.3,7.9-0.7,10.7-1.1c3.4-0.4,12.9-1.9,23.8-3.2c9-1.1,16.3-1.3,19.6-1.4c4.4-0.2,12-0.5,17.2-0.3
	c1.1,0.1,2.7,0.1,3.9,0.2v58C401,154.7,399.7,156,398,156z"/>
<path id="right_water_level_CREST" class="st0" d="M398,156H201v-41.4c0,0,1.7,0,2.6,0c2.6,0,5.4,0,8.2-0.1c5.8-0.1,11.3-0.1,15-0.1
	c1.9,0,3.4,0.2,4.9,0.4c3.2,0.4,6,0.7,11.4-1c3.1-0.9,4.9-2,6.3-3.4c0.9-1,1.7-2.2,2.4-3.7c0.1-0.2,0.3-0.6,0.5-1.1
	c0.4-1.1,1-2.9,1.7-4.7c0-0.1,0.6-1.7,0.7-1.9c1.1-3.1,2.1-6,2.5-6.9c0.6-1.3,1.3-4.3,1.9-7.3c1.7-7.4,2.5-10.5,4.1-10.5
	c1.7,0,50.8,0.5,53.4,0.5c2.1,0,4.2-0.4,7.9-1.3c3.8-0.9,7-1.8,9.8-2.1c3.4-0.4,14.4-1.3,25.3-2.3c9-0.9,18.3-1.7,21.5-1.8
	c4.4-0.2,11-0.2,16.2-0.2c1.1,0,2.2,0,3.9,0.1V153C401,154.7,399.7,156,398,156z"/>
<path id="right_water_level_FLOOD4" class="st0" d="M398,156H201v-41.4c0,0,1.7,0,2.6,0c2.6,0,5.4,0,8.2-0.1
	c5.8-0.1,11.3-0.1,15-0.1c1.9,0,3.4,0.2,4.9,0.4c3.2,0.4,6,0.7,11.4-1c3.1-0.9,4.9-2,6.3-3.4c0.9-1,1.7-2.2,2.4-3.7
	c0.1-0.2,0.3-0.6,0.5-1.1c0.4-1.1,1-2.9,1.7-4.7c0-0.1,0.6-1.7,0.7-1.9c1.1-3.1,2.1-6,2.5-6.9c0.6-1.3,1.3-4.3,1.9-7.3
	c1.7-7.4,2.5-10.5,4.1-10.5c1.7,0,50.8,0.5,53.4,0.5c2.1,0,4.2-0.4,7.9-1.3c3.8-0.9,7-1.8,9.8-2.1c3.4-0.4,14.4-1.3,25.3-2.3
	c9-0.9,18.3-1.7,21.5-1.8c4.4-0.2,11-0.2,16.2-0.2c1.1,0,2.2,0,3.9,0.1V153C401,154.7,399.7,156,398,156z"/>
<path id="left_water_level_LOW" class="st0" d="M201,156H4c-1.7,0-3-1.3-3-3v-44.6c4.9-1.7,11.7-2.8,14.4-3.2
	c3-0.5,11.7-0.5,14.1-0.6c7.7-0.2,15.5,0.8,22.9,1.4c4.5,0.4,9.6,1.1,14.4,2c3.8,0.7,6.4,1,8.9,1.2c3.4,0.3,4.2,0.2,6.6,0.5
	s5,0.4,6.4,0.6c2.3,0.2,4.5,0.4,6.4,0.4c1.6,0,5.7,0.1,7.8,0.2c2.1,0.1,6.5,0.3,7.4,0.3c0.7,0,7.4,0.1,8.3,0.1c1.2,0,4.8,0.1,7.3,0
	c3.7-0.2,24-1.1,30.6-1.1c0.1,0,0.2,0,0.3,0s0.1,0,0.2,0c0.1,0,0.1,0,0.2,0c0.1,0,0.1,0,0.2,0c0.1,0,0.1,0,0.2,0c0.1,0,0.1,0,0.2,0
	c0.1,0,0.2,0,0.3,0s0.2,0,0.3,0s0.1,0,0.3,0c0.1,0,0.3-0.1,0.4,0c2.6,1.8,5.9,3.8,8.8,3.8c1.9,0,4.2-0.2,6.5-0.4
	c2.4-0.2,4.9-0.4,6.9-0.4c2.1,0,4.4,0.2,6.9,0.5c2.9,0.3,6.3,0.6,10.3,0.7c0.9,0,2.8,0.1,2.8,0.1L201,156L201,156z"/>
<path id="left_water_level_MED" class="st0" d="M201,156H4c-1.7,0-3-1.3-3-3V94c4.8-0.3,11.7-0.9,14.4-1.1
	c2.9-0.2,11.2-0.7,13.6-0.8c7.7-0.4,15.9-0.6,23.3-0.4c4.4,0.1,9.6,0.6,14.4,1.6c4.3,0.9,5.6,1.3,8.5,2.3c4,1.4,5.3,2.2,7.4,3
	c0.7,0.3,4.4,1.7,5.8,2.1c1.6,0.5,4.6,1.4,6.6,1.8c2.3,0.5,5.8,1.1,7.9,1.4c2.2,0.3,6.9,1,7.8,1.1c0.7,0.1,6.9,0.4,7.7,0.5
	c1.2,0,7,0.3,7.9,0.3c3.8,0,20.2-0.4,26.6-0.4c0.1,0,0.2,0,0.2,0c0.1,0,0.1,0,0.2,0c0.1,0,0.1,0,0.2,0c0.1,0,0.1,0,0.2,0
	c0.1,0,0.1,0,0.2,0c0.1,0,0.1,0,0.2,0c0.2,0,0.3-0.1,0.4,0c0.7,1.5,1.6,2.8,2.8,3.7c0.1,0,0.1,0.1,0.1,0.1c0.4,0.3,0.9,0.6,1.4,1
	c2.6,1.8,5.9,3.8,8.8,3.8c1.9,0,4.2-0.2,6.5-0.4c2.4-0.2,4.9-0.4,6.9-0.4c2.1,0,4.4,0.2,6.9,0.5c2.9,0.3,6.3,0.6,10.3,0.7
	c0.9,0,2.8,0.1,2.8,0.1L201,156L201,156z"/>
<path id="left_water_level_HI" class="st0" d="M201,156H4c-1.7,0-3-1.3-3-3V82.7c4.1,0.3,11.6,0.6,13.7,0.7c2.9,0.1,10.6,0,12.9,0
	c7.8-0.2,11.8-0.2,25.3-0.4c4.4-0.1,8.7,0,13.4,0.5c2.1,0.2,4.3,0.2,8.4,0.9c4.7,0.8,5.8,1,7.3,1.3c2.1,0.5,5.2,1.3,6.9,2
	c2.5,1.1,4.7,2.2,6.5,3.3c1.5,1,7.4,4.9,8.6,5.6c1.4,0.9,6.5,3.4,7.3,3.8c0.6,0.3,6.3,0.4,7.4,0.5c1,0,6.7,0.1,7.7,0
	c0.9,0,22,0,24.3,0c0.2,0,0.3,0,0.4,0c0.1,0,0.2,0,0.3,0s0.1,0,0.3,0c0.1,0,0.1,0,0.4,0c0.1,0,0.4,0,0.4,0c0.6,0.9,1.1,2,1.5,3
	c0.2,0.5,0.5,1,0.7,1.6c0.7,1.5,1.6,2.8,2.8,3.7c0.1,0,0.1,0.1,0.1,0.1c0.4,0.3,0.9,0.6,1.4,1c2.6,1.8,5.9,3.8,8.8,3.8
	c1.9,0,4.2-0.2,6.5-0.4c2.4-0.2,4.9-0.4,6.9-0.4c2.1,0,4.4,0.2,6.9,0.5c2.9,0.3,6.3,0.6,10.3,0.7c0.9,0,2.8,0.1,2.8,0.1L201,156
	L201,156z"/>
<path id="left_water_level_CREST" class="st0" d="M201,156H4c-1.7,0-3-1.3-3-3V53.4c4.1,0.3,10.9,0.8,13,1c2.8,0.2,9.2,0.5,11.6,0.6
	c7.8,0.1,12.6-0.1,26-0.3c4.4-0.1,16-0.3,20.7-0.3c11.9,0.1,14.6,0,22.4,0c1.6,0,8.4-0.1,10,0.9c0.6,0.4,0.5,1,0.9,1.9
	c0.2,0.5,0.5,1.6,0.7,2.2c0.2,0.6,0.5,2.8,0.7,3.5c0.4,1,1.1,2.4,1.6,3.5c0.3,0.6,0.9,2.7,1.3,3.8c0.4,0.9,1.7,4.2,2.6,4.2
	s27.7-0.2,30-0.2s3.1,2.7,4,5.2c0.4,1.2,0.8,2.4,1.2,3.1c0.6,1,1.3,4,2.3,8.9c0.7,3.7,1.7,8.2,2.3,9.2c0.1,0.1,0.1,0.2,0.2,0.2
	c0.6,0.9,1.1,2,1.5,3c0.2,0.5,0.5,1,0.7,1.6c0.7,1.5,1.6,2.8,2.8,3.7c0.1,0,0.1,0.1,0.1,0.1c0.4,0.3,0.9,0.6,1.4,1
	c2.6,1.8,5.9,3.8,8.8,3.8c1.9,0,4.2-0.2,6.5-0.4c2.4-0.2,4.9-0.4,6.9-0.4c2.1,0,4.4,0.2,6.9,0.5c2.9,0.3,6.3,0.6,10.3,0.7
	c0.9,0,2.8,0.1,2.8,0.1L201,156L201,156z"/>
<path id="left_water_level_FLOOD4" class="st0" d="M201,156H4c-1.7,0-3-1.3-3-3V53.4c4.1,0.3,10.9,0.8,13,1
	c2.8,0.2,9.2,0.5,11.6,0.6c7.8,0.1,12.6-0.1,26-0.3c4.4-0.1,16-0.3,20.7-0.3c11.9,0.1,14.6,0,22.4,0c1.6,0,8.4-0.1,10,0.9
	c0.6,0.4,0.5,1,0.9,1.9c0.2,0.5,0.5,1.6,0.7,2.2c0.2,0.6,0.5,2.8,0.7,3.5c0.4,1,1.1,2.4,1.6,3.5c0.3,0.6,0.9,2.7,1.3,3.8
	c0.4,0.9,1.7,4.2,2.6,4.2s27.7-0.2,30-0.2s3.1,2.7,4,5.2c0.4,1.2,0.8,2.4,1.2,3.1c0.6,1,1.3,4,2.3,8.9c0.7,3.7,1.7,8.2,2.3,9.2
	c0.1,0.1,0.1,0.2,0.2,0.2c0.6,0.9,1.1,2,1.5,3c0.2,0.5,0.5,1,0.7,1.6c0.7,1.5,1.6,2.8,2.8,3.7c0.1,0,0.1,0.1,0.1,0.1
	c0.4,0.3,0.9,0.6,1.4,1c2.6,1.8,5.9,3.8,8.8,3.8c1.9,0,4.2-0.2,6.5-0.4c2.4-0.2,4.9-0.4,6.9-0.4c2.1,0,4.4,0.2,6.9,0.5
	c2.9,0.3,6.3,0.6,10.3,0.7c0.9,0,2.8,0.1,2.8,0.1L201,156L201,156z"/>
<path id="right_water_line_LOW" class="st1" d="M250.3,110.3c3.5,0,18.4,0.4,27.5,0.4c6.2,0,29.6,0.8,43,0.8
	c9.1,0,34.7-0.7,50.6-1.3c13-0.5,29.6,0.9,29.6,0.9"/>
<path id="center_water_line_LOW" class="st1" d="M138.8,110.3c12.7,0,116.8,0,128.9,0"/>
<path id="left_water_line_LOW" class="st1" d="M1,108.3c0,0,7.3-2.5,16.8-3.3c10-0.8,16.6-0.4,25.9,0.3c7.8,0.5,16.4,1.5,22,2.6
	c7,1.4,17.8,2,21.7,2.4c4.6,0.5,17.4,0.7,20.3,0.9c4.1,0.3,17.2,0.2,21.3,0c8.7-0.4,25.6-1,28.6-1"/>
<path id="right_water_line_MED" class="st1" d="M255.9,97.5c2.2,0,15.8,0,24.6,0.2c6.5,0.1,33.2,0.8,46.4,0.8c8.9,0,28.2-3.5,43.6-4
	c16.5-0.6,30.5,0.2,30.5,0.2"/>
<path id="center_water_line_MED" class="st1" d="M138.8,97.5c12.7,0,116.8,0,128.9,0"/>
<path id="left_water_line_MED" class="st1" d="M1,86.1c0,0,9.6-0.8,19.1-1.4c13.8-0.9,22.8-1.1,32.8-0.9c7.1,0.2,18.2,2.5,23,4.6
	c6.7,3,13.2,4.9,16.9,6c4,1.1,13.3,2.4,16.1,2.7c3.7,0.4,13.3,0.8,17.2,0.8c8.5,0,22.1-0.4,25-0.4"/>
<path id="right_water_line_HI" class="st1" d="M258.9,85.9c1.2,0,21.7,0.2,30.4,0.4c10.3,0.2,24.7,0.4,37.7-0.4
	c14.4-0.8,29.6-5,55.5-5.9c13.9-0.5,18.4,0,18.4,0"/>
<path id="center_water_line_HI" class="st1" d="M138.8,85.9c12.7,0,116.8,0,128.9,0"/>
<path id="left_water_line_HI" class="st1" d="M1,67.7c0,0,11.8,0.9,21.1,0.7c15.9-0.2,32.8-0.9,42.8,0c5.9,0.5,16.2,2,21.1,3.9
	c6.1,2.3,11.4,6.2,14.1,8.1c2.8,2,8,5,10.8,5.3C114.6,86.1,122,86,126,86c8.5,0,19.9-0.1,22.8-0.1"/>
<path id="right_water_line_CREST" class="st1" d="M263.2,75c0.7-0.4,32.5-0.3,41.6-0.3c15.8,0,11,0.7,27.6-3.1
	c2.6-0.6,30.5-2.8,44.6-4.2c7.9-0.8,24.1-0.4,24.1-0.4"/>
<path id="right_water_line_FLOOD4" class="st1" d="M263.2,75c0.7-0.4,32.5-0.3,41.6-0.3c15.8,0,11,0.7,27.6-3.1
	c2.6-0.6,30.5-2.8,44.6-4.2c7.9-0.8,24.1-0.4,24.1-0.4"/>
<path id="center_water_line_CREST" class="st1" d="M138.8,78c12.7,0,116.8,0,128.9,0"/>
<path id="left_water_line_CREST" class="st1" d="M1,53.3c0,0,18.5,1.7,28,1.5c16.2-0.2,72.3-1,74.6-0.1c1.1,0.4,1.4,1.2,1.9,2.7
	c0.3,0.9,0.8,2.7,1.1,4.4c0.4,2.1,1.2,3,2,5.2c1.3,3.6,2.5,8,4,8c12.6,0,29.4-0.1,30.6,0.2"/>
<path id="left_water_line_FLOOD4" class="st1" d="M1,53.3c0,0,18.5,1.7,28,1.5c16.2-0.2,72.3-1,74.6-0.1c1.1,0.4,1.4,1.2,1.9,2.7
	c0.3,0.9,0.8,2.7,1.1,4.4c0.4,2.1,1.2,3,2,5.2c1.3,3.6,2.5,8,4,8c12.6,0,29.4-0.1,30.6,0.2"/>
<path id="flood_right_water_line_CREST" class="st1" d="M267.6,78c1.5,0,133.4,0,133.4,0"/>
<path id="flood_left_water_line_CREST" class="st1" d="M1,78c0,0,132.1,0,137.8,0"/>
<path id="flood_right_water_line_FLOOD4" class="st1" d="M267.6,55.3c1.5,0,133.4,0,133.4,0"/>
<path id="center_water_line_FLOOD4" class="st1" d="M138.8,55.3c12.7,0,116.8,0,128.9,0"/>
<path id="flood_left_water_line_FLOOD4" class="st1" d="M1,55.3c0,0,132.1,0,137.8,0"/>
</svg>
