<?xml version="1.0" encoding="utf-8"?>
<!-- Generator: Adobe Illustrator 25.4.1, SVG Export Plug-In . SVG Version: 6.00 Build 0)  -->
<svg version="1.1" id="Gauge_3_CS_Water" xmlns="http://www.w3.org/2000/svg" xmlns:xlink="http://www.w3.org/1999/xlink"
	 x="0px" y="0px" viewBox="0 0 402 157" enable-background="new 0 0 402 157" xml:space="preserve">


	<path id="flood_right_water_level_CREST" data-name="flood_right_water_level_CREST" style="opacity:0.4;fill:#50ACFF;" d="M401,116.08891H267.64999V78H401V116.08891z"/>
	<path id="flood_right_water_level_FLOOD4" data-name="flood_right_water_level_FLOOD4" style="opacity:0.4;fill:#50ACFF;" d="M401,116.08891H267.64999V55.3H401V116.08891z"
		/>
	<path id="center_water_level_LOW" data-name="center_water_level_LOW" style="opacity:0.4;fill:#50ACFF;" d="M267.64999,116.08891h-128.8867V110.312h128.8867
		V116.08891z"/>
	<path id="center_water_level_MED" data-name="center_water_level_MED" style="opacity:0.4;fill:#50ACFF;" d="M267.64999,116.08891h-128.8867V97.5h128.8867
		V116.08891z"/>
	<path id="center_water_level_HI" data-name="center_water_level_HI" style="opacity:0.4;fill:#50ACFF;" d="M267.64999,116.08891h-128.8867V85.9h128.8867V116.08891
		z"/>
	<path id="center_water_level_CREST" data-name="center_water_level_CREST" style="opacity:0.4;fill:#50ACFF;" d="M267.64999,116.08891h-128.8867V78h128.8867
		V116.08891z"/>
	<path id="center_water_level_FLOOD4" data-name="center_water_level_FLOOD4" style="opacity:0.4;fill:#50ACFF;" d="M267.64999,116.08891h-128.8867V55.3h128.8867
		V116.08891z"/>
	<path id="flood_left_water_level_CREST" data-name="flood_left_water_level_CREST" style="opacity:0.4;fill:#50ACFF;" d="M138.76329,116.08891H1V78h137.76329V116.08891z"
		/>
	<path id="flood_left_water_level_FLOOD4" data-name="flood_left_water_level_FLOOD4" style="opacity:0.4;fill:#50ACFF;" d="M138.76329,116.08891H1V55.3h137.76329
		V116.08891z"/>


	<path id="right_water_level_LOW" data-name="right_water_level_LOW" style="opacity:0.4;fill:#50ACFF;" d="M398,156H201v-41.4434
		c0,0,1.69841,0.01265,2.56006,0.0059c2.6377-0.01465,5.44629-0.04004,8.22412-0.06543
		c5.79688-0.05176,11.27246-0.09961,14.9707-0.05957c1.89062,0.02148,3.39941,0.19727,4.85889,0.36719
		c3.20166,0.375,5.96582,0.69629,11.4458-0.99023c3.0692-0.94392,4.88461-1.97654,6.26477-3.44747
		c0.21445-0.22855,1.18456-0.02431,1.44502-0.02029c0.31393,0.00484,0.75545,0.01034,1.16576-0.00267
		c0.29155-0.00924,0.81085,0.01123,0.95615,0.01805c0.22089,0.01036,1.42372,0.04613,1.7375,0.04613
		c0.58742,0,1.11298,0.03075,1.44536,0.03075c0.51895,0,0.89182-0.01538,1.23007,0c0.30167,0.01371,0.71228,0.04329,1.77432,0.04329
		c1.70374,0,54.02142,0.98816,56.71469,1.03541c2.26273,0.0397,5.97415,0.02708,9.75876-0.05177
		c3.81088-0.07939,9.1221-0.13892,11.93314-0.1812c3.44272-0.05177,9.99445-0.25105,20.91531-0.62125
		c9.16339-0.31062,17.271-0.5629,20.55292-0.54359c4.40051,0.02589,10.3483,0.28584,15.53119,0.54359
		c1.14374,0.05688,5.27063,0.44933,6.51547,0.54359V153C401,154.65686,399.65686,156,398,156z"/>

	<path id="right_water_level_MED" data-name="right_water_level_MED" style="opacity:0.4;fill:#50ACFF;" d="M398,156H201v-41.4434
		c0,0,1.69841,0.01265,2.56006,0.0059c2.6377-0.01465,5.44629-0.04004,8.22412-0.06543
		c5.79688-0.05176,11.27246-0.09961,14.9707-0.05957c1.89062,0.02148,3.39941,0.19727,4.85889,0.36719
		c3.20166,0.375,5.96582,0.69629,11.4458-0.99023c3.0692-0.94392,4.88777-1.97357,6.26477-3.44747
		c0.92804-0.99334,1.6555-2.18846,2.43005-3.69511c0.10815-0.21053,0.2524-0.5945,0.45804-1.08829
		c0.06911-0.16595,1.0798-2.93903,1.67186-4.66868c0.04889-0.14278,0.59645-1.73421,0.67331-1.9481
		c0.24129-0.67152,0.39874-1.13751,0.51532-1.44758c0.08148-0.21674,1.77602,0.05619,2.07784,0.04412
		c0.3017-0.01207,0.84161,0,1.90369,0c1.7037,0,54.55014,0.93451,57.24344,0.98176c2.26273,0.0397,5.86172,0.11855,9.64633,0.0397
		c3.81088-0.07939,7.92905-0.40105,10.71811-0.75423c3.44537-0.43629,10.34518-1.18953,21.19809-2.4612
		c9.02975-1.05804,18.11472-1.04198,21.39658-1.07182c4.36664-0.0397,11.21188-0.09897,16.39478,0.15879
		c1.14374,0.05688,4.10339,0.14392,5.34824,0.23818V153C401,154.65686,399.65686,156,398,156z"/>

	<path id="right_water_level_HI" data-name="right_water_level_HI" style="opacity:0.4;fill:#50ACFF;" d="M398,156H201v-41.4434
		c0,0,1.69841,0.01265,2.56006,0.0059c2.6377-0.01465,5.44629-0.04004,8.22412-0.06543
		c5.79688-0.05176,11.27246-0.09961,14.9707-0.05957c1.89062,0.02148,3.39941,0.19727,4.85889,0.36719
		c3.20166,0.375,5.96582,0.69629,11.4458-0.99023c3.0692-0.94392,4.88777-1.97357,6.26477-3.44747
		c0.92804-0.99334,1.6555-2.18846,2.43005-3.69511c0.10815-0.21053,0.26561-0.5892,0.45804-1.08829
		c0.4341-1.12589,1.03813-2.86704,1.67189-4.66867c0.04997-0.14204,0.60262-1.7439,0.67328-1.94811
		c1.06306-3.07213,2.01271-5.88728,2.48491-6.86819c0.62433-1.29699,1.60965-5.85428,1.68552-6.08957
		c0.03854-0.11954,0.32971-0.07915,0.43835-0.07915c0.11273,0,54.85822,0.3587,57.55191,0.34857
		c2.08243-0.00783,5.35144-0.16226,9.12347-0.48038c3.92221-0.33079,7.89493-0.7227,10.68399-1.07588
		c3.44537-0.43629,12.94373-1.90121,23.79663-3.17288c9.02972-1.05804,16.31897-1.28012,19.5972-1.43713
		c4.42493-0.21193,11.99084-0.53568,17.17374-0.27792c1.14374,0.05688,2.66183,0.10267,3.90668,0.19692V153
		C401,154.65686,399.65686,156,398,156z"/>

	<path id="right_water_level_CREST" data-name="right_water_level_CREST" style="opacity:0.4;fill:#50ACFF;" d="M398,156H201v-41.4434
		c0,0,1.69841,0.01265,2.56006,0.0059c2.6377-0.01465,5.44629-0.04004,8.22412-0.06543
		c5.79688-0.05176,11.27246-0.09961,14.9707-0.05957c1.89062,0.02148,3.39941,0.19727,4.85889,0.36719
		c3.20166,0.375,5.96582,0.69629,11.4458-0.99023c3.0692-0.94392,4.88777-1.97357,6.26477-3.44747
		c0.92804-0.99334,1.6555-2.18846,2.43005-3.69511c0.10815-0.21053,0.26561-0.5892,0.45804-1.08829
		c0.4341-1.12589,1.03813-2.86704,1.67189-4.66867c0.04997-0.14204,0.57076-1.65154,0.67326-1.94811
		c1.06558-3.08237,2.07166-5.97626,2.48489-6.86819c0.60068-1.29642,1.27634-4.32365,1.93802-7.2636
		c1.65759-7.36484,2.51788-10.54357,4.05798-10.54795c1.70374-0.00484,50.75378,0.51335,53.44745,0.50323
		c2.08243-0.00783,4.1694-0.43862,7.85303-1.31071c3.76324-0.89094,7.01294-1.77486,9.80203-2.12805
		c3.44537-0.43629,14.40936-1.29264,25.28741-2.32745c9.0372-0.85969,18.25589-1.66721,21.53415-1.82422
		c4.42493-0.21193,10.98721-0.18871,16.15637-0.15299c1.14514,0.00792,2.23254,0.04816,3.88107,0.05317V153
		C401,154.65686,399.65686,156,398,156z"/>

	<path id="right_water_level_FLOOD4" data-name="right_water_level_FLOOD4" style="opacity:0.4;fill:#50ACFF;" d="M398,156H201v-41.4434
		c0,0,1.69841,0.01265,2.56006,0.0059c2.6377-0.01465,5.44629-0.04004,8.22412-0.06543
		c5.79688-0.05176,11.27246-0.09961,14.9707-0.05957c1.89062,0.02148,3.39941,0.19727,4.85889,0.36719
		c3.20166,0.375,5.96582,0.69629,11.4458-0.99023c3.0692-0.94392,4.88777-1.97357,6.26477-3.44747
		c0.92804-0.99334,1.6555-2.18846,2.43005-3.69511c0.10815-0.21053,0.26561-0.5892,0.45804-1.08829
		c0.4341-1.12589,1.03813-2.86704,1.67189-4.66867c0.04997-0.14204,0.57076-1.65154,0.67326-1.94811
		c1.06558-3.08237,2.07166-5.97626,2.48489-6.86819c0.60068-1.29642,1.27634-4.32365,1.93802-7.2636
		c1.65759-7.36484,2.51788-10.54357,4.05798-10.54795c1.70374-0.00484,50.75378,0.51335,53.44745,0.50323
		c2.08243-0.00783,4.1694-0.43862,7.85303-1.31071c3.76324-0.89094,7.01294-1.77486,9.80203-2.12805
		c3.44537-0.43629,14.40936-1.29264,25.28741-2.32745c9.0372-0.85969,18.25589-1.66721,21.53415-1.82422
		c4.42493-0.21193,10.98721-0.18871,16.15637-0.15299c1.14514,0.00792,2.23254,0.04816,3.88107,0.05317V153
		C401,154.65686,399.65686,156,398,156z"/>

	<path id="left_water_level_LOW" data-name="left_water_level_LOW" style="opacity:0.4;fill:#50ACFF;" d="M201,156H4c-1.65685,0-3-1.34314-3-3v-44.61123
		c4.87424-1.74866,11.7255-2.7728,14.42113-3.17349c3.04993-0.45335,11.7179-0.5004,14.09238-0.5505
		c7.67467-0.16191,15.49779,0.80966,22.86208,1.39245c4.50117,0.35621,9.56443,1.07063,14.36659,2.01015
		c3.7632,0.73625,6.43214,0.99725,8.87402,1.21924c3.41248,0.31023,4.22167,0.23823,6.60337,0.53181
		c2.409,0.29694,4.95089,0.42494,6.38179,0.57613c2.32362,0.24551,4.50678,0.41901,6.38178,0.44318
		c1.62609,0.02097,5.73097,0.10809,7.83505,0.23959c2.0988,0.13118,6.51459,0.28807,7.36012,0.31461
		c0.6711,0.02106,7.44013,0.05909,8.27294,0.05909c1.20492,0,4.82499,0.08302,7.29467-0.02207
		c3.72132-0.15836,24.02676-1.10867,30.60558-1.09396c0.11732,0.00026,0.20415-0.0244,0.25703-0.0244
		c0.08115,0,0.14186-0.03068,0.20035-0.02811c0.07854,0.00344,0.12567,0.00962,0.19524,0.0033
		c0.06305-0.00574,0.10117,0,0.15175-0.00317c0.06311-0.00394,0.07516-0.00634,0.17073-0.00632
		c0.07063,0.00002,0.09167-0.00317,0.15807,0.00025c0.1308,0.00674,0.16008,0,0.26195,0c0.12392,0,0.17464,0,0.29834,0.00728
		c0.12434,0.00732,0.12198,0.00728,0.28378,0.00728c0.10916,0,0.32297-0.09314,0.44269-0.01041
		c2.63651,1.82183,5.86028,3.7818,8.81352,3.7818c1.92578,0,4.22656-0.19336,6.45166-0.37988
		c2.42285-0.2041,4.92871-0.41211,6.93262-0.36914c2.11621,0.04688,4.35059,0.24512,6.9375,0.47461
		c2.89763,0.25684,6.29733,0.56424,10.33949,0.70334c0.89343,0.03075,2.75377,0.06521,2.75377,0.06521V156z"/>

	<path id="left_water_level_MED" data-name="left_water_level_MED" style="opacity:0.4;fill:#50ACFF;" d="M201,156H4c-1.65685,0-3-1.34314-3-3V86.03448
		c4.80635-0.31353,11.70391-0.8709,14.42113-1.07993c2.88061-0.22158,11.17974-0.67245,13.55126-0.80123
		c7.69879-0.41803,15.92011-0.59221,23.30538-0.41803c4.41491,0.10413,9.64244,0.58501,14.43186,1.58745
		c4.31253,0.90263,5.61966,1.29292,8.54324,2.34308c3.97704,1.42857,5.30891,2.22135,7.40185,3.01414
		c0.70639,0.26757,4.4137,1.70774,5.79307,2.11722c1.62735,0.4831,4.64716,1.37154,6.59406,1.84053
		c2.26344,0.54524,5.78338,1.14775,7.90803,1.43315c2.15581,0.28959,6.91904,0.96919,7.76055,1.05582
		c0.67463,0.06944,6.87831,0.43785,7.71048,0.47049c1.24422,0.04879,7.03071,0.34155,7.90444,0.34155
		c3.75706,0,17.16094-0.40098,23.56409-0.40098c0.05037,0,0.17015-0.00851,0.21477-0.00686
		c0.06169,0.00229,0.3371,0.00241,0.38815-0.00129c0.05461-0.00396,0.37271,0.00354,0.44473,0.01506
		c0.14352,0.02296,0.48203,2.17391,1.07661,3.15064c0.04239,0.06963,0.10144,0.16071,0.1534,0.24091
		c0.59973,0.92567,1.04881,1.94235,1.5385,3.0169c0.19589,0.42986,0.67757,1.44063,0.73878,1.56373
		c0.72717,1.46235,1.56734,2.81024,2.81392,3.69508c0.06877,0.04881,0.08826,0.06248,0.12109,0.08594
		c0.44043,0.31445,0.90625,0.64642,1.39204,0.98285c2.63585,1.82536,5.86028,3.7818,8.81352,3.7818
		c1.92578,0,4.22656-0.19336,6.45166-0.37988c2.42285-0.2041,4.92871-0.41211,6.93262-0.36914
		c2.11621,0.04688,4.35059,0.24512,6.9375,0.47461c2.89763,0.25684,6.29733,0.56424,10.33949,0.70334
		c0.89343,0.03075,2.75377,0.06521,2.75377,0.06521V156z"/>

	<path id="left_water_level_HI" data-name="left_water_level_HI" style="opacity:0.4;fill:#50ACFF;" d="M201,156H4c-1.65685,0-3-1.34314-3-3V67.70641
		c4.07919,0.27805,11.58028,0.60772,13.65823,0.65786c2.88828,0.06968,10.55702,0.0383,12.93156-0.0089
		c7.84444-0.15593,11.82963-0.16517,25.25639-0.39173c4.41553-0.07324,8.71917,0.03104,13.36105,0.48026
		c2.07205,0.20052,4.3049,0.24812,8.37421,0.93624c4.70664,0.79591,5.82554,0.98827,7.34717,1.32566
		c2.09444,0.4644,5.20016,1.29436,6.85258,2.00322c2.48059,1.06409,4.68124,2.18458,6.45959,3.33914
		c1.51852,0.98588,7.42809,4.87903,8.57239,5.60722c1.37792,0.87686,6.47425,3.41312,7.32156,3.75439
		c0.62909,0.25337,6.27361,0.44794,7.395,0.48531c1.02856,0.03429,6.74786,0.05708,7.70023,0.03738
		c0.88094-0.01823,19.04691-0.04377,21.29449-0.04377c0.15154,0,0.2506,0.0022,0.3526,0.00207
		c0.13403-0.00018,0.54361,0.01018,0.59714,0.00569c0.03159-0.00266,0.21227,0.64954,1.23383,5.62505
		c0.75752,3.68943,1.66629,8.18384,2.30571,9.1738c0.0392,0.0607,0.10303,0.15975,0.15343,0.24094
		c0.58372,0.9404,1.06874,1.99478,1.53844,3.01688c0.24005,0.52225,0.48207,1.04903,0.73882,1.56371
		c0.72501,1.45345,1.56734,2.81024,2.81392,3.69508c0.06877,0.04881,0.08826,0.06248,0.12109,0.08594
		c0.44043,0.31445,0.90625,0.64642,1.39204,0.98285c2.63585,1.82536,5.86028,3.7818,8.81352,3.7818
		c1.92578,0,4.22656-0.19336,6.45166-0.37988c2.42285-0.2041,4.92871-0.41211,6.93262-0.36914
		c2.11621,0.04688,4.35059,0.24512,6.9375,0.47461c2.89763,0.25684,6.29733,0.56424,10.33949,0.70334
		c0.89343,0.03075,2.75377,0.06521,2.75377,0.06521V156z"/>

	<path id="left_water_level_CREST" data-name="left_water_level_CREST" style="opacity:0.4;fill:#50ACFF;" d="M201,156H4c-1.65685,0-3-1.34314-3-3V53.36258
		c4.07919,0.27804,10.90904,0.83814,12.98387,0.96263c2.83125,0.16988,9.17657,0.54892,11.55152,0.56625
		c7.75764,0.05663,12.56416-0.05656,25.99092-0.28312c4.41553-0.07324,16.00465-0.30533,20.66816-0.28313
		c11.89127,0.05663,14.60006,0.01276,22.36691,0c1.61905-0.00266,8.37032-0.06376,9.95885,0.9138
		c0.64332,0.39589,0.54988,1.01685,0.88592,1.89402c0.18017,0.47032,0.48096,1.62618,0.67207,2.19951
		c0.21384,0.64153,0.45087,2.84879,0.73317,3.54366c0.39713,0.97756,1.09975,2.4439,1.55798,3.54366
		c0.26084,0.62603,0.86414,2.70299,1.34415,3.8186c0.40675,0.94534,1.69765,4.1524,2.57013,4.19932
		c0.87984,0.0473,27.70997-0.16626,29.95754-0.16626c2.25989,0,3.11154,2.65129,3.9561,5.2002
		c0.39487,1.1917,0.75829,2.3542,1.2451,3.14059c0.64999,1.04998,1.26805,4.03564,2.26559,8.9092
		c0.74838,3.65624,1.65645,8.17884,2.30571,9.1738c0.05185,0.07945,0.10303,0.15975,0.15343,0.24094
		c0.58372,0.9404,1.06874,1.99478,1.53844,3.01688c0.24005,0.52225,0.48207,1.04903,0.73882,1.56371
		c0.72501,1.45345,1.56734,2.81024,2.81392,3.69508c0.06877,0.04881,0.08826,0.06248,0.12109,0.08594
		c0.44043,0.31445,0.90625,0.64642,1.39204,0.98285c2.63585,1.82536,5.86028,3.7818,8.81352,3.7818
		c1.92578,0,4.22656-0.19336,6.45166-0.37988c2.42285-0.2041,4.92871-0.41211,6.93262-0.36914
		c2.11621,0.04688,4.35059,0.24512,6.9375,0.47461c2.89763,0.25684,6.29733,0.56424,10.33949,0.70334
		c0.89343,0.03075,2.75377,0.06521,2.75377,0.06521V156z"/>

	<path id="left_water_level_FLOOD4" data-name="left_water_level_FLOOD4" style="opacity:0.4;fill:#50ACFF;" d="M201,156H4c-1.65685,0-3-1.34314-3-3V53.36258
		c4.07919,0.27804,10.90904,0.83814,12.98387,0.96263c2.83125,0.16988,9.17657,0.54892,11.55152,0.56625
		c7.75764,0.05663,12.56416-0.05656,25.99092-0.28312c4.41553-0.07324,16.00465-0.30533,20.66816-0.28313
		c11.89127,0.05663,14.60006,0.01276,22.36691,0c1.61905-0.00266,8.37032-0.06376,9.95885,0.9138
		c0.64332,0.39589,0.54988,1.01685,0.88592,1.89402c0.18017,0.47032,0.48096,1.62618,0.67207,2.19951
		c0.21384,0.64153,0.45087,2.84879,0.73317,3.54366c0.39713,0.97756,1.09975,2.4439,1.55798,3.54366
		c0.26084,0.62603,0.86414,2.70299,1.34415,3.8186c0.40675,0.94534,1.69765,4.1524,2.57013,4.19932
		c0.87984,0.0473,27.70997-0.16626,29.95754-0.16626c2.25989,0,3.11154,2.65129,3.9561,5.2002
		c0.39487,1.1917,0.75829,2.3542,1.2451,3.14059c0.64999,1.04998,1.26805,4.03564,2.26559,8.9092
		c0.74838,3.65624,1.65645,8.17884,2.30571,9.1738c0.05185,0.07945,0.10303,0.15975,0.15343,0.24094
		c0.58372,0.9404,1.06874,1.99478,1.53844,3.01688c0.24005,0.52225,0.48207,1.04903,0.73882,1.56371
		c0.72501,1.45345,1.56734,2.81024,2.81392,3.69508c0.06877,0.04881,0.08826,0.06248,0.12109,0.08594
		c0.44043,0.31445,0.90625,0.64642,1.39204,0.98285c2.63585,1.82536,5.86028,3.7818,8.81352,3.7818
		c1.92578,0,4.22656-0.19336,6.45166-0.37988c2.42285-0.2041,4.92871-0.41211,6.93262-0.36914
		c2.11621,0.04688,4.35059,0.24512,6.9375,0.47461c2.89763,0.25684,6.29733,0.56424,10.33949,0.70334
		c0.89343,0.03075,2.75377,0.06521,2.75377,0.06521V156z"/>


	<path id="right_water_line_LOW" data-name="right_water_line_LOW" style="fill:none;stroke:#1B96DB;stroke-miterlimit:10;" d="M250.32393,110.312
		c3.52252,0,18.37312,0.38189,27.4695,0.38189c6.22385,0,29.57358,0.81844,42.99509,0.81844
		c9.07031,0,34.70059-0.68024,50.57922-1.30949C384.32544,109.68934,401,111.13039,401,111.13039"/>

	<path id="center_water_line_LOW" data-name="center_water_line_LOW" style="fill:none;stroke:#1B96DB;stroke-miterlimit:10;" d="M138.76329,110.31195
		c12.71207,0,116.79984,0.00005,128.8867,0.00005"/>

	<path id="left_water_line_LOW" data-name="left_water_line_LOW" style="fill:none;stroke:#1B96DB;stroke-miterlimit:10;" d="M1,108.30884
		c0,0,7.31989-2.48761,16.81423-3.25742c10.04372-0.81435,16.64905-0.36194,25.87842,0.27145
		c7.80576,0.53569,16.3776,1.53822,21.98761,2.62404c7.02866,1.36038,17.79517,1.98177,21.71616,2.44306
		c4.61469,0.54291,17.36266,0.71113,20.26842,0.90484c4.07178,0.27145,17.24873,0.1673,21.26373,0
		c8.68648-0.36193,25.62396-0.98281,28.55533-0.98281"/>

	<path id="right_water_line_MED" data-name="right_water_line_MED" style="fill:none;stroke:#1B96DB;stroke-miterlimit:10;" d="M255.78239,97.49998
		c2.19081,0,13.25197,0.03366,22.3463,0.22716c6.62967,0.14105,33.87363,0.83708,47.2951,0.83708
		c9.07031,0,28.84756-3.48167,44.50485-4.0459C386.69711,93.91405,401,94.68777,401,94.68777"/>

	<path id="center_water_line_MED" data-name="center_water_line_MED" style="fill:none;stroke:#1B96DB;stroke-miterlimit:10;" d="M138.76329,97.5
		c12.71207,0,116.79984,0.00003,128.8867,0.00003"/>

	<path id="left_water_line_MED" data-name="left_water_line_MED" style="fill:none;stroke:#1B96DB;stroke-miterlimit:10;" d="M1,86.05771
		c0,0,9.84908-0.79754,19.35348-1.43117c13.95387-0.93026,23.18489-1.14494,33.34822-0.87081
		c7.19313,0.19401,18.51006,2.50169,23.4276,4.64368c6.81911,2.97028,13.3872,4.93653,17.19418,5.98241
		c4.137,1.13654,13.5425,2.43866,16.44115,2.71928c3.81332,0.36916,13.46854,0.83669,17.48703,0.83669
		c8.5632,0,19.03218-0.43779,21.96353-0.43779"/>

	<path id="right_water_line_HI" data-name="right_water_line_HI" style="fill:none;stroke:#1B96DB;stroke-miterlimit:10;" d="M259.47751,85.90001
		c1.18311,0,17.50565,0.21954,26.36044,0.37024c10.63419,0.18099,25.48532,0.38632,38.88538-0.37217
		c14.78845-0.83708,30.46341-5.02209,57.24292-5.88311C396.30359,79.55399,401,79.99213,401,79.99213"/>

	<path id="center_water_line_HI" data-name="center_water_line_HI" style="fill:none;stroke:#1B96DB;stroke-miterlimit:10;" d="M138.76329,85.9
		c12.71207,0,116.79984,0.00003,128.8867,0.00003"/>

	<path id="left_water_line_HI" data-name="left_water_line_HI" style="fill:none;stroke:#1B96DB;stroke-miterlimit:10;" d="M1,67.70675
		c0,0,12.02025,0.85226,21.54478,0.71667c16.18916-0.23046,33.40559-0.89824,43.54753,0
		c6.03831,0.53479,16.49224,1.98858,21.51134,3.88039c6.21909,2.34412,11.5899,6.23471,14.25607,8.13265
		c2.82251,2.00925,8.10435,4.9817,11.003,5.26231c3.81333,0.36916,11.33788,0.28703,15.35637,0.28703
		c8.5632,0,16.63596-0.08585,19.56732-0.08585"/>

	<path id="right_water_line_CREST" data-name="right_water_line_CREST" style="fill:none;stroke:#1B96DB;stroke-miterlimit:10;" d="M263.16742,75.0326
		c0.68063-0.4247,32.51205-0.2551,41.58914-0.25495c15.7583,0.00026,10.95639,0.68334,27.573-3.11304
		c2.58945-0.59161,30.45102-2.80453,44.59885-4.15796C384.79767,66.75385,401,67.11465,401,67.11465"/>

	<path id="right_water_line_FLOOD4" data-name="right_water_line_FLOOD4" style="fill:none;stroke:#1B96DB;stroke-miterlimit:10;" d="M263.16742,75.0326
		c0.68063-0.4247,32.51205-0.2551,41.58914-0.25495c15.7583,0.00026,10.95639,0.68334,27.573-3.11304
		c2.58945-0.59161,30.45102-2.80453,44.59885-4.15796C384.79767,66.75385,401,67.11465,401,67.11465"/>

	<path id="center_water_line_CREST" data-name="center_water_line_CREST" style="fill:none;stroke:#1B96DB;stroke-miterlimit:10;" d="M138.76329,78
		c12.71207,0,116.79984,0,128.8867,0"/>

	<path id="left_water_line_CREST" data-name="left_water_line_CREST" style="fill:none;stroke:#1B96DB;stroke-miterlimit:10;" d="M1,53.25305
		c0,0,18.48187,1.67488,28.0064,1.53929c16.18917-0.23046,72.32176-0.99586,74.56813-0.14321
		c1.06544,0.40441,1.4295,1.1832,1.91081,2.65462c0.29196,0.89259,0.78417,2.65753,1.11948,4.35783
		c0.41302,2.09439,1.20667,3.02237,1.97205,5.16544c1.28856,3.60796,2.5323,7.95988,4.01826,7.95988
		c12.62733,0,29.44243-0.06748,30.57698,0.24569"/>

	<path id="left_water_line_FLOOD4" data-name="left_water_line_FLOOD4" style="fill:none;stroke:#1B96DB;stroke-miterlimit:10;" d="M1,53.25305
		c0,0,18.48187,1.67488,28.0064,1.53929c16.18917-0.23046,72.32176-0.99586,74.56813-0.14321
		c1.06544,0.40441,1.4295,1.1832,1.91081,2.65462c0.29196,0.89259,0.78417,2.65753,1.11948,4.35783
		c0.41302,2.09439,1.20667,3.02237,1.97205,5.16544c1.28856,3.60796,2.5323,7.95988,4.01826,7.95988
		c12.62733,0,29.44243-0.06748,30.57698,0.24569"/>

	<path id="flood_right_water_line_CREST" data-name="flood_right_water_line_CREST" style="fill:none;stroke:#1B96DB;stroke-miterlimit:10;" d="M267.64999,78
		C269.12112,78,401,78,401,78"/>

	<path id="flood_left_water_line_CREST" data-name="flood_left_water_line_CREST" style="fill:none;stroke:#1B96DB;stroke-miterlimit:10;" d="M1,78
		c0,0,132.10556,0,137.76328,0"/>

	<path id="flood_right_water_line_FLOOD4" data-name="flood_right_water_line_FLOOD4" style="fill:none;stroke:#1B96DB;stroke-miterlimit:10;" d="M267.64999,55.3
		C269.12112,55.3,401,55.3,401,55.3"/>

	<path id="center_water_line_FLOOD4" data-name="center_water_line_FLOOD4" style="fill:none;stroke:#1B96DB;stroke-miterlimit:10;" d="M138.76329,55.3
		c12.71207,0,116.79982,0,128.8867,0"/>

	<path id="flood_left_water_line_FLOOD4" data-name="flood_left_water_line_FLOOD4" style="fill:none;stroke:#1B96DB;stroke-miterlimit:10;" d="M1,55.3
		c0,0,132.10558,0,137.76329,0"/>

</svg>
