<svg id="Marker_2" data-name="Marker 2" xmlns="http://www.w3.org/2000/svg" viewBox="0 0 15 19.7612"><path d="M0,2V13.00027a2,2,0,0,0,1.99977,2l1.37753.00017.24984.33A45.52549,45.52549,0,0,0,7.50005,19.7612a45.787,45.787,0,0,0,3.8721-4.43076l.24984-.33,1.37764-.00017a2,2,0,0,0,1.99977-1.9999L15,2.00011A2,2,0,0,0,13,0H2A2,2,0,0,0,0,2Z" style="fill:#af27ff"/><path d="M10.33211,12.08336h-5.586V10.78128L7.31125,7.51955A7.18355,7.18355,0,0,0,8.03066,6.3314a2.39456,2.39456,0,0,0,.23112-.97982,1.90653,1.90653,0,0,0-.2181-.98959.69614.69614,0,0,0-.62826-.35807.80861.80861,0,0,0-.7129.41666,2.18911,2.18911,0,0,0-.26367,1.17188h-1.849a3.51527,3.51527,0,0,1,.36133-1.595A2.6983,2.6983,0,0,1,5.96684,2.87436,2.779,2.779,0,0,1,7.448,2.474a2.66485,2.66485,0,0,1,1.96942.69988,2.69439,2.69439,0,0,1,.69987,1.98893,3.81211,3.81211,0,0,1-.38737,1.62436,10.01012,10.01012,0,0,1-1.403,2.028L7.10943,10.55341h3.22268Z" style="fill:#fff"/></svg>