<svg id="Marker_3" data-name="Marker 3" xmlns="http://www.w3.org/2000/svg" viewBox="0 0 15 19.7612"><path d="M0,2V13.00027a2,2,0,0,0,1.99977,2l1.37753.00017.24984.33A45.52549,45.52549,0,0,0,7.50005,19.7612a45.787,45.787,0,0,0,3.8721-4.43076l.24984-.33,1.37764-.00017a2,2,0,0,0,1.99977-1.9999L15,2.00011A2,2,0,0,0,13,0H2A2,2,0,0,0,0,2Z" style="fill:#ff1b00"/><path d="M6.38672,6.50391h.89193a.83294.83294,0,0,0,.74544-.35482,1.68335,1.68335,0,0,0,.23763-.94727,1.41254,1.41254,0,0,0-.24414-.88216.784.784,0,0,0-.6543-.31575.77436.77436,0,0,0-.62825.29948,1.1562,1.1562,0,0,0-.24414.7552H4.64844a2.605,2.605,0,0,1,.34179-1.33138,2.39835,2.39835,0,0,1,.957-.92122A2.82374,2.82374,0,0,1,7.3112,2.474,2.815,2.815,0,0,1,9.362,3.19661a2.63507,2.63507,0,0,1,.74219,1.97917,2.25918,2.25918,0,0,1-.33529,1.19466,2.283,2.283,0,0,1-.88216.8431,2.03369,2.03369,0,0,1,.99935.85938,2.6768,2.6768,0,0,1,.32877,1.35416,2.66,2.66,0,0,1-.804,2.02474,2.946,2.946,0,0,1-2.11263.76172,2.684,2.684,0,0,1-1.97591-.752A2.65657,2.65657,0,0,1,4.5638,9.48568H6.40625a1.35086,1.35086,0,0,0,.26693.85286.82011.82011,0,0,0,.67708.34505.90651.90651,0,0,0,.75195-.35156,1.47724,1.47724,0,0,0,.2767-.9375q0-1.40014-1.08724-1.40625H6.38672Z" style="fill:#fff"/></svg>