<?xml version="1.0" encoding="utf-8"?>
<!-- Generator: Adobe Illustrator 24.3.0, SVG Export Plug-In . SVG Version: 6.00 Build 0)  -->
<svg version="1.1" id="Model_2_Gauge_3_CS_Water" xmlns="http://www.w3.org/2000/svg" xmlns:xlink="http://www.w3.org/1999/xlink"
	 x="0px" y="0px" viewBox="0 0 402 157" style="enable-background:new 0 0 402 157;" xml:space="preserve">
	 
<path id="right_water_line_LOW" data-name="right_water_line_LOW" style="fill:none;stroke:#2D95D2;stroke-miterlimit:10;" d="M236.5,89.3c3.5,0,32.2,0.4,41.3,0.4c6.2,0,29.6,0.8,43,0.8
	c9.1,0,34.7-0.7,50.6-1.3c13-0.5,29.6,0.9,29.6,0.9"/>
	
<path id="center_water_line_LOW" data-name="center_water_line_LOW" style="fill:none;stroke:#2D95D2;stroke-miterlimit:10;" d="M138.8,89.3c12.7,0,123.6,0,135.7,0"/>

<path id="left_water_line_LOW" data-name="left_water_line_LOW" style="fill:none;stroke:#2D95D2;stroke-miterlimit:10;" d="M1,86.9c0,0,11.5-2.6,23.8-2.9c19.3-0.5,34.5,1.8,44.9,3.6
	c10.3,1.8,35,2.9,44.7,3c13.3,0.1,31.2-1.2,36.9-1.2"/>
	
<path id="right_water_line_MED" data-name="right_water_line_MED" style="fill:none;stroke:#2D95D2;stroke-miterlimit:10;" d="M249.2,84.5c2.2,0,19.9,0,29,0.2c6.6,0.1,33.9,0.8,47.3,0.8
	c9.1,0,28.8-3.5,44.5-4c16.8-0.6,31.1,0.2,31.1,0.2"/>
	
<path id="center_water_line_MED" data-name="center_water_line_MED" style="fill:none;stroke:#2D95D2;stroke-miterlimit:10;" d="M138.8,84.5c12.7,0,123.6,0,135.7,0"/>

<path id="left_water_line_MED" data-name="left_water_line_MED" style="fill:none;stroke:#2D95D2;stroke-miterlimit:10;" d="M1,73.1c0,0,16.4-1.6,28.6-2c16.3-0.6,33.4-2,51.3,5.7
	c10.7,4.6,19.8,6.8,36.6,7.8c12.6,0.8,24.5-0.1,30.2-0.1"/>
	
<path id="right_water_line_HI" data-name="right_water_line_HI" style="fill:none;stroke:#2D95D2;stroke-miterlimit:10;" d="M256.1,79.9c1.2,0,16.1,0.2,24.9,0.4c10.6,0.2,25.5,0.4,38.9-0.4
	c14.8-0.8,30.5-5,57.2-5.9c14.3-0.5,23.8,0,23.8,0"/>
	
<path id="center_water_line_HI" data-name="center_water_line_HI" style="fill:none;stroke:#2D95D2;stroke-miterlimit:10;" d="M138.8,79.9c12.7,0,123.6,0,135.7,0"/>

<path id="left_water_line_HI" data-name="left_water_line_HI" style="fill:none;stroke:#2D95D2;stroke-miterlimit:10;" d="M1,61.7c0,0,14.3,1,26.5,0.7C43.7,62,72,60.3,88.9,66.8
	c9.4,3.6,16.4,12.8,26.1,13c12.5,0.3,24.8,0.1,30.5,0.1"/>
	
<path id="right_water_line_CREST" data-name="right_water_line_CREST" style="fill:none;stroke:#2D95D2;stroke-miterlimit:10;" d="M270.7,75c1.5,0,25,0,34.1,0c14.9,0,12.5,0.4,27.6-3.1
	c2.6-0.6,30.5-3,44.6-4.2c7.9-0.7,24-0.4,24-0.4"/>
	
<path id="right_water_line_FLOOD4" data-name="right_water_line_FLOOD4" style="fill:none;stroke:#2D95D2;stroke-miterlimit:10;" d="M270.7,75c1.5,0,25,0,34.1,0c14.9,0,12.5,0.4,27.6-3.1
	c2.6-0.6,30.5-3,44.6-4.2c7.9-0.7,24-0.4,24-0.4"/>
	
<path id="center_water_line_CREST" data-name="center_water_line_CREST" style="fill:none;stroke:#2D95D2;stroke-miterlimit:10;" d="M138.8,75c12.7,0,123.6,0,135.7,0"/>

<path id="left_water_line_CREST" data-name="left_water_line_CREST" style="fill:none;stroke:#2D95D2;stroke-miterlimit:10;" d="M1,53.5c0,0,17.8,1.7,27.3,1.5c16.2-0.2,58.8-0.8,75.6-0.3
	c0.9,0,6.3,20.4,8.2,20.4c12.6,0,25.5,0,31.1,0"/>
	
<path id="left_water_line_FLOOD4" data-name="left_water_line_FLOOD4" style="fill:none;stroke:#2D95D2;stroke-miterlimit:10;" d="M1,53.5c0,0,17.8,1.7,27.3,1.5c16.2-0.2,58.8-0.8,75.6-0.3
	c0.9,0,6.3,20.4,8.2,20.4c12.6,0,25.5,0,31.1,0"/>
	
<path id="flood_right_water_line_CREST" data-name="flood_right_water_line_CREST" style="fill:none;stroke:#2D95D2;stroke-miterlimit:10;" d="M274.5,75C276,75,401,75,401,75"/>

<path id="flood_left_water_line_CREST" data-name="flood_left_water_line_CREST" style="fill:none;stroke:#2D95D2;stroke-miterlimit:10;" d="M1,75c0,0,132.1,0,137.8,0"/>

<path id="flood_right_water_line_FLOOD4" data-name="flood_right_water_line_FLOOD4" style="fill:none;stroke:#2D95D2;stroke-miterlimit:10;" d="M274.5,55.8c1.5,0,126.5,0,126.5,0"/>

<path id="center_water_line_FLOOD4" data-name="center_water_line_FLOOD4" style="fill:none;stroke:#2D95D2;stroke-miterlimit:10;" d="M138.8,55.8c12.7,0,123.6,0,135.7,0"/>

<path id="flood_left_water_line_FLOOD4" data-name="flood_left_water_line_FLOOD4" style="fill:none;stroke:#2D95D2;stroke-miterlimit:10;" d="M1,55.8c0,0,132.1,0,137.8,0"/>

</svg>
