<?xml version="1.0" encoding="utf-8"?>
<!-- Generator: Adobe Illustrator 24.2.3, SVG Export Plug-In . SVG Version: 6.00 Build 0)  -->
<svg version="1.1" id="Model_2_Gauge_3_CS_Water" xmlns="http://www.w3.org/2000/svg" xmlns:xlink="http://www.w3.org/1999/xlink"
	 x="0px" y="0px" viewBox="0 0 402 157" style="enable-background:new 0 0 402 157;" xml:space="preserve">
	 
	<path id="river_level_LOW" data-name="river_level_LOW" style="fill:#67A5D9;" d="M1,86.9c0,0,11.5-2.6,23.8-2.9c19.3-0.5,34.5,1.8,44.9,3.6c10.3,1.8,35,2.9,44.7,3
			c13.3,0.1,31.2-1.2,36.9-1.2c12.7,0,73.1,0,85.2,0c3.5,0,32.2,0.4,41.3,0.4c6.2,0,29.6,0.8,43,0.8c9.1,0,34.7-0.7,50.6-1.3
			c13-0.5,29.6,0.9,29.6,0.9V153c0,1.7-1.3,3-3,3H4c-1.7,0-3-1.3-3-3V86.9z"/>

	<path id="river_level_MED" data-name="river_level_MED" style="fill:#67A5D9;" d="M1,71.1c0,0,14.4,1.7,26.7,1.5c16.2-0.4,29.8,0.2,50.4,6c9.7,2.7,30.2,4.7,39.9,5.1
			c12.6,0.5,24.1,0.7,29.7,0.7c12.7,0,89.4,0,101.5,0c2.2,0,19.7,1.2,28.8,1.4c6.6,0.1,28.9,1,42.3,1c9.1,0,33.1-0.7,48.8-1.3
			c16.8-0.6,31.9,0.8,31.9,0.8V153c0,1.7-1.3,3-3,3H4c-1.7,0-3-1.3-3-3V71.1z"/>

	<path id="river_level_HI" data-name="river_level_HI" style="fill:#67A5D9;" d="M1,59.8c0,0,14.8,1.6,27.1,1.4c16.2-0.4,32.5,3.6,52.9,11c9.5,3.4,22.5,7.4,32.2,7.7
			c12.5,0.3,26.7,0.1,32.4,0.1c12.7,0,98.5,0,110.6,0c1.2,0,12.9,2.5,21.7,2.6c10.6,0.2,33.6,0.3,47,0.3c18.8,0,38.3-1.3,52.7-1.3
			c14.3,0,23.5,0.9,23.5,0.9V153c0,1.7-1.3,3-3,3H4c-1.7,0-3-1.3-3-3V59.8z"/>

	<path id="river_level_CREST" data-name="river_level_CREST" style="fill:#67A5D9;" d="M1,53.5c0,0,17.8,1.7,27.3,1.5c16.2-0.2,38.6-0.3,55.3,4c12.3,3.2,19.3,16,30.9,16c12.6,0,23,0,28.7,0
			c12.7,0,115.4,0,127.5,0c1.5,0,9.1,4.1,18.2,4.1c10.1,0,34.8,0.1,50.2-0.5c10.9-0.4,22.5-1,36.4-1.3c11.7-0.3,25.6,0.8,25.6,0.8
			V153c0,1.7-1.3,3-3,3H4c-1.7,0-3-1.3-3-3V53.5z"/>


	<path id="zeroL_river_level_FLOOD1" data-name="zeroL_river_level_FLOOD1" style="fill:#67A5D9;" d="M1,53.5c0,0,17.8,1.6,27.3,1.5c25.8-0.3,51.3-0.1,67.6,5.5c13.2,4.5,12.9,10.4,14.3,10.4
			c12.6,0,27.3,0,33,0c12.7,0,115.4,0,127.5,0c3.5,0,30.3,0,39.4,0c10.1,0,17.3,0,31.5,0c1.4,0,21.2-1.9,35.5-3.2
			c9.7-0.9,23.9-0.3,23.9-0.3V153c0,1.7-1.3,3-3,3H4c-1.7,0-3-1.3-3-3V53.5z"/>

	<path id="zeroL_river_level_FLOOD2" data-name="zeroL_river_level_FLOOD2" style="fill:#67A5D9;" d="M1,53.5c0,0,17.8,1.6,27.3,1.5c25.8-0.3,54.8-1.5,69.8,3.9c8.2,3,9.5,7.6,9.9,7.6c12.6,0,29.5,0,35.2,0
			c12.7,0,115.4,0,127.5,0c3.5,0,30.3,0,39.4,0c10.1,0,13,0,21.7,0c3,0,30.9,0,45.3,0c9.7,0,23.9,0,23.9,0V153c0,1.7-1.3,3-3,3H4
			c-1.7,0-3-1.3-3-3V53.5z"/>

	<path id="zeroL_river_level_FLOOD3" data-name="zeroL_river_level_FLOOD3" style="fill:#67A5D9;" d="M1,53.5c0,0,17.8,1.6,27.3,1.5c25.8-0.3,62.5-1.7,72.3,2.5c3.3,1.4,5.4,4.6,5.8,4.6c12.6,0,31.1,0,36.8,0
			c12.7,0,115.4,0,127.5,0c3.5,0,30.3,0,39.4,0c10.1,0,16,0,21.7,0c3,0,31.2,0,45.3,0c9.7,0,23.9,0,23.9,0V153c0,1.7-1.3,3-3,3H4
			c-1.7,0-3-1.3-3-3V53.5z"/>

	<path id="zeroL_river_level_FLOOD4" data-name="zeroL_river_level_FLOOD4" style="fill:#67A5D9;" d="M1,53.5c0,0,17.8,1.6,27.3,1.5c25.8-0.3,74.7-0.9,75.6,0.2c0.7,0.8,0.9,1.8,1,1.8c12.6,0,32.6,0,38.3,0
			c12.7,0,115.4,0,127.5,0c3.5,0,30.3,0,39.4,0c10.2,0,15.3,0,21.7,0c3,0,31,0,45.3,0c9.7,0,23.9,0,23.9,0V153c0,1.7-1.3,3-3,3H4
			c-1.7,0-3-1.3-3-3V53.5z"/>


	<path id="water_level_LOW" data-name="water_level_LOW" style="fill:#67A5D9;opacity:0.4;" d="M1,86.9c0,0,11.5-2.6,23.8-2.9c19.3-0.5,34.5,1.8,44.9,3.6c10.3,1.8,35,2.9,44.7,3
			c13.3,0.1,31.2-1.2,36.9-1.2c12.7,0,73.1,0,85.2,0c3.5,0,32.2,0.4,41.3,0.4c6.2,0,29.6,0.8,43,0.8c9.1,0,34.7-0.7,50.6-1.3
			c13-0.5,29.6,0.9,29.6,0.9V153c0,1.7-1.3,3-3,3H4c-1.7,0-3-1.3-3-3V86.9z"/>

	<path id="water_level_MED" data-name="water_level_MED" style="fill:#67A5D9;opacity:0.4;" d="M1,71.1c0,0,14.4,1.7,26.7,1.5c16.2-0.4,29.8,0.2,50.4,6c9.7,2.7,30.2,4.7,39.9,5.1
			c12.6,0.5,24.1,0.7,29.7,0.7c12.7,0,89.4,0,101.5,0c2.2,0,19.7,1.2,28.8,1.4c6.6,0.1,28.9,1,42.3,1c9.1,0,33.1-0.7,48.8-1.3
			c16.8-0.6,31.9,0.8,31.9,0.8V153c0,1.7-1.3,3-3,3H4c-1.7,0-3-1.3-3-3V71.1z"/>

	<path id="water_level_HI" data-name="water_level_HI" style="fill:#67A5D9;opacity:0.4;" d="M1,59.8c0,0,14.8,1.6,27.1,1.4c16.2-0.4,32.5,3.6,52.9,11c9.5,3.4,22.5,7.4,32.2,7.7
			c12.5,0.3,26.7,0.1,32.4,0.1c12.7,0,98.5,0,110.6,0c1.2,0,12.9,2.5,21.7,2.6c10.6,0.2,33.6,0.3,47,0.3c18.8,0,38.3-1.3,52.7-1.3
			c14.3,0,23.5,0.9,23.5,0.9V153c0,1.7-1.3,3-3,3H4c-1.7,0-3-1.3-3-3V59.8z"/>

	<path id="water_level_CREST" data-name="water_level_CREST" style="fill:#67A5D9;opacity:0.4;" d="M1,53.5c0,0,17.8,1.7,27.3,1.5c16.2-0.2,38.6-0.3,55.3,4c12.3,3.2,19.3,16,30.9,16c12.6,0,23,0,28.7,0
			c12.7,0,115.4,0,127.5,0c1.5,0,9.1,4.1,18.2,4.1c10.1,0,34.8,0.1,50.2-0.5c10.9-0.4,22.5-1,36.4-1.3c11.7-0.3,25.6,0.8,25.6,0.8
			V153c0,1.7-1.3,3-3,3H4c-1.7,0-3-1.3-3-3V53.5z"/>


	<path id="zeroL_water_level_FLOOD1" data-name="zeroL_water_level_FLOOD1" style="fill:#67A5D9;opacity:0.4;" d="M1,53.5c0,0,17.8,1.6,27.3,1.5c25.8-0.3,51.3-0.1,67.6,5.5c13.2,4.5,12.9,10.4,14.3,10.4
			c12.6,0,27.3,0,33,0c12.7,0,115.4,0,127.5,0c3.5,0,30.3,0,39.4,0c10.1,0,17.3,0,31.5,0c1.4,0,21.2-1.9,35.5-3.2
			c9.7-0.9,23.9-0.3,23.9-0.3V153c0,1.7-1.3,3-3,3H4c-1.7,0-3-1.3-3-3V53.5z"/>

	<path id="zeroL_water_level_FLOOD2" data-name="zeroL_water_level_FLOOD2" style="fill:#67A5D9;opacity:0.4;" d="M1,53.5c0,0,17.8,1.6,27.3,1.5c25.8-0.3,54.8-1.5,69.8,3.9c8.2,3,9.5,7.6,9.9,7.6c12.6,0,29.5,0,35.2,0
			c12.7,0,115.4,0,127.5,0c3.5,0,30.3,0,39.4,0c10.1,0,13,0,21.7,0c3,0,30.9,0,45.3,0c9.7,0,23.9,0,23.9,0V153c0,1.7-1.3,3-3,3H4
			c-1.7,0-3-1.3-3-3V53.5z"/>

	<path id="zeroL_water_level_FLOOD3" data-name="zeroL_water_level_FLOOD3" style="fill:#67A5D9;opacity:0.4;" d="M1,53.5c0,0,17.8,1.6,27.3,1.5c25.8-0.3,62.5-1.7,72.3,2.5c3.3,1.4,5.4,4.6,5.8,4.6c12.6,0,31.1,0,36.8,0
			c12.7,0,115.4,0,127.5,0c3.5,0,30.3,0,39.4,0c10.1,0,16,0,21.7,0c3,0,31.2,0,45.3,0c9.7,0,23.9,0,23.9,0V153c0,1.7-1.3,3-3,3H4
			c-1.7,0-3-1.3-3-3V53.5z"/>

	<path id="zeroL_water_level_FLOOD4" data-name="zeroL_water_level_FLOOD4" style="fill:#67A5D9;opacity:0.4;" d="M1,53.5c0,0,17.8,1.6,27.3,1.5c25.8-0.3,74.7-0.9,75.6,0.2c0.7,0.8,0.9,1.8,1,1.8c12.6,0,32.6,0,38.3,0
			c12.7,0,115.4,0,127.5,0c3.5,0,30.3,0,39.4,0c10.2,0,15.3,0,21.7,0c3,0,31,0,45.3,0c9.7,0,23.9,0,23.9,0V153c0,1.7-1.3,3-3,3H4
			c-1.7,0-3-1.3-3-3V53.5z"/>


<path id="water_line_LOW" data-name="water_line_LOW" style="fill:none;stroke:#2D95D2;stroke-miterlimit:10;" d="M1,86.9c0,0,11.5-2.6,23.8-2.9c19.3-0.5,34.5,1.8,44.9,3.6c10.3,1.8,35,2.9,44.7,3
		c13.3,0.1,31.2-1.2,36.9-1.2c12.7,0,73.1,0,85.2,0c3.5,0,32.2,0.4,41.3,0.4c6.2,0,29.6,0.8,43,0.8c9.1,0,34.7-0.7,50.6-1.3
		c13-0.5,29.6,0.9,29.6,0.9"/>
		
<path id="water_line_MED" data-name="water_line_MED" style="fill:none;stroke:#2D95D2;stroke-miterlimit:10;" d="M1,71.1c0,0,14.4,1.7,26.7,1.5c16.2-0.4,29.8,0.2,50.4,6c9.7,2.7,30.2,4.7,39.9,5.1
		c12.6,0.5,24.1,0.7,29.7,0.7c12.7,0,89.4,0,101.5,0c2.2,0,19.7,1.2,28.8,1.4c6.6,0.1,28.9,1,42.3,1c9.1,0,33.1-0.7,48.8-1.3
		c16.8-0.6,31.9,0.8,31.9,0.8"/>
		
<path id="water_line_HI" data-name="water_line_HI" style="fill:none;stroke:#2D95D2;stroke-miterlimit:10;" d="M1,59.8c0,0,14.8,1.6,27.1,1.4c16.2-0.4,32.5,3.6,52.9,11c9.5,3.4,22.5,7.4,32.2,7.7
		c12.5,0.3,26.7,0.1,32.4,0.1c12.7,0,98.5,0,110.6,0c1.2,0,12.9,2.5,21.7,2.6c10.6,0.2,33.6,0.3,47,0.3c18.8,0,38.3-1.3,52.7-1.3
		c14.3,0,23.5,0.9,23.5,0.9"/>
		
<path id="water_line_CREST" data-name="water_line_CREST" style="fill:none;stroke:#2D95D2;stroke-miterlimit:10;" d="M1,53.5c0,0,17.8,1.7,27.3,1.5c16.2-0.2,38.6-0.3,55.3,4c12.3,3.2,19.3,16,30.9,16
		c12.6,0,23,0,28.7,0c12.7,0,115.4,0,127.5,0c1.5,0,9.1,4.1,18.2,4.1c10.1,0,34.8,0.1,50.2-0.5c10.9-0.4,22.5-1,36.4-1.3
		c11.7-0.3,25.6,0.8,25.6,0.8"/>


<path id="water_right_dotted_line_LOW" data-name="water_right_dotted_line_LOW" style="opacity:0.75;fill:none;stroke:#FFFFFF;stroke-miterlimit:10;stroke-dasharray:4,8;" d="M236.5,89.3c3.5,0,32.2,0.4,41.3,0.4c6.2,0,29.6,0.8,43,0.8
		c9.1,0,34.7-0.7,50.6-1.3c13-0.5,29.6,0.9,29.6,0.9"/>
		
<path id="water_right_dotted_line_MED" data-name="water_right_dotted_line_MED" style="opacity:0.75;fill:none;stroke:#FFFFFF;stroke-miterlimit:10;stroke-dasharray:4,8;" d="M249.2,84.5c2.2,0,19.7,1.2,28.8,1.4c6.6,0.1,28.9,1,42.3,1
		c9.1,0,33.1-0.7,48.8-1.3c16.8-0.6,31.9,0.8,31.9,0.8"/>
		
<path id="water_right_dotted_line_HI" data-name="water_right_dotted_line_HI" style="opacity:0.75;fill:none;stroke:#FFFFFF;stroke-miterlimit:10;stroke-dasharray:4,8;" d="M256.1,79.9c1.2,0,12.9,2.5,21.7,2.6c10.6,0.2,33.6,0.3,47,0.3
		c18.8,0,38.3-1.3,52.7-1.3c14.3,0,23.5,0.9,23.5,0.9"/>
		
<path id="water_right_dotted_line_CREST" data-name="water_right_dotted_line_CREST" style="opacity:0.75;fill:none;stroke:#FFFFFF;stroke-miterlimit:10;stroke-dasharray:4,8;" d="M270.7,75c1.5,0,9.1,4.1,18.2,4.1c10.1,0,34.8,0.1,50.2-0.5
		c10.9-0.4,22.5-1,36.4-1.3c11.7-0.3,25.6,0.8,25.6,0.8"/>


<path id="water_left_dotted_line_LOW" data-name="water_left_dotted_line_LOW" style="opacity:0.75;fill:none;stroke:#FFFFFF;stroke-miterlimit:10;stroke-dasharray:4,8;" d="M1,86.9c0,0,11.5-2.6,23.8-2.9c19.3-0.5,34.5,1.8,44.9,3.6
		c10.3,1.8,35,2.9,44.7,3c13.3,0.1,31.2-1.2,36.9-1.2"/>
		
<path id="water_left_dotted_line_MED" data-name="water_left_dotted_line_MED" style="opacity:0.75;fill:none;stroke:#FFFFFF;stroke-miterlimit:10;stroke-dasharray:4,8;" d="M1,71.1c0,0,14.4,1.7,26.7,1.5c16.2-0.4,29.8,0.2,50.4,6
		c9.7,2.7,30.2,4.7,39.9,5.1c12.6,0.5,24.1,0.7,29.7,0.7"/>
		
<path id="water_left_dotted_line_HI" data-name="water_left_dotted_line_HI" style="opacity:0.75;fill:none;stroke:#FFFFFF;stroke-miterlimit:10;stroke-dasharray:4,8;" d="M1,59.8c0,0,14.8,1.6,27.1,1.4c16.2-0.4,32.5,3.6,52.9,11
		c9.5,3.4,22.5,7.4,32.2,7.7c12.5,0.3,26.7,0.1,32.4,0.1"/>
		
<path id="water_left_dotted_line_CREST" data-name="water_left_dotted_line_CREST" style="opacity:0.75;fill:none;stroke:#FFFFFF;stroke-miterlimit:10;stroke-dasharray:4,8;" d="M1,53.5c0,0,17.8,1.7,27.3,1.5c16.2-0.2,38.6-0.3,55.3,4
		c12.3,3.2,19.3,16,30.9,16c12.6,0,23,0,28.7,0"/>


<path id="zeroL_water_line_FLOOD1" data-name="zeroL_water_line_FLOOD1" style="fill:none;stroke:#2D95D2;stroke-miterlimit:10;" d="M1,53.5c0,0,17.8,1.6,27.3,1.5c25.8-0.3,51.3-0.1,67.6,5.5
		c13.2,4.5,12.9,10.4,14.3,10.4c12.6,0,27.3,0,33,0c12.7,0,115.4,0,127.5,0c3.5,0,30.3,0,39.4,0c10.1,0,17.3,0,31.5,0
		c1.4,0,21.2-1.9,35.5-3.2c9.7-0.9,23.9-0.3,23.9-0.3"/>
		
<path id="zeroL_water_line_FLOOD2" data-name="zeroL_water_line_FLOOD2" style="fill:none;stroke:#2D95D2;stroke-miterlimit:10;" d="M1,53.5c0,0,17.8,1.6,27.3,1.5c25.8-0.3,54.8-1.5,69.8,3.9
		c8.2,3,9.5,7.6,9.9,7.6c12.6,0,29.5,0,35.2,0c12.7,0,115.4,0,127.5,0c3.5,0,30.3,0,39.4,0c10.1,0,13,0,21.7,0c3,0,30.9,0,45.3,0
		c9.7,0,23.9,0,23.9,0"/>
		
<path id="zeroL_water_line_FLOOD3" data-name="zeroL_water_line_FLOOD3" style="fill:none;stroke:#2D95D2;stroke-miterlimit:10;" d="M1,53.5c0,0,17.8,1.6,27.3,1.5c25.8-0.3,62.5-1.7,72.3,2.5
		c3.3,1.4,5.4,4.6,5.8,4.6c12.6,0,31.1,0,36.8,0c12.7,0,115.4,0,127.5,0c3.5,0,30.3,0,39.4,0c10.1,0,16,0,21.7,0c3,0,31.2,0,45.3,0
		c9.7,0,23.9,0,23.9,0"/>
		
<path id="zeroL_water_line_FLOOD4" data-name="zeroL_water_line_FLOOD4" style="fill:none;stroke:#2D95D2;stroke-miterlimit:10;" d="M1,53.5c0,0,17.8,1.6,27.3,1.5c25.8-0.3,74.7-0.9,75.6,0.2
		c0.7,0.8,0.9,1.8,1,1.8c12.6,0,32.6,0,38.3,0c12.7,0,115.4,0,127.5,0c3.5,0,30.3,0,39.4,0c10.2,0,15.3,0,21.7,0c3,0,31,0,45.3,0
		c9.7,0,23.9,0,23.9,0"/>
		

<path id="zeroL_water_right_dotted_line_FLOOD1" data-name="zeroL_water_right_dotted_line_FLOOD1" style="opacity:0.75;fill:none;stroke:#FFFFFF;stroke-miterlimit:10;stroke-dasharray:4,8;" d="M270.7,75c3.5,0,30.3,0,39.4,0c10.1,0,6.8,0.4,21.7-3
		c2.9-0.7,31-3,45.3-4.3c9.7-0.9,23.9-0.3,23.9-0.3"/>
		
<path id="zeroL_water_right_dotted_line_FLOOD2" data-name="zeroL_water_right_dotted_line_FLOOD2" style="opacity:0.75;fill:none;stroke:#FFFFFF;stroke-miterlimit:10;stroke-dasharray:4,8;" d="M270.7,75c3.5,0,30.3,0,39.4,0c10.1,0,6.8,0.4,21.7-3
		c2.9-0.7,31-3,45.3-4.3c9.7-0.9,23.9-0.3,23.9-0.3"/>
		
<path id="zeroL_water_right_dotted_line_FLOOD3" data-name="zeroL_water_right_dotted_line_FLOOD3" style="opacity:0.75;fill:none;stroke:#FFFFFF;stroke-miterlimit:10;stroke-dasharray:4,8;" d="M270.7,75c3.5,0,30.3,0,39.4,0c10.1,0,6.8,0.4,21.7-3
		c2.9-0.7,31-3,45.3-4.3c9.7-0.9,23.9-0.3,23.9-0.3"/>
		
<path id="zeroL_water_right_dotted_line_FLOOD4" data-name="zeroL_water_right_dotted_line_FLOOD4" style="opacity:0.75;fill:none;stroke:#FFFFFF;stroke-miterlimit:10;stroke-dasharray:4,8;" d="M270.7,75c3.5,0,30.3,0,39.4,0c10.1,0,6.8,0.4,21.7-3
		c2.9-0.7,31-3,45.3-4.3c9.7-0.9,23.9-0.3,23.9-0.3"/>
		

<path id="zeroL_water_left_dotted_line_FLOOD1" data-name="zeroL_water_left_dotted_line_FLOOD1" style="opacity:0.75;fill:none;stroke:#FFFFFF;stroke-miterlimit:10;stroke-dasharray:4,8;" d="M1,53.5c0,0,17.8,1.6,27.3,1.5c25.8-0.3,51.3-0.1,67.6,5.5
		C109.1,65,110.8,75,112.1,75c12.6,0,25.4,0,31,0"/>
		
<path id="zeroL_water_left_dotted_line_FLOOD2" data-name="zeroL_water_left_dotted_line_FLOOD2" style="opacity:0.75;fill:none;stroke:#FFFFFF;stroke-miterlimit:10;stroke-dasharray:4,8;" d="M1,53.5c0,0,17.8,1.6,27.3,1.5c25.8-0.3,53.5-1.6,69.8,3.9
		c13.2,4.5,11.3,16.1,14.1,16.1c12.6,0,25.4,0,31,0"/>
		
<path id="zeroL_water_left_dotted_line_FLOOD3" data-name="zeroL_water_left_dotted_line_FLOOD3" style="opacity:0.75;fill:none;stroke:#FFFFFF;stroke-miterlimit:10;stroke-dasharray:4,8;" d="M1,53.5c0,0,17.8,1.6,27.3,1.5c25.8-0.3,62.6-1.7,72.3,2.5
		c9.1,3.9,8.8,17.6,11.5,17.6c12.6,0,25.4,0,31,0"/>
		
<path id="zeroL_water_left_dotted_line_FLOOD4" data-name="zeroL_water_left_dotted_line_FLOOD4" style="opacity:0.75;fill:none;stroke:#FFFFFF;stroke-miterlimit:10;stroke-dasharray:4,8;" d="M1,53.5c0,0,17.8,1.6,27.3,1.5c25.8-0.3,74.7-0.9,75.6,0.2
		C106,58,110.1,75,112.1,75c12.6,0,25.4,0,31,0"/>

</svg>
