<?xml version="1.0" encoding="utf-8"?>
<!-- Generator: Adobe Illustrator 24.2.3, SVG Export Plug-In . SVG Version: 6.00 Build 0)  -->
<svg version="1.1" id="Model_2_Gauge_1_Water" xmlns="http://www.w3.org/2000/svg"
     xmlns:xlink="http://www.w3.org/1999/xlink"
     x="0px" y="0px" viewBox="0 0 402 157" style="enable-background:new 0 0 402 157;" xml:space="preserve">
<path id="water_line_LOW" data-name="water_line_LOW" style="fill:none;stroke:#2D95D2;stroke-miterlimit:10;" d="M1,98.3c0,0,5.2,0.1,13.2,0.1
	c4.2,0,9.2,0,14.7-0.1c12.1-0.1,19.8-1.3,29.2-2c2.9-0.2,6-0.4,9.4-0.4c12.3-0.2,34.6-0.6,45.6-1.1c1.1,0,2-0.1,2.8-0.1
	c9.3-0.5,31.5-4.2,38.3-4.2c12.7,0,75.2,0,87.3,0c5,0,21.1,1.8,28,2.1c4.5,0.2,11.8,0.6,20.1,1.1c7.9,0.4,16.7,1,25.1,1.5
	c14.9,0.9,37.6,1.9,52.1,2.2C381.3,97.6,401,98,401,98"/>

  <path id="water_line_MED" data-name="water_line_MED" style="fill:none;stroke:#2D95D2;stroke-miterlimit:10;" d="M1,80.6c0,0,4.8,0.2,12.3,0.7
	c4.4,0.3,9.8,0.7,15.6,1.1c13.7,1.1,24-1,35.2,0c1.9,0.2,3.9,0.4,5.9,0.8c19.1,3.6,34.7,2.8,44.9,2.1c2.4-0.2,4.5-0.3,6.3-0.4
	c9.3-0.5,20.3-1.1,27.1-1.1c12.7,0,89.6,0,101.7,0c5,0,14.2-0.1,21.2,0.2c4.3,0.2,10.3,0.6,17.3,1c7.1,0.4,15.2,0.7,23.9,0.9
	c16,0.3,32.7,0.8,47.1,0c13.6-0.8,41.7-2.1,41.7-2.1"/>

  <path id="water_line_HI" data-name="water_line_HI" style="fill:none;stroke:#2D95D2;stroke-miterlimit:10;" d="M1,66c0,0,6.8,0.6,16.1,1.2c8.5,0.5,19.3,1,28.9,1c6.9,0,13.3,1,19.5,2.1
		c7.2,1.3,14.2,2.8,22,3.4c9.7,0.7,18.3,0.5,26.6,0.2c2.5-0.1,9-0.2,11.2-0.2c11.6,0,17.2,3.7,18.9,3.7c12.7,0,99.8,0,111.9,0
		c1,0,9.3-3.2,16.1-1.4c4.1,1.1,10.1,1,15.6,1.4c9.6,0.5,20.8,0.2,31.7,0.2c13.9,0,30.5-0.2,47-1.9c10.7-1.1,34.6-2.7,34.6-2.7"/>

  <path id="water_line_CREST" data-name="water_line_CREST" style="fill:none;stroke:#2D95D2;stroke-miterlimit:10;" d="M1,59.9c0,0,6.8,0.8,16.1,1.4
	c8.5,0.5,18.4,1.6,28,1.6c6.9,0,13.3,2.3,19.6,3.5c7.2,1.3,14.6,2.8,22.4,3.4c9.7,0.7,19.5,1.1,27.8,0.8c2.5-0.1,5.9,0.1,8.1,0.1
	c11.6,0,15.8,0.3,17.5,0.3c12.7,0,114.2,0,126.3,0c1,0,3.8-0.3,8.2,1c4.1,1.2,7.4,1.8,12.9,1.7c9.6-0.1,20.7,0,31.7,0
	c13.9,0,30.2-0.7,46.7-2.3c10.7-1.1,34.8-2.5,34.8-2.5"/>

	<path id="flood_left_water_line_FLOOD1" data-name="left_water_line_FLOOD1"
		  style="fill:none;stroke:#2D95D2;stroke-miterlimit:10;" d="M1,71c0,0,6.5,0,15.9,0
	c9,0,18.5,0,28.2,0c6.8,0,13.2,0,19.6,0c7.4,0,16.1,0,23.9,0c6.7,0,14.5,0,22.8,0c3.3,0,7.8,0,10,0c4.4,0,7.9,0,10.1,0"
	/>

	<path id="flood_center_water_line_FLOOD1" data-name="flood_center_water_line_FLOOD1"
		  style="fill:none;stroke:#2D95D2;stroke-miterlimit:10;" d="M131.5,71c12.6,0,130.9,0,142.9,0"
	/>

	<path id="flood_right_water_line_FLOOD1" data-name="flood_right_water_line_FLOOD1"
		  style="fill:none;stroke:#2D95D2;stroke-miterlimit:10;" d="M274.4,71c2.4,0,11.7,0,16.8,0c7.8,0,13.4,0,18.9,0c10.1,0,17.3,0,28.3,0c12.1,0,18.7,0,35.3,0c11.3,0,27.4,0,27.4,0"
	/>

	<path id="flood_left_water_line_FLOOD4" data-name="flood_left_water_line_FLOOD4"
		  style="fill:none;stroke:#2D95D2;stroke-miterlimit:10;" d="M1,54c0,0,6.5,0,15.9,0
	c9,0,18.5,0,28.2,0c6.8,0,13.2,0,19.6,0c7.4,0,16.1,0,23.9,0c6.7,0,14.5,0,22.8,0c3.3,0,7.8,0,10,0c4.4,0,7.9,0,10.1,0"
	/>

	<path id="flood_center_water_line_FLOOD4" data-name="flood_center_water_line_FLOOD4"
		  style="fill:none;stroke:#2D95D2;stroke-miterlimit:10;" d="M131.5,54c12.6,0,130.9,0,142.9,0"
	/>

	<path id="flood_right_water_line_FLOOD4" data-name="flood_right_water_line_FLOOD4"
		  style="fill:none;stroke:#2D95D2;stroke-miterlimit:10;" d="M274.4,54c2.4,0,11.7,0,16.8,0c7.8,0,13.4,0,18.9,0c10.1,0,17.3,0,28.3,0c12.1,0,18.7,0,35.3,0c11.3,0,27.4,0,27.4,0"
	/>
</svg>
