<?xml version="1.0" encoding="utf-8"?>
<!-- Generator: Adobe Illustrator 24.3.0, SVG Export Plug-In . SVG Version: 6.00 Build 0)  -->
<svg version="1.1" id="Model_2_Gauge_3_CS_Water" xmlns="http://www.w3.org/2000/svg" xmlns:xlink="http://www.w3.org/1999/xlink"
	 x="0px" y="0px" viewBox="0 0 402 157" style="enable-background:new 0 0 402 157;" xml:space="preserve">
	<path id="right_water_line_LOW" style="fill:none;stroke:#2D95D2;stroke-miterlimit:10;" d="M236.6,110.4c3.5,0,32.2,0.4,41.3,0.4
		c6.2,0,29.6,0.8,43,0.8c9.1,0,34.7-0.7,50.6-1.3c13-0.5,29.6,0.9,29.6,0.9"/>
	<path id="center_water_line_LOW" style="fill:none;stroke:#2D95D2;stroke-miterlimit:10;" d="M138.9,110.4c12.7,0,123.6,0,135.7,0"
	/>
	<path id="left_water_line_LOW" style="fill:none;stroke:#2D95D2;stroke-miterlimit:10;" d="M1.1,108c0,0,11.5-2.6,23.8-2.9
		c19.3-0.5,34.5,1.8,44.9,3.6c10.3,1.8,35,2.9,44.7,3c13.3,0.1,31.2-1.2,36.9-1.2"/>
	<path id="right_water_line_MED" style="fill:none;stroke:#2D95D2;stroke-miterlimit:10;" d="M249.3,105.6c2.2,0,19.9,0,29,0.2
		c6.6,0.1,33.9,0.8,47.3,0.8c9.1,0,28.8-3.5,44.5-4c16.8-0.6,31.1,0.2,31.1,0.2"/>
	<path id="center_water_line_MED" style="fill:none;stroke:#2D95D2;stroke-miterlimit:10;" d="M138.9,105.6c12.7,0,123.6,0,135.7,0"
	/>
	<path id="left_water_line_MED" style="fill:none;stroke:#2D95D2;stroke-miterlimit:10;" d="M1.1,94.2c0,0,16.4-1.6,28.6-2
		c16.3-0.6,33.4-2,51.3,5.7c10.7,4.6,19.8,6.8,36.6,7.8c12.6,0.8,24.5-0.1,30.2-0.1"/>
	<path id="right_water_line_HI" style="fill:none;stroke:#2D95D2;stroke-miterlimit:10;" d="M256.2,101c1.2,0,16.1,0.2,24.9,0.4
		c10.6,0.2,25.5,0.4,38.9-0.4c14.8-0.8,30.5-5,57.2-5.9c14.3-0.5,23.8,0,23.8,0"/>
	<path id="center_water_line_HI" style="fill:none;stroke:#2D95D2;stroke-miterlimit:10;" d="M138.9,101c12.7,0,123.6,0,135.7,0"/>
	<path id="left_water_line_HI" style="fill:none;stroke:#2D95D2;stroke-miterlimit:10;" d="M1.1,82.8c0,0,14.3,1,26.5,0.7
		c16.2-0.4,44.5-2.1,61.4,4.4c9.4,3.6,16.4,12.8,26.1,13c12.5,0.3,24.8,0.1,30.5,0.1"/>
	<path id="right_water_line_CREST" style="fill:none;stroke:#2D95D2;stroke-miterlimit:10;" d="M270.7,75.6c1.5,0,25,0,34.1,0
		c14.9,0,12.5,0.4,27.6-3.1c2.6-0.6,30.5-3,44.6-4.2c7.9-0.7,24-0.4,24-0.4"/>
	<path id="right_water_line_FLOOD4" style="fill:none;stroke:#2D95D2;stroke-miterlimit:10;" d="M270.7,75.2c1.5,0,25,0,34.1,0
		c14.9,0,12.5,0.4,27.6-3.1c2.6-0.6,30.5-3,44.6-4.2c7.9-0.7,24-0.4,24-0.4"/>
	<path id="center_water_line_CREST" style="fill:none;stroke:#2D95D2;stroke-miterlimit:10;" d="M138.9,96.1c12.7,0,123.6,0,135.7,0
		"/>
	<path id="left_water_line_CREST" style="fill:none;stroke:#2D95D2;stroke-miterlimit:10;" d="M1.5,53.5c0,0,17.8,1.7,27.3,1.5
		c16.2-0.2,58.8-0.8,75.6-0.3c0.9,0,6.3,20.4,8.2,20.4c12.6,0,25.5,0,31.1,0"/>
	<path id="left_water_line_FLOOD4" style="fill:none;stroke:#2D95D2;stroke-miterlimit:10;" d="M1.1,53.4c0,0,17.8,1.7,27.3,1.5
		c16.2-0.2,58.8-0.8,75.6-0.3c0.9,0,6.3,20.4,8.2,20.4c12.6,0,25.5,0,31.1,0"/>
	<path id="flood_right_water_line_CREST" style="fill:none;stroke:#2D95D2;stroke-miterlimit:10;" d="M274.6,96.1
		c1.5,0,126.5,0,126.5,0"/>
	<path id="flood_left_water_line_CREST" style="fill:none;stroke:#2D95D2;stroke-miterlimit:10;" d="M1.1,96.1c0,0,132.1,0,137.8,0"
	/>
	<path id="flood_right_water_line_FLOOD4" style="fill:none;stroke:#2D95D2;stroke-miterlimit:10;" d="M274.3,55.3
		c1.5,0,126.5,0,126.5,0"/>
	<path id="center_water_line_FLOOD4" style="fill:none;stroke:#2D95D2;stroke-miterlimit:10;" d="M138.6,55.3
		c12.7,0,123.6,0,135.7,0"/>
	<path id="flood_left_water_line_FLOOD4" style="fill:none;stroke:#2D95D2;stroke-miterlimit:10;" d="M0.8,55.3c0,0,132.1,0,137.8,0
		"/>
</svg>
