<?xml version="1.0" encoding="utf-8"?>
<!-- Generator: Adobe Illustrator 24.3.0, SVG Export Plug-In . SVG Version: 6.00 Build 0)  -->
<svg version="1.1" id="Model_2_Gauge_3_CS_Water" xmlns="http://www.w3.org/2000/svg" xmlns:xlink="http://www.w3.org/1999/xlink"
	 x="0px" y="0px" viewBox="0 0 402 157" enable-background="new 0 0 402 157" xml:space="preserve">
	 

	<path id="flood_right_water_level_CREST" data-name="flood_right_water_level_CREST" style="fill:#67A5D9;opacity:0.4;" d="M401,116.08891H267.64999V96.0326H401V116.08891z"/>
	<path id="flood_right_water_level_FLOOD4" data-name="flood_right_water_level_FLOOD4" style="fill:#67A5D9;opacity:0.4;" d="M401,116.08891H267.64999V55.3H401V116.08891z"/>
	<path id="center_water_level_LOW" data-name="center_water_level_LOW" style="fill:#67A5D9;opacity:0.4;" d="M267.64999,116.08891H138.76331V110.312h128.88669
				V116.08891z"/>
	<path id="center_water_level_MED" data-name="center_water_level_MED" style="fill:#67A5D9;opacity:0.4;" d="M267.64999,116.08891H138.76331V105.5275h128.88669
				V116.08891z"/>
	<path id="center_water_level_HI" data-name="center_water_level_HI" style="fill:#67A5D9;opacity:0.4;" d="M267.64999,116.08891H138.76331V100.92h128.88669V116.08891
				z"/>
	<path id="center_water_level_CREST" data-name="center_water_level_CREST" style="fill:#67A5D9;opacity:0.4;" d="M267.64999,116.08891H138.76331V96.0326h128.88669
				V116.08891z"/>
	<path id="center_water_level_FLOOD4" data-name="center_water_level_FLOOD4" style="fill:#67A5D9;opacity:0.4;" d="M267.64999,116.08891H138.76331V54.8h128.88669
				V116.08891z"/>
	<path id="flood_left_water_level_CREST" data-name="flood_left_water_level_CREST" style="fill:#67A5D9;opacity:0.4;" d="M138.76331,116.08891H1V96.0326h137.76331V116.08891
				z"/>
	<path id="flood_left_water_level_FLOOD4" data-name="flood_left_water_level_FLOOD4" style="fill:#67A5D9;opacity:0.4;" d="M138.76331,116.08891H1V55.3h137.76331V116.08891z"/>
	

	<path id="right_water_level_LOW" data-name="right_water_level_LOW" style="fill:#67A5D9;opacity:0.4;" d="M398,156H201v-41.4434c0,0,1.69841,0.01265,2.56006,0.0059
				c2.6377-0.01465,5.44629-0.04004,8.22412-0.06543c5.79688-0.05176,11.27246-0.09961,14.9707-0.05957
				c1.89062,0.02148,3.39941,0.19727,4.85889,0.36719c3.20166,0.375,5.96582,0.69629,11.4458-0.99023
				c3.0692-0.94392,4.88461-1.97654,6.26477-3.44747c0.21445-0.22855,1.18456-0.02431,1.44502-0.02029
				c0.31393,0.00484,0.75545,0.01034,1.16576-0.00267c0.29155-0.00924,0.81085,0.01123,0.95615,0.01805
				c0.22089,0.01036,1.42372,0.04613,1.7375,0.04613c0.58742,0,1.11298,0.03075,1.44536,0.03075
				c0.51895,0,0.89182-0.01538,1.23007,0c0.30167,0.01371,0.71228,0.04329,1.77432,0.04329
				c1.70374,0,54.02142,0.98816,56.71469,1.03541c2.26273,0.0397,5.97415,0.02708,9.75876-0.05177
				c3.81088-0.07939,9.1221-0.13892,11.93314-0.1812c3.44272-0.05177,9.99445-0.25105,20.91531-0.62125
				c9.16339-0.31062,17.271-0.5629,20.55292-0.54359c4.40051,0.02589,10.3483,0.28584,15.53119,0.54359
				c1.14374,0.05688,5.27063,0.44933,6.51547,0.54359V153C401,154.65686,399.65686,156,398,156z"/>
		
	<path id="right_water_level_MED" data-name="right_water_level_MED" style="fill:#67A5D9;opacity:0.4;" d="M398,156H201v-41.4434c0,0,1.69841,0.01265,2.56006,0.0059
				c2.6377-0.01465,5.44629-0.04004,8.22412-0.06543c5.79688-0.05176,11.27246-0.09961,14.9707-0.05957
				c1.89062,0.02148,3.39941,0.19727,4.85889,0.36719c3.20166,0.375,5.96582,0.69629,11.4458-0.99023
				c3.0692-0.94392,4.88777-1.97357,6.26477-3.44747c0.92804-0.99334,1.6555-2.18846,2.43005-3.69511
				c0.10815-0.21053,0.2524-0.5945,0.45804-1.08829c0.06911-0.16595,0.86124-0.03808,1.00655-0.03127
				c0.22089,0.01036,0.97879-0.01061,1.29257-0.01061c0.58742,0,0.87906,0,1.21144,0c0.51895,0,1.12595,0.03371,1.42776,0.02164
				c0.3017-0.01207,0.84161,0,1.90369,0c1.7037,0,54.55014,0.93451,57.24344,0.98176c2.26273,0.0397,5.86172,0.11855,9.64633,0.0397
				c3.81088-0.07939,7.92905-0.40105,10.71811-0.75423c3.44537-0.43629,10.34518-1.18953,21.19809-2.4612
				c9.02975-1.05804,18.11472-1.04198,21.39658-1.07182c4.36664-0.0397,11.21188-0.09897,16.39478,0.15879
				c1.14374,0.05688,4.10339,0.14392,5.34824,0.23818V153C401,154.65686,399.65686,156,398,156z"/>
		
	<path id="right_water_level_HI" data-name="right_water_level_HI" style="fill:#67A5D9;opacity:0.4;" d="M398,156H201v-41.4434c0,0,1.69841,0.01265,2.56006,0.0059
				c2.6377-0.01465,5.44629-0.04004,8.22412-0.06543c5.79688-0.05176,11.27246-0.09961,14.9707-0.05957
				c1.89062,0.02148,3.39941,0.19727,4.85889,0.36719c3.20166,0.375,5.96582,0.69629,11.4458-0.99023
				c3.0692-0.94392,4.88777-1.97357,6.26477-3.44747c0.92804-0.99334,1.6555-2.18846,2.43005-3.69511
				c0.10815-0.21053,0.26561-0.5892,0.45804-1.08829c0.4341-1.12589,1.03813-2.86704,1.67189-4.66867
				c0.04997-0.14204,0.30499,0.00352,0.52103,0.00854c0.1151,0.00268,0.19594-0.00028,0.38684,0.00503
				c0.18086,0.00502,0.22687,0.00502,0.39188,0.00502c0.1256,0,0.14255,0,0.25121,0c0.11273,0,58.58932,0.35508,61.28302,0.34496
				c2.08243-0.00783,5.35144-0.16226,9.12347-0.48038c3.92221-0.33079,7.89493-0.7227,10.68399-1.07588
				c3.44537-0.43629,12.94373-1.90121,23.79663-3.17288c9.02972-1.05804,16.31897-1.28012,19.5972-1.43713
				c4.42493-0.21193,11.99084-0.53568,17.17374-0.27792c1.14374,0.05688,2.66183,0.10267,3.90668,0.19692V153
				C401,154.65686,399.65686,156,398,156z"/>
		
	<path id="right_water_level_CREST" data-name="right_water_level_CREST" style="fill:#67A5D9;opacity:0.4;" d="M398,156H201v-41.4434
				c0,0,1.69841,0.01265,2.56006,0.0059c2.6377-0.01465,5.44629-0.04004,8.22412-0.06543
				c5.79688-0.05176,11.27246-0.09961,14.9707-0.05957c1.89062,0.02148,3.39941,0.19727,4.85889,0.36719
				c3.20166,0.375,5.96582,0.69629,11.4458-0.99023c3.0692-0.94392,4.88777-1.97357,6.26477-3.44747
				c0.92804-0.99334,1.6555-2.18846,2.43005-3.69511c0.10815-0.21053,0.26561-0.5892,0.45804-1.08829
				c0.4341-1.12589,1.03813-2.86704,1.67189-4.66867c0.04997-0.14204,0.57076-1.65154,0.67328-1.94811
				c1.06557-3.08237,2.07164-5.97626,2.48491-6.86819c0.60065-1.29642,1.27631-4.32365,1.93799-7.2636
				c1.65759-7.36484,2.51788-10.54357,4.05798-10.54795c1.70374-0.00484,50.75378,0.51335,53.44745,0.50323
				c2.08243-0.00783,4.1694-0.43862,7.85303-1.31071c3.76324-0.89094,7.01294-1.77486,9.80203-2.12805
				c3.44537-0.43629,14.40936-1.29264,25.28741-2.32745c9.0372-0.85969,18.25589-1.66721,21.53415-1.82422
				c4.42493-0.21193,10.98721-0.18871,16.15637-0.15299c1.14514,0.00792,2.23254,0.04816,3.88107,0.05317V153
				C401,154.65686,399.65686,156,398,156z"/>
		
	<path id="right_water_level_FLOOD4" data-name="right_water_level_FLOOD4" style="fill:#67A5D9;opacity:0.4;" d="M398,156H201v-41.4434
				c0,0,1.69841,0.01265,2.56006,0.0059c2.6377-0.01465,5.44629-0.04004,8.22412-0.06543
				c5.79688-0.05176,11.27246-0.09961,14.9707-0.05957c1.89062,0.02148,3.39941,0.19727,4.85889,0.36719
				c3.20166,0.375,5.96582,0.69629,11.4458-0.99023c3.0692-0.94392,4.88777-1.97357,6.26477-3.44747
				c0.92804-0.99334,1.6555-2.18846,2.43005-3.69511c0.10815-0.21053,0.26561-0.5892,0.45804-1.08829
				c0.4341-1.12589,1.03813-2.86704,1.67189-4.66867c0.04997-0.14204,0.57076-1.65154,0.67328-1.94811
				c1.06557-3.08237,2.07164-5.97626,2.48491-6.86819c0.60065-1.29642,1.27631-4.32365,1.93799-7.2636
				c1.65759-7.36484,2.51788-10.54357,4.05798-10.54795c1.70374-0.00484,50.75378,0.51335,53.44745,0.50323
				c2.08243-0.00783,4.1694-0.43862,7.85303-1.31071c3.76324-0.89094,7.01294-1.77486,9.80203-2.12805
				c3.44537-0.43629,14.40936-1.29264,25.28741-2.32745c9.0372-0.85969,18.25589-1.66721,21.53415-1.82422
				c4.42493-0.21193,10.98721-0.18871,16.15637-0.15299c1.14514,0.00792,2.23254,0.04816,3.88107,0.05317V153
				C401,154.65686,399.65686,156,398,156z"/>
		
	<path id="left_water_level_LOW" data-name="left_water_level_LOW" style="fill:#67A5D9;opacity:0.4;" d="M201,156H4c-1.65685,0-3-1.34314-3-3v-44.61123
				c4.87424-1.74866,11.7255-2.7728,14.42113-3.17349c3.04993-0.45335,11.7179-0.5004,14.09238-0.5505
				c7.67467-0.16191,15.49779,0.80966,22.86208,1.39245c4.50117,0.35621,9.56443,1.07063,14.36659,2.01015
				c3.7632,0.73625,6.43214,0.99725,8.87402,1.21924c3.41248,0.31023,4.22167,0.23823,6.60337,0.53181
				c2.409,0.29694,4.95089,0.42494,6.38179,0.57613c2.32362,0.24551,4.50678,0.41901,6.38178,0.44318
				c1.62609,0.02097,5.73097,0.10809,7.83505,0.23959c2.0988,0.13118,6.51459,0.28807,7.36012,0.31461
				c0.6711,0.02106,7.44013,0.05909,8.27294,0.05909c1.20492,0,4.82499,0.08302,7.29467-0.02207
				c3.72132-0.15836,24.02676-1.10867,30.60558-1.09396c0.11732,0.00026,0.20415-0.0244,0.25703-0.0244
				c0.08115,0,0.14186-0.03068,0.20035-0.02811c0.07854,0.00344,0.12567,0.00962,0.19524,0.0033
				c0.06305-0.00574,0.10117,0,0.15175-0.00317c0.06311-0.00394,0.07516-0.00634,0.17073-0.00632
				c0.07063,0.00002,0.09167-0.00317,0.15807,0.00025c0.1308,0.00674,0.16008,0,0.26195,0c0.12392,0,0.17464,0,0.29834,0.00728
				c0.12434,0.00732,0.12198,0.00728,0.28378,0.00728c0.10916,0,0.32297-0.09314,0.44269-0.01041
				c2.63651,1.82183,5.86028,3.7818,8.81352,3.7818c1.92578,0,4.22656-0.19336,6.45166-0.37988
				c2.42285-0.2041,4.92871-0.41211,6.93262-0.36914c2.11621,0.04688,4.35059,0.24512,6.9375,0.47461
				c2.89763,0.25684,6.29733,0.56424,10.33949,0.70334c0.89343,0.03075,2.75377,0.06521,2.75377,0.06521V156z"/>
		
	<path id="left_water_level_MED" data-name="left_water_level_MED" style="fill:#67A5D9;opacity:0.4;" d="M201,156H4c-1.65685,0-3-1.34314-3-3V94.03448
				c4.80635-0.31353,11.70391-0.8709,14.42113-1.07993c2.88061-0.22158,11.17974-0.67245,13.55126-0.80123
				c7.69879-0.41803,15.92011-0.59221,23.30538-0.41803c4.41491,0.10413,9.64244,0.58501,14.43186,1.58745
				c4.31253,0.90263,5.61966,1.29292,8.54324,2.34308c3.97704,1.42857,5.30891,2.22135,7.40185,3.01414
				c0.70639,0.26757,4.4137,1.70774,5.79307,2.11722c1.62735,0.4831,4.64716,1.37154,6.59406,1.84053
				c2.26344,0.54524,5.78338,1.14775,7.90803,1.43315c2.15581,0.28959,6.91904,0.96919,7.76055,1.05582
				c0.67463,0.06944,6.87831,0.43785,7.71048,0.47049c1.24422,0.04879,7.03071,0.34155,7.90444,0.34155
				c3.75706,0,20.16094-0.40098,26.56409-0.40098c0.05037,0,0.17015-0.00851,0.21477-0.00686
				c0.06169,0.00229,0.12715-0.00543,0.17821-0.00913c0.05463-0.00397,0.09505-0.01532,0.16798-0.01532
				c0.0777,0,0.09438,0.00429,0.16731,0.00429c0.08151,0,0.10194,0.0053,0.19736,0c0.07722-0.00429,0.10561-0.00219,0.2489-0.00219
				c0.16936,0,0.3192-0.1148,0.38042,0.0083c0.72717,1.46235,1.56734,2.81024,2.81392,3.69508
				c0.06877,0.04881,0.08826,0.06248,0.12109,0.08594c0.44043,0.31445,0.90625,0.64642,1.39204,0.98285
				c2.63585,1.82536,5.86028,3.7818,8.81352,3.7818c1.92578,0,4.22656-0.19336,6.45166-0.37988
				c2.42285-0.2041,4.92871-0.41211,6.93262-0.36914c2.11621,0.04688,4.35059,0.24512,6.9375,0.47461
				c2.89763,0.25684,6.29733,0.56424,10.33949,0.70334c0.89343,0.03075,2.75377,0.06521,2.75377,0.06521V156z"/>
		
	<path id="left_water_level_HI" data-name="left_water_level_HI" style="fill:#67A5D9;opacity:0.4;" d="M201,156H4c-1.65685,0-3-1.34314-3-3V82.70641
				c4.07919,0.27805,11.58028,0.60772,13.65823,0.65786c2.88828,0.06968,10.55702,0.0383,12.93156-0.0089
				c7.84444-0.15593,11.82963-0.16517,25.25639-0.39173c4.41553-0.07324,8.71917,0.03104,13.36105,0.48026
				c2.07205,0.20052,4.3049,0.24812,8.37421,0.93624c4.70664,0.79591,5.82554,0.98827,7.34717,1.32566
				c2.09444,0.4644,5.20016,1.29436,6.85258,2.00322c2.48059,1.06409,4.68124,2.18458,6.45959,3.33914
				c1.51852,0.98588,7.42809,4.87903,8.57239,5.60722c1.37792,0.87686,6.47425,3.41312,7.32156,3.75439
				c0.62909,0.25337,6.27361,0.44794,7.395,0.48531c1.02856,0.03429,6.74786,0.05708,7.70023,0.03738
				c0.88094-0.01823,22.04691-0.04377,24.29449-0.04377c0.15154,0,0.2506,0.0022,0.3526,0.00207
				c0.13403-0.00018,0.19774,0.01603,0.25117,0.01068c0.10117-0.01012,0.12825,0,0.25117,0c0.10701,0,0.14162,0.00259,0.3634,0
				c0.09486-0.0011,0.37395-0.04639,0.42435,0.0348c0.58372,0.9404,1.06874,1.99478,1.53844,3.01688
				c0.24005,0.52225,0.48207,1.04903,0.73882,1.56371c0.72501,1.45345,1.56734,2.81024,2.81392,3.69508
				c0.06877,0.04881,0.08826,0.06248,0.12109,0.08594c0.44043,0.31445,0.90625,0.64642,1.39204,0.98285
				c2.63585,1.82536,5.86028,3.7818,8.81352,3.7818c1.92578,0,4.22656-0.19336,6.45166-0.37988
				c2.42285-0.2041,4.92871-0.41211,6.93262-0.36914c2.11621,0.04688,4.35059,0.24512,6.9375,0.47461
				c2.89763,0.25684,6.29733,0.56424,10.33949,0.70334c0.89343,0.03075,2.75377,0.06521,2.75377,0.06521V156z"/>
		
	<path id="left_water_level_CREST" data-name="left_water_level_CREST" style="fill:#67A5D9;opacity:0.4;" d="M201,156H4c-1.65685,0-3-1.34314-3-3V53.36258
				c4.07919,0.27804,10.90904,0.83814,12.98387,0.96263c2.83125,0.16988,9.17657,0.54892,11.55152,0.56625
				c7.75764,0.05663,12.56416-0.05656,25.99092-0.28312c4.41553-0.07324,16.00465-0.30533,20.66816-0.28313
				c11.89127,0.05663,14.60006,0.01276,22.36691,0c1.61905-0.00266,8.37032-0.06376,9.95885,0.9138
				c0.64332,0.39589,0.54988,1.01685,0.88592,1.89402c0.18017,0.47032,0.48096,1.62618,0.67207,2.19951
				c0.21384,0.64153,0.45087,2.84879,0.73317,3.54366c0.39713,0.97756,1.09975,2.4439,1.55798,3.54366
				c0.26084,0.62603,0.86414,2.70299,1.34415,3.8186c0.40675,0.94534,1.69765,4.1524,2.57013,4.19932
				c0.87984,0.0473,27.70997-0.16626,29.95754-0.16626c2.25989,0,3.11154,2.65129,3.9561,5.2002
				c0.39487,1.1917,0.75829,2.3542,1.2451,3.14059c0.64999,1.04998,1.26805,4.03564,2.26559,8.9092
				c0.74838,3.65624,1.65645,8.17884,2.30571,9.1738c0.05185,0.07945,0.10303,0.15975,0.15343,0.24094
				c0.58372,0.9404,1.06874,1.99478,1.53844,3.01688c0.24005,0.52225,0.48207,1.04903,0.73882,1.56371
				c0.72501,1.45345,1.56734,2.81024,2.81392,3.69508c0.06877,0.04881,0.08826,0.06248,0.12109,0.08594
				c0.44043,0.31445,0.90625,0.64642,1.39204,0.98285c2.63585,1.82536,5.86028,3.7818,8.81352,3.7818
				c1.92578,0,4.22656-0.19336,6.45166-0.37988c2.42285-0.2041,4.92871-0.41211,6.93262-0.36914
				c2.11621,0.04688,4.35059,0.24512,6.9375,0.47461c2.89763,0.25684,6.29733,0.56424,10.33949,0.70334
				c0.89343,0.03075,2.75377,0.06521,2.75377,0.06521V156z"/>
		
	<path id="left_water_level_FLOOD4" data-name="left_water_level_FLOOD4" style="fill:#67A5D9;opacity:0.4;" d="M201,156H4c-1.65685,0-3-1.34314-3-3V53.36258
				c4.07919,0.27804,10.90904,0.83814,12.98387,0.96263c2.83125,0.16988,9.17657,0.54892,11.55152,0.56625
				c7.75764,0.05663,12.56416-0.05656,25.99092-0.28312c4.41553-0.07324,16.00465-0.30533,20.66816-0.28313
				c11.89127,0.05663,14.60006,0.01276,22.36691,0c1.61905-0.00266,8.37032-0.06376,9.95885,0.9138
				c0.64332,0.39589,0.54988,1.01685,0.88592,1.89402c0.18017,0.47032,0.48096,1.62618,0.67207,2.19951
				c0.21384,0.64153,0.45087,2.84879,0.73317,3.54366c0.39713,0.97756,1.09975,2.4439,1.55798,3.54366
				c0.26084,0.62603,0.86414,2.70299,1.34415,3.8186c0.40675,0.94534,1.69765,4.1524,2.57013,4.19932
				c0.87984,0.0473,27.70997-0.16626,29.95754-0.16626c2.25989,0,3.11154,2.65129,3.9561,5.2002
				c0.39487,1.1917,0.75829,2.3542,1.2451,3.14059c0.64999,1.04998,1.26805,4.03564,2.26559,8.9092
				c0.74838,3.65624,1.65645,8.17884,2.30571,9.1738c0.05185,0.07945,0.10303,0.15975,0.15343,0.24094
				c0.58372,0.9404,1.06874,1.99478,1.53844,3.01688c0.24005,0.52225,0.48207,1.04903,0.73882,1.56371
				c0.72501,1.45345,1.56734,2.81024,2.81392,3.69508c0.06877,0.04881,0.08826,0.06248,0.12109,0.08594
				c0.44043,0.31445,0.90625,0.64642,1.39204,0.98285c2.63585,1.82536,5.86028,3.7818,8.81352,3.7818
				c1.92578,0,4.22656-0.19336,6.45166-0.37988c2.42285-0.2041,4.92871-0.41211,6.93262-0.36914
				c2.11621,0.04688,4.35059,0.24512,6.9375,0.47461c2.89763,0.25684,6.29733,0.56424,10.33949,0.70334
				c0.89343,0.03075,2.75377,0.06521,2.75377,0.06521V156z"/>


	<path id="right_water_line_LOW" data-name="right_water_line_LOW" style="fill:none;stroke:#2D95D2;stroke-miterlimit:10;" d="M250.3,110.3c3.5,0,18.4,0.4,27.5,0.4
		c6.2,0,29.6,0.8,43,0.8c9.1,0,34.7-0.7,50.6-1.3c13-0.5,29.6,0.9,29.6,0.9"/>
		
	<path id="center_water_line_LOW" data-name="center_water_line_LOW" style="fill:none;stroke:#2D95D2;stroke-miterlimit:10;" d="M138.8,110.3c12.7,0,116.8,0,128.9,0"
		/>
		
	<path id="left_water_line_LOW" data-name="left_water_line_LOW" style="fill:none;stroke:#2D95D2;stroke-miterlimit:10;" d="M1,108.3c0,0,7.3-2.5,16.8-3.3
		c10-0.8,16.6-0.4,25.9,0.3c7.8,0.5,16.4,1.5,22,2.6c7,1.4,17.8,2,21.7,2.4c4.6,0.5,17.4,0.7,20.3,0.9c4.1,0.3,17.2,0.2,21.3,0
		c8.7-0.4,25.6-1,28.6-1"/>
		
	<path id="right_water_line_MED" data-name="right_water_line_MED" style="fill:none;stroke:#2D95D2;stroke-miterlimit:10;" d="M253,105.5c2.2,0,16.1,0,25.1,0.2
		c6.6,0.1,33.9,0.8,47.3,0.8c9.1,0,28.8-3.5,44.5-4c16.8-0.6,31.1,0.2,31.1,0.2"/>
		
	<path id="center_water_line_MED" data-name="center_water_line_MED" style="fill:none;stroke:#2D95D2;stroke-miterlimit:10;" d="M138.8,105.5c12.7,0,116.8,0,128.9,0"
		/>
		
	<path id="left_water_line_MED" data-name="left_water_line_MED" style="fill:none;stroke:#2D95D2;stroke-miterlimit:10;" d="M1,94.1c0,0,9.8-0.8,19.4-1.4
		c14-0.9,23.2-1.1,33.3-0.9c7.2,0.2,18.5,2.5,23.4,4.6c6.8,3,13.4,4.9,17.2,6c4.1,1.1,13.5,2.4,16.4,2.7c3.8,0.4,13.5,0.8,17.5,0.8
		c8.6,0,22.4-0.4,25.4-0.4"/>
		
	<path id="right_water_line_HI" data-name="right_water_line_HI" style="fill:none;stroke:#2D95D2;stroke-miterlimit:10;" d="M254.6,100.9c1.2,0,22.4,0.2,31.3,0.4
		c10.6,0.2,25.5,0.4,38.9-0.4c14.8-0.8,30.5-5,57.2-5.9c14.3-0.5,19,0,19,0"/>
		
	<path id="center_water_line_HI" data-name="center_water_line_HI" style="fill:none;stroke:#2D95D2;stroke-miterlimit:10;" d="M138.8,100.9c12.7,0,116.8,0,128.9,0"
		/>
		
	<path id="left_water_line_HI" data-name="left_water_line_HI" style="fill:none;stroke:#2D95D2;stroke-miterlimit:10;" d="M1,82.7c0,0,12,0.9,21.5,0.7
		c16.2-0.2,33.4-0.9,43.5,0c6,0.5,16.5,2,21.5,3.9c6.2,2.3,11.6,6.2,14.3,8.1c2.8,2,8.1,5,11,5.3c3.8,0.4,11.3,0.3,15.4,0.3
		c8.6,0,20.2-0.1,23.2-0.1"/>
		
	<path id="right_water_line_CREST" data-name="right_water_line_CREST" style="fill:none;stroke:#2D95D2;stroke-miterlimit:10;" d="M263.2,75c0.7-0.4,32.5-0.3,41.6-0.3
		c15.8,0,11,0.7,27.6-3.1c2.6-0.6,30.5-2.8,44.6-4.2c7.9-0.8,24.1-0.4,24.1-0.4"/>
		
	<path id="right_water_line_FLOOD4" data-name="right_water_line_FLOOD4" style="fill:none;stroke:#2D95D2;stroke-miterlimit:10;" d="M263.2,75
		c0.7-0.4,32.5-0.3,41.6-0.3c15.8,0,11,0.7,27.6-3.1c2.6-0.6,30.5-2.8,44.6-4.2c7.9-0.8,24.1-0.4,24.1-0.4"/>
		
	<path id="center_water_line_CREST" data-name="center_water_line_CREST" style="fill:none;stroke:#2D95D2;stroke-miterlimit:10;" d="M138.8,96c12.7,0,116.8,0,128.9,0"
		/>
		
	<path id="left_water_line_CREST" data-name="left_water_line_CREST" style="fill:none;stroke:#2D95D2;stroke-miterlimit:10;" d="M1,53.3c0,0,18.5,1.7,28,1.5
		c16.2-0.2,72.3-1,74.6-0.1c1.1,0.4,1.4,1.2,1.9,2.7c0.3,0.9,0.8,2.7,1.1,4.4c0.4,2.1,1.2,3,2,5.2c1.3,3.6,2.5,8,4,8
		c12.6,0,29.4-0.1,30.6,0.2"/>
		
	<path id="left_water_line_FLOOD4" data-name="left_water_line_FLOOD4" style="fill:none;stroke:#2D95D2;stroke-miterlimit:10;" d="M1,53.3c0,0,18.5,1.7,28,1.5
		c16.2-0.2,72.3-1,74.6-0.1c1.1,0.4,1.4,1.2,1.9,2.7c0.3,0.9,0.8,2.7,1.1,4.4c0.4,2.1,1.2,3,2,5.2c1.3,3.6,2.5,8,4,8
		c12.6,0,29.4-0.1,30.6,0.2"/>
		
	<path id="flood_right_water_line_CREST" data-name="flood_right_water_line_CREST" style="fill:none;stroke:#2D95D2;stroke-miterlimit:10;" d="M267.6,96
		c1.5,0,133.4,0,133.4,0"/>
		
	<path id="flood_left_water_line_CREST" data-name="flood_left_water_line_CREST" style="fill:none;stroke:#2D95D2;stroke-miterlimit:10;" d="M1,96c0,0,132.1,0,137.8,0"/>
	
	<path id="flood_right_water_line_FLOOD4" data-name="flood_right_water_line_FLOOD4" style="fill:none;stroke:#2D95D2;stroke-miterlimit:10;" d="M267.6,55.3
		c1.5,0,133.4,0,133.4,0"/>
		
	<path id="center_water_line_FLOOD4" data-name="center_water_line_FLOOD4" style="fill:none;stroke:#2D95D2;stroke-miterlimit:10;" d="M138.8,55.3
		c12.7,0,116.8,0,128.9,0"/>
		
	<path id="flood_left_water_line_FLOOD4" data-name="flood_left_water_line_FLOOD4" style="fill:none;stroke:#2D95D2;stroke-miterlimit:10;" d="M1,55.3c0,0,132.1,0,137.8,0"
		/>

</svg>
