<?xml version="1.0" encoding="utf-8"?>
<!-- Generator: Adobe Illustrator 24.2.3, SVG Export Plug-In . SVG Version: 6.00 Build 0)  -->
<svg version="1.1" id="Model_2_Gauge_2_CS_Water" xmlns="http://www.w3.org/2000/svg" xmlns:xlink="http://www.w3.org/1999/xlink" x="0px"
	 y="0px" viewBox="0 0 402 157" style="enable-background:new 0 0 402 157;" xml:space="preserve">

	<path id="river_level_LOW" data-name="river_level_LOW" style="fill:#67A5D9;" d="M1,98.8c0,0,16.7-0.4,34.7-1.1C52.7,97,67.1,96,89.5,96c23.1,0,38.4-0.4,63-1.8c10.9-0.6,27.4-4.5,33.6-4.5
			c8.6,0,22.7,0,32.1,0c6.2,0,15,3.1,27,1.1c13.6-2.2,33-0.2,59.8,0.1c19.5,0.2,45.1,1.9,58.9,1.5C384.3,92,401,95,401,95v58
			c0,1.7-1.3,3-3,3H4c-1.7,0-3-1.3-3-3V98.8z"/>

	<path id="river_level_MED" data-name="river_level_MED" style="fill:#67A5D9;" d="M1,91.7c0,0,17.4,0.1,35.4-0.6c17-0.7,32.4-1.4,54.9-1.4c23.1,0,38.9-0.8,59.1-1.8
			c10.4-0.5,25.9-3.9,33.6-3.9c8.6,0,26.5,0,35.9,0c22.5,0,32.8-4.6,45-5.2c23.4-1.2,31,0.5,52.4,0.5c19,0,33.3-1.3,47.1-1.5
			c19.4-0.2,36.7,1,36.7,1V153c0,1.7-1.3,3-3,3H4c-1.7,0-3-1.3-3-3V91.7z"/>

	<path id="river_level_HI" data-name="river_level_HI" style="fill:#67A5D9;" d="M1,84.1c12.3,0.8,27.1-0.4,37.8-0.8c17.1-0.6,28.4-0.8,50.9-0.6c24.7,0.2,43-0.6,58.8-1.5
			c16.9-1,26.4-3.3,34.4-3.3c8.6,0,28.7,0,38.1,0c24.9,0,29-6,44.1-8.2c10.2-1.5,27.4-1.8,48.7-2.2c19-0.3,35-0.4,48.8-1.2
			c19.3-1.1,38.4-0.7,38.4-0.7V153c0,1.7-1.3,3-3,3H4c-1.7,0-3-1.3-3-3V84.1z"/>

	<path id="river_level_CREST" data-name="river_level_CREST" style="fill:#67A5D9;" d="M1,76.8c11.9,0.6,30.3-0.3,40.9-0.6c17-0.4,29.8-0.4,52.6-0.4c24.8,0,45.2-0.2,58.4-1.1
			c13.6-0.9,19.4-3.3,24.5-3.3c8.6,0,39,0,48.4,0c21.1,0,18.5-5.4,33.6-7.6c10.2-1.5,25-3.1,46.4-2.9c19.3,0.2,38.5,0.1,54.6-0.8
			c17.6-1,40.7-0.5,40.7-0.5V153c0,1.7-1.3,3-3,3H4c-1.7,0-3-1.3-3-3V76.8z"/>


	<path id="zeroL_river_level_FLOOD1" data-name="zeroL_river_level_FLOOD1" style="fill:#67A5D9;" d="M1,66.8c12.3,0,25.1,0,36.1,0c17,0,29.6,0,52.1,0c24.5,0,57.2,0,68.5,0c5.7,0,9.6,0,18.5,0
			c8.6,0,63,0,64.8,0c0.3,0,5.3-3.4,11.4-4.9c6.5-1.6,32-1.2,53.3-1c19.3,0.2,38.5,0.1,54.6-0.8c17.6-1,40.7-0.5,40.7-0.5V153
			c0,1.7-1.3,3-3,3H4c-1.7,0-3-1.3-3-3V66.8z"/>

	<path id="zeroL_river_level_FLOOD2" data-name="zeroL_river_level_FLOOD2" style="fill:#67A5D9;" d="M1,62.7c12.3,0,25.1,0,36.1,0c17,0,29.6,0,52.1,0c24.5,0,57.2,0,68.5,0c5.7,0,9.6,0,18.5,0
			c8.6,0,71.8,0,73.5,0c0.1,0,1.2-0.4,2.7-0.8c6.4-1.7,32-1.2,53.3-1c19.3,0.2,38.5,0.1,54.6-0.8c17.6-1,40.7-0.5,40.7-0.5V153
			c0,1.7-1.3,3-3,3H4c-1.7,0-3-1.3-3-3V62.7z"/>

	<path id="zeroL_river_level_FLOOD3" data-name="zeroL_river_level_FLOOD3" style="fill:#67A5D9;" d="M1,58.4c12.3,0,25.1,0,36.1,0c17,0,29.6,0,52.1,0c24.5,0,57.2,0,68.5,0c5.7,0,9.6,0,18.5,0
			c8.6,0,71.3,0,73.1,0c0.1,0,1.6,0,3.1,0c6.6,0,31.9,0,53.3,0c19.3,0,38.4,0,54.6,0c17.6,0,40.7,0,40.7,0V153c0,1.7-1.3,3-3,3H4
			c-1.7,0-3-1.3-3-3V58.4z"/>

	<path id="zeroL_river_level_FLOOD4" data-name="zeroL_river_level_FLOOD4" style="fill:#67A5D9;" d="M1,53.7c12.3,0,25.1,0,36.1,0c17,0,29.6,0,52.1,0c24.5,0,57.2,0,68.5,0c5.7,0,9.6,0,18.5,0
			c8.6,0,71.3,0,73.1,0c0.1,0,1.6,0,3.1,0c6.6,0,31.9,0,53.3,0c19.3,0,38.4,0,54.6,0c17.6,0,40.7,0,40.7,0V153c0,1.7-1.3,3-3,3H4
			c-1.7,0-3-1.3-3-3V53.7z"/>


	<path id="water_level_LOW" data-name="water_level_LOW" style="fill:#67A5D9;opacity:0.4;" d="M1,98.8c0,0,16.7-0.4,34.7-1.1C52.7,97,67.1,96,89.5,96c23.1,0,38.4-0.4,63-1.8c10.9-0.6,27.4-4.5,33.6-4.5
			c8.6,0,22.7,0,32.1,0c6.2,0,15,3.1,27,1.1c13.6-2.2,33-0.2,59.8,0.1c19.5,0.2,45.1,1.9,58.9,1.5C384.3,92,401,95,401,95v58
			c0,1.7-1.3,3-3,3H4c-1.7,0-3-1.3-3-3V98.8z"/>

	<path id="water_level_MED" data-name="water_level_MED" style="fill:#67A5D9;opacity:0.4;" d="M1,91.7c0,0,17.4,0.1,35.4-0.6c17-0.7,32.4-1.4,54.9-1.4c23.1,0,38.9-0.8,59.1-1.8
			c10.4-0.5,25.9-3.9,33.6-3.9c8.6,0,26.5,0,35.9,0c22.5,0,32.8-4.6,45-5.2c23.4-1.2,31,0.5,52.4,0.5c19,0,33.3-1.3,47.1-1.5
			c19.4-0.2,36.7,1,36.7,1V153c0,1.7-1.3,3-3,3H4c-1.7,0-3-1.3-3-3V91.7z"/>

	<path id="water_level_HI" data-name="water_level_HI" style="fill:#67A5D9;opacity:0.4;" d="M1,84.1c12.3,0.8,27.1-0.4,37.8-0.8c17.1-0.6,28.4-0.8,50.9-0.6c24.7,0.2,43-0.6,58.8-1.5
			c16.9-1,26.4-3.3,34.4-3.3c8.6,0,28.7,0,38.1,0c24.9,0,29-6,44.1-8.2c10.2-1.5,27.4-1.8,48.7-2.2c19-0.3,35-0.4,48.8-1.2
			c19.3-1.1,38.4-0.7,38.4-0.7V153c0,1.7-1.3,3-3,3H4c-1.7,0-3-1.3-3-3V84.1z"/>

	<path id="water_level_CREST" data-name="water_level_CREST" style="fill:#67A5D9;opacity:0.4;" d="M1,76.8c11.9,0.6,30.3-0.3,40.9-0.6c17-0.4,29.8-0.4,52.6-0.4c24.8,0,45.2-0.2,58.4-1.1
			c13.6-0.9,19.4-3.3,24.5-3.3c8.6,0,39,0,48.4,0c21.1,0,18.5-5.4,33.6-7.6c10.2-1.5,25-3.1,46.4-2.9c19.3,0.2,38.5,0.1,54.6-0.8
			c17.6-1,40.7-0.5,40.7-0.5V153c0,1.7-1.3,3-3,3H4c-1.7,0-3-1.3-3-3V76.8z"/>


	<path id="zeroL_water_level_FLOOD1" data-name="zeroL_water_level_FLOOD1" style="fill:#67A5D9;opacity:0.4;" d="M1,66.8c12.3,0,25.1,0,36.1,0c17,0,29.6,0,52.1,0c24.5,0,57.2,0,68.5,0c5.7,0,9.6,0,18.5,0
			c8.6,0,63,0,64.8,0c0.3,0,5.3-3.4,11.4-4.9c6.5-1.6,32-1.2,53.3-1c19.3,0.2,38.5,0.1,54.6-0.8c17.6-1,40.7-0.5,40.7-0.5V153
			c0,1.7-1.3,3-3,3H4c-1.7,0-3-1.3-3-3V66.8z"/>

	<path id="zeroL_water_level_FLOOD2" data-name="zeroL_water_level_FLOOD2" style="fill:#67A5D9;opacity:0.4;" d="M1,62.7c12.3,0,25.1,0,36.1,0c17,0,29.6,0,52.1,0c24.5,0,57.2,0,68.5,0c5.7,0,9.6,0,18.5,0
			c8.6,0,71.8,0,73.5,0c0.1,0,1.2-0.4,2.7-0.8c6.4-1.7,32-1.2,53.3-1c19.3,0.2,38.5,0.1,54.6-0.8c17.6-1,40.7-0.5,40.7-0.5V153
			c0,1.7-1.3,3-3,3H4c-1.7,0-3-1.3-3-3V62.7z"/>

	<path id="zeroL_water_level_FLOOD3" data-name="zeroL_water_level_FLOOD3" style="fill:#67A5D9;opacity:0.4;" d="M1,58.4c12.3,0,25.1,0,36.1,0c17,0,29.6,0,52.1,0c24.5,0,57.2,0,68.5,0c5.7,0,9.6,0,18.5,0
			c8.6,0,71.3,0,73.1,0c0.1,0,1.6,0,3.1,0c6.6,0,31.9,0,53.3,0c19.3,0,38.4,0,54.6,0c17.6,0,40.7,0,40.7,0V153c0,1.7-1.3,3-3,3H4
			c-1.7,0-3-1.3-3-3V58.4z"/>

	<path id="zeroL_water_level_FLOOD4" data-name="zeroL_water_level_FLOOD4" style="fill:#67A5D9;opacity:0.4;" d="M1,53.7c12.3,0,25.1,0,36.1,0c17,0,29.6,0,52.1,0c24.5,0,57.2,0,68.5,0c5.7,0,9.6,0,18.5,0
			c8.6,0,71.3,0,73.1,0c0.1,0,1.6,0,3.1,0c6.6,0,31.9,0,53.3,0c19.3,0,38.4,0,54.6,0c17.6,0,40.7,0,40.7,0V153c0,1.7-1.3,3-3,3H4
			c-1.7,0-3-1.3-3-3V53.7z"/>


<path id="water_line_LOW" data-name="water_line_LOW" style="fill:none;stroke:#2D95D2;stroke-miterlimit:10;" d="M1,98.8c0,0,16.7-0.4,34.7-1.1C52.7,97,67.1,96,89.5,96c23.1,0,38.4-0.4,63-1.8
		c10.9-0.6,27.4-4.5,33.6-4.5c8.6,0,22.7,0,32.1,0c6.2,0,15,3.1,27,1.1c13.6-2.2,33-0.2,59.8,0.1c19.5,0.2,45.1,1.9,58.9,1.5
		C384.3,92,401,95,401,95"/>
		
<path id="water_line_MED" data-name="water_line_MED" style="fill:none;stroke:#2D95D2;stroke-miterlimit:10;" d="M1,91.7c0,0,17.4,0.1,35.4-0.6c17-0.7,32.4-1.4,54.9-1.4c23.1,0,38.9-0.8,59.1-1.8
		c10.4-0.5,25.9-3.9,33.6-3.9c8.6,0,26.5,0,35.9,0c22.5,0,32.8-4.6,45-5.2c23.4-1.2,31,0.5,52.4,0.5c19,0,33.3-1.3,47.1-1.5
		c19.4-0.2,36.7,1,36.7,1"/>
		
<path id="water_line_HI" data-name="water_line_HI" style="fill:none;stroke:#2D95D2;stroke-miterlimit:10;" d="M1,84.1c12.3,0.8,27.1-0.4,37.8-0.8c17.1-0.6,28.4-0.8,50.9-0.6
		c24.7,0.2,43-0.6,58.8-1.5c16.9-1,26.4-3.3,34.4-3.3c8.6,0,28.7,0,38.1,0c24.9,0,29-6,44.1-8.2c10.2-1.5,27.4-1.8,48.7-2.2
		c19-0.3,35-0.4,48.8-1.2c19.3-1.1,38.4-0.7,38.4-0.7"/>
		
<path id="water_line_CREST" data-name="water_line_CREST" style="fill:none;stroke:#2D95D2;stroke-miterlimit:10;" d="M1,76.8c11.9,0.6,30.3-0.3,40.9-0.6c17-0.4,29.8-0.4,52.6-0.4
		c24.8,0,45.2-0.2,58.4-1.1c13.6-0.9,19.4-3.3,24.5-3.3c8.6,0,39,0,48.4,0c21.1,0,18.5-5.4,33.6-7.6c10.2-1.5,25-3.1,46.4-2.9
		c19.3,0.2,38.5,0.1,54.6-0.8c17.6-1,40.7-0.5,40.7-0.5"/>


<path id="water_right_dotted_line_LOW" data-name="water_right_dotted_line_LOW" style="opacity:0.75;fill:none;stroke:#FFFFFF;stroke-miterlimit:10;stroke-dasharray:4,8;" d="M218.2,89.7c6.2,0,15,3.1,27,1.1c13.6-2.2,33-0.2,59.8,0.1
		c19.5,0.2,45.1,1.9,58.9,1.5C384.3,92,401,95,401,95"/>
		
<path id="water_right_dotted_line_MED" data-name="water_right_dotted_line_MED" style="opacity:0.75;fill:none;stroke:#FFFFFF;stroke-miterlimit:10;stroke-dasharray:4,8;" d="M219.9,83.9c22.5,0,32.8-4.6,45-5.2c23.4-1.2,31,0.5,52.4,0.5
		c19,0,33.3-1.3,47.1-1.5c19.4-0.2,36.7,1,36.7,1"/>
		
<path id="water_right_dotted_line_HI" data-name="water_right_dotted_line_HI" style="opacity:0.75;fill:none;stroke:#FFFFFF;stroke-miterlimit:10;stroke-dasharray:4,8;" d="M221,77.8c24.9,0,29-6,44.1-8.2c10.2-1.5,27.4-1.8,48.7-2.2
		c19-0.3,35-0.4,48.8-1.2c19.3-1.1,38.4-0.7,38.4-0.7"/>
		
<path id="water_right_dotted_line_CREST" data-name="water_right_dotted_line_CREST" style="opacity:0.75;fill:none;stroke:#FFFFFF;stroke-miterlimit:10;stroke-dasharray:4,8;" d="M225.8,71.4c21.1,0,18.5-5.4,33.6-7.6c10.2-1.5,25-3.1,46.4-2.9
		c19.3,0.2,38.5,0.1,54.6-0.8c17.6-1,40.7-0.5,40.7-0.5"/>
		

<path id="water_left_dotted_line_LOW" data-name="water_left_dotted_line_LOW" style="opacity:0.75;fill:none;stroke:#FFFFFF;stroke-miterlimit:10;stroke-dasharray:4,8;" d="M1,98.8c0,0,16.7-0.4,34.7-1.1C52.7,97,67.1,96,89.5,96
		c23.1,0,38.4-0.4,63-1.8c10.9-0.6,27.4-4.5,33.6-4.5"/>
		
<path id="water_left_dotted_line_MED" data-name="water_left_dotted_line_MED" style="opacity:0.75;fill:none;stroke:#FFFFFF;stroke-miterlimit:10;stroke-dasharray:4,8;" d="M1,91.7c0,0,17.4,0.1,35.4-0.6c17-0.7,32.4-1.4,54.9-1.4
		c23.1,0,38.9-0.8,59.1-1.8c10.4-0.5,25.9-3.9,33.6-3.9"/>
		
<path id="water_left_dotted_line_HI" data-name="water_left_dotted_line_HI" style="opacity:0.75;fill:none;stroke:#FFFFFF;stroke-miterlimit:10;stroke-dasharray:4,8;" d="M1,84.1c12.3,0.8,27.1-0.4,37.8-0.8c17.1-0.6,28.4-0.8,50.9-0.6
		c24.7,0.2,43-0.6,58.8-1.5c16.9-1,26.4-3.3,34.4-3.3"/>
		
<path id="water_left_dotted_line_CREST" data-name="water_left_dotted_line_CREST" style="opacity:0.75;fill:none;stroke:#FFFFFF;stroke-miterlimit:10;stroke-dasharray:4,8;" d="M1,76.8c11.9,0.6,30.3-0.3,40.9-0.6c17-0.4,29.8-0.4,52.6-0.4
		c24.8,0,45.2-0.2,58.4-1.1c13.6-0.9,19.4-3.3,24.5-3.3"/>


<path id="zeroL_water_line_FLOOD1" data-name="zeroL_water_line_FLOOD1" style="fill:none;stroke:#2D95D2;stroke-miterlimit:10;" d="M1,66.8c12.3,0,25.1,0,36.1,0c17,0,29.6,0,52.1,0c24.5,0,57.2,0,68.5,0
		c5.7,0,9.6,0,18.5,0c8.6,0,63,0,64.8,0c0.3,0,5.3-3.4,11.4-4.9c6.5-1.6,32-1.2,53.3-1c19.3,0.2,38.5,0.1,54.6-0.8
		c17.6-1,40.7-0.5,40.7-0.5"/>
		
<path id="zeroL_water_line_FLOOD2" data-name="zeroL_water_line_FLOOD2" style="fill:none;stroke:#2D95D2;stroke-miterlimit:10;" d="M1,62.7c12.3,0,25.1,0,36.1,0c17,0,29.6,0,52.1,0c24.5,0,57.2,0,68.5,0
		c5.7,0,9.6,0,18.5,0c8.6,0,71.8,0,73.5,0c0.1,0,1.2-0.4,2.7-0.8c6.4-1.7,32-1.2,53.3-1c19.3,0.2,38.5,0.1,54.6-0.8
		c17.6-1,40.7-0.5,40.7-0.5"/>
		
<path id="zeroL_water_line_FLOOD3" data-name="zeroL_water_line_FLOOD3" style="fill:none;stroke:#2D95D2;stroke-miterlimit:10;" d="M1,58.4c12.3,0,25.1,0,36.1,0c17,0,29.6,0,52.1,0c24.5,0,57.2,0,68.5,0
		c5.7,0,9.6,0,18.5,0c8.6,0,71.3,0,73.1,0c0.1,0,1.6,0,3.1,0c6.6,0,31.9,0,53.3,0c19.3,0,38.4,0,54.6,0c17.6,0,40.7,0,40.7,0"/>
		
<path id="zeroL_water_line_FLOOD4" data-name="zeroL_water_line_FLOOD4" style="fill:none;stroke:#2D95D2;stroke-miterlimit:10;" d="M1,53.7c12.3,0,25.1,0,36.1,0c17,0,29.6,0,52.1,0c24.5,0,57.2,0,68.5,0
		c5.7,0,9.6,0,18.5,0c8.6,0,71.3,0,73.1,0c0.1,0,1.6,0,3.1,0c6.6,0,31.9,0,53.3,0c19.3,0,38.4,0,54.6,0c17.6,0,40.7,0,40.7,0"/>


<path id="zeroL_water_right_dotted_line_FLOOD1" data-name="zeroL_water_right_dotted_line_FLOOD1" style="opacity:0.75;fill:none;stroke:#FFFFFF;stroke-miterlimit:10;stroke-dasharray:4,8;" d="M225.8,71.4c14.3,0,11.5-5.2,26.7-9.5c6.4-1.8,32-1.2,53.3-1
		c19.3,0.2,38.5,0.1,54.6-0.8c17.6-1,40.7-0.5,40.7-0.5"/>
		
<path id="zeroL_water_right_dotted_line_FLOOD2" data-name="zeroL_water_right_dotted_line_FLOOD2" style="opacity:0.75;fill:none;stroke:#FFFFFF;stroke-miterlimit:10;stroke-dasharray:4,8;" d="M225.8,71.4c14.3,0,11.5-5.2,26.7-9.5c6.4-1.8,32-1.2,53.3-1
		c19.3,0.2,38.5,0.1,54.6-0.8c17.6-1,40.7-0.5,40.7-0.5"/>
		
<path id="zeroL_water_right_dotted_line_FLOOD3" data-name="zeroL_water_right_dotted_line_FLOOD3" style="opacity:0.75;fill:none;stroke:#FFFFFF;stroke-miterlimit:10;stroke-dasharray:4,8;" d="M225.8,71.4c14.3,0,11.5-5.2,26.7-9.5c6.4-1.8,32-1.2,53.3-1
		c19.3,0.2,38.5,0.1,54.6-0.8c17.6-1,40.7-0.5,40.7-0.5"/>
		
<path id="zeroL_water_right_dotted_line_FLOOD4" data-name="zeroL_water_right_dotted_line_FLOOD4" style="opacity:0.75;fill:none;stroke:#FFFFFF;stroke-miterlimit:10;stroke-dasharray:4,8;" d="M225.8,71.4c14.3,0,11.5-5.2,26.7-9.5c6.4-1.8,32-1.2,53.3-1
		c19.3,0.2,38.5,0.1,54.6-0.8c17.6-1,40.7-0.5,40.7-0.5"/>


<path id="zeroL_water_left_dotted_line_FLOOD1" data-name="zeroL_water_left_dotted_line_FLOOD1" style="opacity:0.75;fill:none;stroke:#FFFFFF;stroke-miterlimit:10;stroke-dasharray:4,8;" d="M1,69.8c12.3,0.8,25.5,0.6,36.1,0.8c17,0.3,29.6,0.4,52.1,0.6
		c24.7,0.2,57.2-0.7,68.5,0.4c12,1.2,10.7-0.2,19.6-0.2"/>
		
<path id="zeroL_water_left_dotted_line_FLOOD2" data-name="zeroL_water_left_dotted_line_FLOOD2" style="opacity:0.75;fill:none;stroke:#FFFFFF;stroke-miterlimit:10;stroke-dasharray:4,8;" d="M1,69.8c12.3,0.8,25.5,0.6,36.1,0.8c17,0.3,29.6,0.4,52.1,0.6
		c24.7,0.2,57.2-0.7,68.5,0.4c12,1.2,10.7-0.2,19.6-0.2"/>
		
<path id="zeroL_water_left_dotted_line_FLOOD3" data-name="zeroL_water_left_dotted_line_FLOOD3" style="opacity:0.75;fill:none;stroke:#FFFFFF;stroke-miterlimit:10;stroke-dasharray:4,8;" d="M1,69.8c12.3,0.8,25.5,0.6,36.1,0.8c17,0.3,29.6,0.4,52.1,0.6
		c24.7,0.2,57.2-0.7,68.5,0.4c12,1.2,10.7-0.2,19.6-0.2"/>
		
<path id="zeroL_water_left_dotted_line_FLOOD4" data-name="zeroL_water_left_dotted_line_FLOOD4" style="opacity:0.75;fill:none;stroke:#FFFFFF;stroke-miterlimit:10;stroke-dasharray:4,8;" d="M1,69.8c12.3,0.8,25.5,0.6,36.1,0.8c17,0.3,29.6,0.4,52.1,0.6
		c24.7,0.2,57.2-0.7,68.5,0.4c12,1.2,10.7-0.2,19.6-0.2"/>

</svg>
