<?xml version="1.0" encoding="utf-8"?>
<!-- Generator: Adobe Illustrator 24.3.0, SVG Export Plug-In . SVG Version: 6.00 Build 0)  -->
<svg version="1.1" id="Model_2_Gauge_2_CS_Water" xmlns="http://www.w3.org/2000/svg" xmlns:xlink="http://www.w3.org/1999/xlink"
	 x="0px" y="0px" viewBox="0 0 402 157" style="enable-background:new 0 0 402 157;" xml:space="preserve">
	 
<path id="right_water_line_LOW" data-name="right_water_line_LOW" style="fill:none;stroke:#2D95D2;stroke-miterlimit:10;" d="M218.2,89.7c6.2,0,15,3.1,27,1.1c13.6-2.2,33-0.2,59.8,0.1
	c19.5,0.2,45.1,1.9,58.9,1.5C384.3,92,401,95,401,95"/>
	
<path id="center_water_line_LOW" data-name="center_water_line_LOW" style="fill:none;stroke:#2D95D2;stroke-miterlimit:10;" d="M173.1,89.7c8.6,0,67.9,0,77.3,0"/>

<path id="left_water_line_LOW" data-name="left_water_line_LOW" style="fill:none;stroke:#2D95D2;stroke-miterlimit:10;" d="M1,98.8c0,0,16.7-0.4,34.7-1.1C52.7,97,67.1,96,89.5,96c23.1,0,38.4-0.4,63-1.8
	c10.9-0.6,27.4-4.5,33.6-4.5"/>
	
<path id="right_water_line_MED" data-name="right_water_line_MED" style="fill:none;stroke:#2D95D2;stroke-miterlimit:10;" d="M219.9,83.9c22.5,0,33.2-4.1,45.3-4.7c23.4-1.2,30.6,0,52,0
	c19,0,33.3-1.3,47.1-1.5c19.4-0.2,36.7,1,36.7,1"/>
	
<path id="center_water_line_MED" data-name="center_water_line_MED" style="fill:none;stroke:#2D95D2;stroke-miterlimit:10;" d="M173.1,83.9c8.6,0,67.9,0,77.3,0"/>

<path id="left_water_line_MED" data-name="left_water_line_MED" style="fill:none;stroke:#2D95D2;stroke-miterlimit:10;" d="M1,88.5c0,0,17.4,0.3,35.4-0.4c17-0.7,32.6-1,55.1-1c23.1,0,38.9,0,59.2-1.1
	c10.4-0.5,25.7-2,33.4-2"/>
	
<path id="right_water_line_HI" data-name="right_water_line_HI" style="fill:none;stroke:#2D95D2;stroke-miterlimit:10;" d="M221,77.8c24.9,0,28.9-6.8,44-9c10.2-1.5,27.5-1.1,48.8-1.4
	c19-0.3,35.4,0.3,49.1-0.5c19.3-1.1,38.1-0.6,38.1-0.6"/>
	
<path id="center_water_line_HI" data-name="center_water_line_HI" style="fill:none;stroke:#2D95D2;stroke-miterlimit:10;" d="M173.1,77.8c8.6,0,67.9,0,77.3,0"/>

<path id="left_water_line_HI" data-name="left_water_line_HI" style="fill:none;stroke:#2D95D2;stroke-miterlimit:10;" d="M1,78.3c12.7-0.2,27.3,1,37.9,0.6c17.1-0.6,28.4-0.8,50.9-0.6
	c24.7,0.2,42.8,0.7,58.7-0.2c16.9-1,26.4-0.2,34.4-0.2"/>
	
<path id="right_water_line_CREST" data-name="right_water_line_CREST" style="fill:none;stroke:#2D95D2;stroke-miterlimit:10;" d="M227.3,71.4c11.3,0,15.9-8.2,26.4-9.8c10.7-1.7,30.7-0.6,52-0.7
	c19.3-0.1,38.5,0.1,54.6-0.8c17.6-1,40.7-0.5,40.7-0.5"/>
	
<path id="right_water_line_FLOOD4" data-name="right_water_line_FLOOD4" style="fill:none;stroke:#2D95D2;stroke-miterlimit:10;" d="M227.3,71.4c11.3,0,15.9-8.2,26.4-9.8c10.7-1.7,30.7-0.6,52-0.7
	c19.3-0.1,38.5,0.1,54.6-0.8c17.6-1,40.7-0.5,40.7-0.5"/>
	
<path id="center_water_line_CREST" data-name="center_water_line_CREST" style="fill:none;stroke:#2D95D2;stroke-miterlimit:10;" d="M173.1,71.4c8.6,0,67.9,0,77.3,0"/>

<path id="left_water_line_CREST" data-name="left_water_line_CREST" style="fill:none;stroke:#2D95D2;stroke-miterlimit:10;" d="M1,69.7c11.9,0.6,30.3,0.8,41,0.8c17,0,29.9,0.7,52.6,0.7c24.8,0,45.2,0,58,0
	c13.6,0,19.6,0.2,24.7,0.2"/>
	
<path id="left_water_line_FLOOD4" data-name="left_water_line_FLOOD4" style="fill:none;stroke:#2D95D2;stroke-miterlimit:10;" d="M1,69.7c11.9,0.6,30.3,0.8,41,0.8c17,0,29.9,0.7,52.6,0.7c24.8,0,45.2,0,58,0
	c13.6,0,19.6,0.2,24.7,0.2"/>
	
<path id="flood_right_water_line_CREST" data-name="flood_right_water_line_CREST" style="fill:none;stroke:#2D95D2;stroke-miterlimit:10;" d="M250.4,71.4c11.3,0,150.6,0,150.6,0"/>

<path id="flood_left_water_line_CREST" data-name="flood_left_water_line_CREST" style="fill:none;stroke:#2D95D2;stroke-miterlimit:10;" d="M1,71.4c12.2,0,167.1,0,172.1,0"/>

<path id="flood_right_water_line_FLOOD4" data-name="flood_right_water_line_FLOOD4" style="fill:none;stroke:#2D95D2;stroke-miterlimit:10;" d="M250.4,54.5c11.3,0,150.6,0,150.6,0"/>

<path id="center_water_line_FLOOD4" data-name="center_water_line_FLOOD4" style="fill:none;stroke:#2D95D2;stroke-miterlimit:10;" d="M173.1,54.5c8.6,0,67.9,0,77.3,0"/>

<path id="flood_left_water_line_FLOOD4" data-name="flood_left_water_line_FLOOD4" style="fill:none;stroke:#2D95D2;stroke-miterlimit:10;" d="M1,54.5c12,0,167.1,0,172.1,0"/>

</svg>
