<?xml version="1.0" encoding="utf-8"?>
<!-- Generator: Adobe Illustrator 24.3.0, SVG Export Plug-In . SVG Version: 6.00 Build 0)  -->
<svg version="1.1" id="Model_2_Gauge_1_CS_Water" xmlns="http://www.w3.org/2000/svg" xmlns:xlink="http://www.w3.org/1999/xlink"
	 x="0px" y="0px" viewBox="0 0 402 157" style="enable-background:new 0 0 402 157;" xml:space="preserve">

<path id="right_water_line_LOW" data-name="right_water_line_LOW" style="fill:none;stroke:#2D95D2;stroke-miterlimit:10;" d="M241.5,90.5c5,0,21.1,1.8,28,2.1c4.5,0.2,11.8,0.6,20.1,1.1
	c7.9,0.4,16.7,1,25.1,1.5c14.9,0.9,37.6,1.9,52.1,2.2C381.3,97.6,401,98,401,98"/>

<path id="center_water_line_LOW" data-name="center_water_line_LOW" style="fill:none;stroke:#2D95D2;stroke-miterlimit:10;" d="M154.3,90.5c12.7,0,75.2,0,87.3,0"/>

<path id="left_water_line_LOW" data-name="left_water_line_LOW" style="fill:none;stroke:#2D95D2;stroke-miterlimit:10;" d="M1,98.3c0,0,5.2,0.1,13.2,0.1c4.2,0,9.2,0,14.7-0.1c12.1-0.1,19.8-1.3,29.2-2
	c2.9-0.2,6-0.4,9.4-0.4c12.3-0.2,34.6-0.6,45.6-1.1c1.1,0,2-0.1,2.8-0.1c9.3-0.5,31.5-4.2,38.3-4.2"/>

<path id="right_water_line_MED" data-name="right_water_line_MED" style="fill:none;stroke:#2D95D2;stroke-miterlimit:10;" d="M249.9,83.8c5,0,14.2-0.1,21.2,0.2c4.3,0.2,10.3,0.6,17.3,1
	c7.1,0.4,15.2,0.7,23.9,0.9c16,0.3,32.9,0.4,47.4,0.2c13.1-0.1,41.4,0.4,41.4,0.4"/>

<path id="center_water_line_MED" data-name="center_water_line_MED" style="fill:none;stroke:#2D95D2;stroke-miterlimit:10;" d="M148.3,83.8c12.7,0,89.6,0,101.7,0"/>

<path id="left_water_line_MED" data-name="left_water_line_MED" style="fill:none;stroke:#2D95D2;stroke-miterlimit:10;" d="M1,80.6c0,0,4.8,0.2,12.3,0.7c4.4,0.3,9.8,0.7,15.6,1.1c13.7,1.1,24-1,35.2,0
	c1.9,0.2,3.9,0.4,5.9,0.8c19.1,3.6,34.7,2.8,44.9,2.1c2.4-0.2,4.5-0.3,6.3-0.4c9.3-0.5,20.3-1.1,27.1-1.1"/>

<path id="right_water_line_HI" data-name="right_water_line_HI" style="fill:none;stroke:#2D95D2;stroke-miterlimit:10;" d="M256.1,77.5c1,0,6.5-0.2,13.8-0.4c4.2-0.1,12.4,0.2,17.9,0.3
	c10.3,0.2,20.8,0.2,31.7,0.2c13.9,0,26.9,0.1,43.5,0.1c11.4,0,38.1-0.4,38.1-0.4"/>

<path id="center_water_line_HI" data-name="center_water_line_HI" style="fill:none;stroke:#2D95D2;stroke-miterlimit:10;" d="M144.2,77.5c12.7,0,99.8,0,111.9,0"/>

<path id="left_water_line_HI" data-name="left_water_line_HI" style="fill:none;stroke:#2D95D2;stroke-miterlimit:10;" d="M1,66c0,0,6.8,0.6,16.1,1.2c8.5,0.5,19.3,1,28.9,1c6.9,0,13.3,1,19.5,2.1
	c7.2,1.3,14.2,2.8,22,3.4c9.7,0.7,18.3,0.5,26.6,0.2c2.5-0.1,14.4-0.8,16.6-0.8c9,0.3,11.8,4.3,13.5,4.3"/>

<path id="right_water_line_CREST" data-name="right_water_line_CREST" style="fill:none;stroke:#2D95D2;stroke-miterlimit:10;" d="M266.7,70.9c1,0,4.1,0,8.7,0c4.6,0,8.6,0,14,0c9.7,0,19.1,0,30.1,0
	c13.9,0,30.2,0,46.7,0c5.4,0,34.8-0.9,34.8-0.9"/>

<path id="right_water_line_FLOOD4" data-name="right_water_line_CREST" style="fill:none;stroke:#2D95D2;stroke-miterlimit:10;" d="M266.7,70.9c1,0,4.1,0,8.7,0c4.6,0,8.6,0,14,0c9.7,0,19.1,0,30.1,0
	c13.9,0,30.2,0,46.7,0c5.4,0,34.8-0.9,34.8-0.9"/>

<path id="center_water_line_CREST" data-name="center_water_line_CREST" style="fill:none;stroke:#2D95D2;stroke-miterlimit:10;" d="M119.7,70.9c12.7,0,161.3,0,164.9,0"/>

<path id="left_water_line_CREST" data-name="left_water_line_CREST" style="fill:none;stroke:#2D95D2;stroke-miterlimit:10;" d="M1,57.6c0,0,7.1-0.2,16.3,1c8.5,1.1,23.5,1.5,27.8,1.6
	c6.9,0.1,12.6,0.1,18.9,1.3c7.2,1.3,18,4.2,22.2,4.4c7.4,0.3,17.2,0.3,25.5,0.3c2.4,0,20,0,22.2,0c4.3,0,5.3,4.7,6.6,4.7"/>

<path id="left_water_line_FLOOD4" data-name="left_water_line_CREST" style="fill:none;stroke:#2D95D2;stroke-miterlimit:10;" d="M1,57.6c0,0,7.1-0.2,16.3,1c8.5,1.1,23.5,1.5,27.8,1.6
	c6.9,0.1,12.6,0.1,18.9,1.3c7.2,1.3,18,4.2,22.2,4.4c7.4,0.3,17.2,0.3,25.5,0.3c2.4,0,20,0,22.2,0c4.3,0,5.3,4.7,6.6,4.7"/>

<path id="flood_right_water_line_CREST" data-name="flood_right_water_line_CREST" style="fill:none;stroke:#2D95D2;stroke-miterlimit:10;" d="M284.6,70.9c1,0,7.9,0,10.2,0c4.8,0,9.1,0,11.3,0c9.8,0,13.8,0,17.3,0
	c13.9,0,26.3,0,42.8,0c5.4,0,34.8,0,34.8,0"/>

<path id="flood_left_water_line_CREST" data-name="flood_left_water_line_CREST" style="fill:none;stroke:#2D95D2;stroke-miterlimit:10;" d="M1,70.9c0,0,6.9,0,16.3,0c8.9,0,23.5,0,27.8,0c6.8,0,12.5,0,18.9,0
	c7.1,0,9.1,0,13.3,0c2.5,0,12.1,0,16,0c2.4,0,3.7,0,9.1,0c4.3,0,16.1,0,17.3,0"/>

<path id="flood_right_water_line_FLOOD4" data-name="flood_right_water_line_FLOOD4" style="fill:none;stroke:#2D95D2;stroke-miterlimit:10;" d="M284.6,54c1,0,7.9,0,10.2,0c4.8,0,9.1,0,11.3,0c9.8,0,13.8,0,17.3,0
	c13.9,0,26.3,0,42.8,0c5.4,0,34.8,0,34.8,0"/>

<path id="center_water_line_FLOOD4" data-name="center_water_line_FLOOD4" style="fill:none;stroke:#2D95D2;stroke-miterlimit:10;" d="M119.7,54c12.7,0,161.3,0,164.9,0"/>

<path id="flood_left_water_line_FLOOD4" data-name="flood_left_water_line_FLOOD4" style="fill:none;stroke:#2D95D2;stroke-miterlimit:10;" d="M1,54c0,0,6.9,0,16.3,0c8.9,0,23.5,0,27.8,0c6.8,0,12.5,0,18.9,0
	c7.1,0,9.1,0,13.3,0c2.5,0,12.1,0,16,0c2.4,0,3.7,0,9.1,0c4.3,0,16.1,0,17.3,0"/>
</svg>
