<?xml version="1.0" encoding="utf-8"?>
<!-- Generator: Adobe Illustrator 24.3.0, SVG Export Plug-In . SVG Version: 6.00 Build 0)  -->
<svg version="1.1" id="Model_2_Gauge_1_CS_Water" xmlns="http://www.w3.org/2000/svg" xmlns:xlink="http://www.w3.org/1999/xlink"
	 x="0px" y="0px" viewBox="0 0 402 157" enable-background="new 0 0 402 157" xml:space="preserve">
	 

	<path id="flood_right_water_level_CREST" data-name="flood_right_water_level_CREST" style="fill:#67A5D9;opacity:0.4;" d="M401,70.9v24.4H284.6V70.9H401z"/>
	<path id="flood_right_water_level_FLOOD4" data-name="flood_right_water_level_FLOOD4" style="fill:#67A5D9;opacity:0.4;" d="M401,54v41.4H284.6V54H401z"/>
	<path id="center_water_level_LOW" data-name="center_water_level_LOW" style="fill:#67A5D9;opacity:0.4;" d="M284.6,90.5v4.8H119.7v-4.8H284.6z"/>
	<path id="center_water_level_MED" data-name="center_water_level_MED" style="fill:#67A5D9;opacity:0.4;" d="M284.6,83.8v11.5H119.7V83.8H284.6z"/>
	<path id="center_water_level_HI" data-name="center_water_level_HI" style="fill:#67A5D9;opacity:0.4;" d="M284.6,77.5v17.8H119.7V77.5H284.6z"/>
	<path id="center_water_level_CREST" data-name="center_water_level_CREST" style="fill:#67A5D9;opacity:0.4;" d="M284.6,70.9v24.4H119.7V70.9H284.6z"/>
	<path id="center_water_level_FLOOD4" data-name="center_water_level_FLOOD4" style="fill:#67A5D9;opacity:0.4;" d="M284.6,54v41.4H119.7V54H284.6z"/>
	<path id="flood_left_water_level_CREST" data-name="flood_left_water_level_CREST" style="fill:#67A5D9;opacity:0.4;" d="M119.7,70.9v24.4H1V70.9H119.7z"/>
	<path id="flood_left_water_level_FLOOD4" data-name="flood_left_water_level_FLOOD4" style="fill:#67A5D9;opacity:0.4;" d="M119.7,54v41.4H1V54H119.7z"/>


	<path id="right_water_level_LOW" data-name="right_water_level_LOW" style="fill:#67A5D9;opacity:0.4;" d="M401,156H201V94.2c0,0,0.2,0,0.3,0c3.3,0,6.2-0.1,7.5,0
		c3.1,0.1,11.8,0,14.2-0.4c0.6-0.1,1.5-0.2,2.7-0.4c4-0.6,10.6-1.5,13.1-2.4c0.4-0.1,0.8-0.3,1.2-0.5c0.8-0.4,1.6,0,3,0
		c0.4,0,3,0.1,3.7,0.2c0.6,0,6,0.6,6.9,0.7c1.1,0.1,13,1,21.5,1.6c1.1,0.1,18.8,1,24.2,1.4c11.2,0.8,56.1,2.9,59.9,2.9
		c3.3,0,13.7,0.3,23.1,0.4c7.1,0.1,17,0.4,18.7,0.4V156z"/>
		
	<path id="right_water_level_MED" data-name="right_water_level_MED" style="fill:#67A5D9;opacity:0.4;" d="M401,156H201V94.2c0,0,0.2,0,0.3,0c3.3,0,6.2-0.1,7.5,0
		c3.1,0.1,11.8,0,14.2-0.4c0.6-0.1,1.5-0.2,2.7-0.4c4-0.6,10.6-1.5,13.1-2.4c0.4-0.1,0.8-0.3,1.2-0.5c2.7-1.4,5.9-4,8.8-6.7
		c0.3-0.3,1.2,0,1.9,0c0.5,0,3.5-0.1,4.2-0.1c1.1,0,11.7,0.1,20.1,0.6c1.1,0.1,18.4,1,23.8,1.3C305.4,86,356,86,359.8,86
		c3.3,0,13,0.1,22.5,0.2c7.1,0.1,17,0.3,18.7,0.3V156z"/>
		
	<path id="right_water_level_HI" data-name="right_water_level_HI" style="fill:#67A5D9;opacity:0.4;" d="M401,156H201V94.2c0,0,0.2,0,0.3,0c3.3,0,6.2-0.1,7.5,0
		c3.1,0.1,11.8,0,14.2-0.4c0.6-0.1,1.5-0.2,2.7-0.4c4-0.6,10.6-1.5,13.1-2.4c0.4-0.1,0.8-0.3,1.2-0.5c2.7-1.4,5.9-4,8.8-6.7
		c2.4-2.2,4.6-4.5,6.1-6.2c0.3-0.4,2.1-0.1,2.9-0.2c1.1,0,11.1-0.4,19.5-0.4c1.1,0,14.9,0.5,16,0.5c4.8,0.1,66.4,0.1,70.2,0.1
		c3.3,0,13,0.1,22.4-0.2c7.1-0.2,13.4-0.2,15-0.2V156z"/>
		
	<path id="right_water_level_CREST" data-name="right_water_level_CREST" style="fill:#67A5D9;opacity:0.4;" d="M401,156H201V94.2c0,0,0.2,0,0.3,0c3.3,0,6.2-0.1,7.5,0
		c3.1,0.1,11.8,0,14.2-0.4c0.6-0.1,1.5-0.2,2.7-0.4c4-0.6,10.6-1.5,13.1-2.4c0.4-0.1,0.8-0.3,1.2-0.5c2.7-1.4,5.9-4,8.8-6.7
		c2.4-2.2,4.6-4.5,6.1-6.2c4.6-5.2,9-6.8,9.3-6.8c1.1-0.1,5.2-0.2,13.6-0.1c1.1,0,14.5,0,15.6,0c4.8,0.1,66.3,0,70.1,0
		c3.3,0,12.9-0.2,22.4-0.5c7.1-0.2,13.4-0.4,15.1-0.4V156z"/>
		
	<path id="right_water_level_FLOOD4" data-name="right_water_level_FLOOD4" style="fill:#67A5D9;opacity:0.4;" d="M401,156H201V94.2c0,0,0.2,0,0.3,0c3.3,0,6.2-0.1,7.5,0
		c3.1,0.1,11.8,0,14.2-0.4c0.6-0.1,1.5-0.2,2.7-0.4c4-0.6,10.6-1.5,13.1-2.4c0.4-0.1,0.8-0.3,1.2-0.5c2.7-1.4,5.9-4,8.8-6.7
		c2.4-2.2,4.6-4.5,6.1-6.2c4.6-5.2,9-6.8,9.3-6.8c1.1-0.1,5.2-0.2,13.6-0.1c1.1,0,14.5,0,15.6,0c4.8,0.1,66.3,0,70.1,0
		c3.3,0,12.9-0.2,22.4-0.5c7.1-0.2,13.4-0.4,15.1-0.4V156z"/>
		
	<path id="left_water_level_LOW" data-name="left_water_level_LOW" style="fill:#67A5D9;opacity:0.4;" d="M201,156H4c-1.7,0-3-1.3-3-3V98.3c5,0.2,22-0.1,26.5,0
		c3.3,0,12.3-0.2,20.1-1c6.6-0.7,10.6-1.1,13.1-1.2c4.8-0.1,9.9-0.5,15.4-0.4c3.7,0,17.2-0.5,19.2-0.4c8.8,0,22-0.4,27.8-1.3
		c7.5-1.1,12.6-1.5,18.1-2.3c2.3-0.3,8.6-1,9.3-1c0.4,0,1.6-0.1,1.7-0.1c0.1,0,0.8,0,1.3-0.1c0.3,0,0.7,0,0.8,0c0.2,0,0.6,0,0.8,0
		c0.3,0,0.4-0.2,0.7,0.1c3.6,2.1,10.7,3.5,13.1,3.5c2.8,0,16,0.2,19.4,0.3c3.2,0.1,12.6,0,12.6,0V156z"/>
		
	<path id="left_water_level_MED" data-name="left_water_level_MED" style="fill:#67A5D9;opacity:0.4;" d="M201,156H4c-1.7,0-3-1.3-3-3V80.6c4.9,0.5,20.3,1.3,24.8,1.7
		c3,0.3,11.1,0.6,19,0.2c6.8-0.4,12.9-0.3,15.4-0.2C65,82.5,68.6,82.9,74,84c3.4,0.7,12.4,1.4,14.4,1.6c8.8,0.9,27.4-0.2,33.3-0.7
		c7.4-0.7,12.1-0.7,17.6-1c2.3-0.1,6.6-0.1,7.3-0.1c0.4,0,0.9,0,1,0c0.1,0,0.4,0,1,0c0.3,0,0.7-0.1,0.8,0.1c2.1,2.7,3.8,4.5,5.5,5.9
		c0.3,0.2,0.6,0.5,1,0.7c3.6,2.1,10.7,3.5,13.1,3.5c2.8,0,16,0.2,19.4,0.3c3.2,0.1,12.6,0,12.6,0V156z"/>
		
	<path id="left_water_level_HI" data-name="left_water_level_HI" style="fill:#67A5D9;opacity:0.4;" d="M201,156H4c-1.7,0-3-1.3-3-3V66c4.9,0.5,18.6,1.3,23,1.5
		c3,0.2,11.9,0.7,19.6,0.6c7,0,12.8,0.6,15.3,1c4.9,0.8,9.9,1.6,15.4,2.7c3.4,0.7,11.3,1.7,13.3,1.9c8.8,0.9,28.7,0.1,33.3-0.2
		c7.5-0.5,11.7-1.1,16.8,0.8c2.2,0.8,5.8,3,6.5,3.1c0.4,0,0.8-0.1,0.9,0c0.1,0.1,0.6,1.1,1,1.5c1.2,1.8,2.3,3.4,3.4,4.8
		c2,2.6,3.8,4.5,5.5,5.9c0.3,0.2,0.6,0.5,1,0.7c3.6,2.1,10.7,3.5,13.1,3.5c2.8,0,16,0.2,19.4,0.3c3.2,0.1,12.6,0,12.6,0V156z"/>
		
	<path id="left_water_level_CREST" data-name="left_water_level_CREST" style="fill:#67A5D9;opacity:0.4;" d="M201,156H4c-1.7,0-3-1.3-3-3V60.2c3.1-0.5,18.1,1.1,22.5,1.6
		c3,0.3,12.3,0.8,20,0.8c7,0,13.2,0.4,15.6,0.7c4.8,0.5,9.6,1.5,14.9,2.8c3.3,0.8,10.4,2.3,13.3,2.3c8.9,0.2,27.1,0.1,31.8,0.1
		c7.5,0,17-0.1,19.1,0.2c1,0.2,2.1,2.1,2.7,2c0.3,0,3.9,6.5,4,6.6c0.1,0.1,0.6,1.1,1,1.5c1.2,1.8,2.3,3.4,3.4,4.8
		c2,2.6,3.8,4.5,5.5,5.9c0.3,0.2,0.6,0.5,1,0.7c3.6,2.1,10.7,3.5,13.1,3.5c2.8,0,16,0.2,19.4,0.3c3.2,0.1,12.6,0,12.6,0V156z"/>
		
	<path id="left_water_level_FLOOD4" data-name="left_water_level_FLOOD4" style="fill:#67A5D9;opacity:0.4;" d="M201,156H4c-1.7,0-3-1.3-3-3V60.2c3.1-0.5,18.1,1.1,22.5,1.6
		c3,0.3,12.3,0.8,20,0.8c7,0,13.2,0.4,15.6,0.7c4.8,0.5,9.6,1.5,14.9,2.8c3.3,0.8,10.4,2.3,13.3,2.3c8.9,0.2,27.1,0.1,31.8,0.1
		c7.5,0,17-0.1,19.1,0.2c1,0.2,2.1,2.1,2.7,2c0.3,0,3.9,6.5,4,6.6c0.1,0.1,0.6,1.1,1,1.5c1.2,1.8,2.3,3.4,3.4,4.8
		c2,2.6,3.8,4.5,5.5,5.9c0.3,0.2,0.6,0.5,1,0.7c3.6,2.1,10.7,3.5,13.1,3.5c2.8,0,16,0.2,19.4,0.3c3.2,0.1,12.6,0,12.6,0V156z"/>



	<path id="right_water_line_LOW" data-name="right_water_line_LOW" style="fill:none;stroke:#2D95D2;stroke-miterlimit:10;" d="M241.5,90.5c5,0,21.1,1.8,28,2.1
		c4.5,0.2,11.8,0.6,20.1,1.1c7.9,0.4,16.7,1,25.1,1.5c14.9,0.9,37.6,1.9,52.1,2.2C381.3,97.6,401,98,401,98"/>
		
	<path id="center_water_line_LOW" data-name="center_water_line_LOW" style="fill:none;stroke:#2D95D2;stroke-miterlimit:10;" d="M119.7,90.5c12.7,0,152.9,0,164.9,0"/>
	
	<path id="left_water_line_LOW" data-name="left_water_line_LOW" style="fill:none;stroke:#2D95D2;stroke-miterlimit:10;" d="M1,98.3c0,0,5.2,0.1,13.2,0.1
		c4.2,0,9.2,0,14.7-0.1c12.1-0.1,19.8-1.3,29.2-2c2.9-0.2,6-0.4,9.4-0.4c12.3-0.2,34.6-0.6,45.6-1.1c1.1,0,2-0.1,2.8-0.1
		c9.3-0.5,31.5-4.2,38.3-4.2"/>
		
	<path id="right_water_line_MED" data-name="right_water_line_MED" style="fill:none;stroke:#2D95D2;stroke-miterlimit:10;" d="M249.9,83.8c5,0,14.2-0.1,21.2,0.2
		c4.3,0.2,10.3,0.6,17.3,1c7.1,0.4,15.2,0.7,23.9,0.9c16,0.3,32.9,0.4,47.4,0.2c13.1-0.1,41.4,0.4,41.4,0.4"/>
		
	<path id="center_water_line_MED" data-name="center_water_line_MED" style="fill:none;stroke:#2D95D2;stroke-miterlimit:10;" d="M119.7,83.8c12.7,0,152.9,0,164.9,0"/>
	
	<path id="left_water_line_MED" data-name="left_water_line_MED" style="fill:none;stroke:#2D95D2;stroke-miterlimit:10;" d="M1,80.6c0,0,4.8,0.2,12.3,0.7
		c4.4,0.3,9.8,0.7,15.6,1.1c13.7,1.1,24-1,35.2,0c1.9,0.2,3.9,0.4,5.9,0.8c19.1,3.6,34.7,2.8,44.9,2.1c2.4-0.2,4.5-0.3,6.3-0.4
		c9.3-0.5,20.3-1.1,27.1-1.1"/>
		
	<path id="right_water_line_HI" data-name="right_water_line_HI" style="fill:none;stroke:#2D95D2;stroke-miterlimit:10;" d="M256.1,77.5c1,0,6.5-0.2,13.8-0.4
		c4.2-0.1,12.4,0.2,17.9,0.3c10.3,0.2,20.8,0.2,31.7,0.2c13.9,0,26.9,0.1,43.5,0.1c11.4,0,38.1-0.4,38.1-0.4"/>
		
	<path id="center_water_line_HI" data-name="center_water_line_HI" style="fill:none;stroke:#2D95D2;stroke-miterlimit:10;" d="M119.7,77.5c12.7,0,152.9,0,164.9,0"/>
	
	<path id="left_water_line_HI" data-name="left_water_line_HI" style="fill:none;stroke:#2D95D2;stroke-miterlimit:10;" d="M1,66c0,0,6.8,0.6,16.1,1.2
		c8.5,0.5,19.3,1,28.9,1c6.9,0,13.3,1,19.5,2.1c7.2,1.3,14.2,2.8,22,3.4c9.7,0.7,18.3,0.5,26.6,0.2c2.5-0.1,14.4-0.8,16.6-0.8
		c9,0.3,11.8,4.3,13.5,4.3"/>
		
	<path id="right_water_line_CREST" data-name="right_water_line_CREST" style="fill:none;stroke:#2D95D2;stroke-miterlimit:10;" d="M266.7,70.9c1,0,4.2-0.2,8.8-0.2
		c4.6,0,8.5,0,14,0c9.7,0,19.1,0,30,0c13.9,0,33,0,46.6-0.1c3.8,0,34.9-0.9,34.9-0.9"/>
		
	<path id="right_water_line_FLOOD4" data-name="right_water_line_FLOOD4" style="fill:none;stroke:#2D95D2;stroke-miterlimit:10;" d="M266.7,70.9c1,0,4.2-0.2,8.8-0.2
		c4.6,0,8.5,0,14,0c9.7,0,19.1,0,30,0c13.9,0,33,0,46.6-0.1c3.8,0,34.9-0.9,34.9-0.9"/>
		
	<path id="center_water_line_CREST" data-name="center_water_line_CREST" style="fill:none;stroke:#2D95D2;stroke-miterlimit:10;" d="M119.7,70.9c12.7,0,152.9,0,164.9,0
		"/>
		
	<path id="left_water_line_CREST" data-name="left_water_line_CREST" style="fill:none;stroke:#2D95D2;stroke-miterlimit:10;" d="M1,60.1c0,0,8.3,0.1,16.1,1
		c10.2,1.2,23.5,1.5,27.7,1.5c6.9,0.1,12.7,0.1,19,1.2c7.2,1.3,17.7,4.3,21.8,4.4c7.4,0.3,17.8,0.4,26.1,0.4c2.4,0,23.4,0,25.6,0
		c1.7,0,2.9,2.2,3,2.2"/>
		
	<path id="left_water_line_FLOOD4" data-name="left_water_line_FLOOD4" style="fill:none;stroke:#2D95D2;stroke-miterlimit:10;" d="M1,60.1c0,0,8.3,0.1,16.1,1
		c10.2,1.2,23.5,1.5,27.7,1.5c6.9,0.1,12.7,0.1,19,1.2c7.2,1.3,17.7,4.3,21.8,4.4c7.4,0.3,17.8,0.4,26.1,0.4c2.4,0,23.4,0,25.6,0
		c1.7,0,2.9,2.2,3,2.2"/>
		
	<path id="flood_right_water_line_CREST" data-name="flood_right_water_line_CREST" style="fill:none;stroke:#2D95D2;stroke-miterlimit:10;" d="M284.6,70.9
		c1,0,116.4,0,116.4,0"/>
		
	<path id="flood_left_water_line_CREST" data-name="flood_left_water_line_CREST" style="fill:none;stroke:#2D95D2;stroke-miterlimit:10;" d="M1,70.9c0,0,117.4,0,118.7,0"/>
	
	<path id="flood_right_water_line_FLOOD4" data-name="flood_right_water_line_FLOOD4" style="fill:none;stroke:#2D95D2;stroke-miterlimit:10;" d="M284.6,54
		c1,0,116.4,0,116.4,0"/>
		
	<path id="center_water_line_FLOOD4" data-name="center_water_line_FLOOD4" style="fill:none;stroke:#2D95D2;stroke-miterlimit:10;" d="M119.7,54c12.7,0,161.3,0,164.9,0"/>
	
	<path id="flood_left_water_line_FLOOD4" data-name="flood_left_water_line_FLOOD4" style="fill:none;stroke:#2D95D2;stroke-miterlimit:10;" d="M1,54c0,0,117.4,0,118.7,0"/>

</svg>
