<?xml version="1.0" encoding="utf-8"?>
<!-- Generator: Adobe Illustrator 24.2.3, SVG Export Plug-In . SVG Version: 6.00 Build 0)  -->
<svg version="1.1" id="Model_2_Gauge_1_Water" xmlns="http://www.w3.org/2000/svg" xmlns:xlink="http://www.w3.org/1999/xlink"
	 x="0px" y="0px" viewBox="0 0 402 157" style="enable-background:new 0 0 402 157;" xml:space="preserve">


	<path id="river_level_LOW" data-name="river_level_LOW" style="fill:#67A5D9;" d="M1,98.3c0,0,5.2,0.1,13.2,0.1c4.2,0,9.2,0,14.7-0.1c12.1-0.1,19.8-1.3,29.2-2c2.9-0.2,6-0.4,9.4-0.4
		c12.3-0.2,34.6-0.6,45.6-1.1c1.1,0,2-0.1,2.8-0.1c9.3-0.5,31.5-4.2,38.3-4.2c12.7,0,75.2,0,87.3,0c5,0,21.1,1.8,28,2.1
		c4.5,0.2,11.8,0.6,20.1,1.1c7.9,0.4,16.7,1,25.1,1.5c14.9,0.9,37.6,1.9,52.1,2.2C381.3,97.6,401,98,401,98v55c0,1.7-1.3,3-3,3H4
		c-1.7,0-3-1.3-3-3V98.3z"/>

	<path id="river_level_MED" data-name="river_level_MED" style="fill:#67A5D9;" d="M1,80.6c0,0,4.8,0.2,12.3,0.7c4.4,0.3,9.8,0.7,15.6,1.1c13.7,1.1,24-1,35.2,0
		c1.9,0.2,3.9,0.4,5.9,0.8c19.1,3.6,34.7,2.8,44.9,2.1c2.4-0.2,4.5-0.3,6.3-0.4c9.3-0.5,20.3-1.1,27.1-1.1c12.7,0,89.6,0,101.7,0
		c5,0,14.2-0.1,21.2,0.2c4.3,0.2,10.3,0.6,17.3,1c7.1,0.4,15.2,0.7,23.9,0.9c16,0.3,32.7,0.8,47.1,0c13.6-0.8,41.7-2.1,41.7-2.1V153
		c0,1.7-1.3,3-3,3H4c-1.7,0-3-1.3-3-3V80.6z"/>

	<path id="river_level_HI" data-name="river_level_HI" style="fill:#67A5D9;" d="M1,66c0,0,6.8,0.6,16.1,1.2c8.5,0.5,19.3,1,28.9,1c6.9,0,13.3,1,19.5,2.1c7.2,1.3,14.2,2.8,22,3.4
		c9.7,0.7,19.6,0.1,27.9-0.2c2.5-0.1,4.9-0.2,7.1-0.2c11.6,0,19.4,2.6,21.1,2.6c12.7,0,102.1,0,114.2,0c1,0,8.8-2.4,15.5-0.5
		c4.1,1.1,9,1.7,14.5,2c9.6,0.5,20.8,0.2,31.7,0.2c13.9,0,30.5-0.2,47-1.9c10.7-1.1,34.6-2.7,34.6-2.7V153c0,1.7-1.3,3-3,3H4
		c-1.7,0-3-1.3-3-3V66z"/>

	<path id="river_level_CREST" data-name="river_level_CREST" style="fill:#67A5D9;" d="M1,59.9c0,0,6.8,0.8,16.1,1.4c8.5,0.5,18.4,1.6,28,1.6c6.9,0,13.3,2.3,19.6,3.5
		c7.2,1.3,14.6,2.8,22.4,3.4c9.7,0.7,19.5,1.1,27.8,0.8c2.5-0.1,5.9,0.1,8.1,0.1c11.6,0,15.8,0.3,17.5,0.3c12.7,0,114.2,0,126.3,0
		c1,0,3.8-0.3,8.2,1c4.1,1.2,7.4,1.8,12.9,1.7c9.6-0.1,20.7,0,31.7,0c13.9,0,30.2-0.7,46.7-2.3c10.7-1.1,34.8-2.5,34.8-2.5V153
		c0,1.7-1.3,3-3,3H4c-1.7,0-3-1.3-3-3V59.9z"/>


	<path id="zeroL_river_level_FLOOD1" data-name="zeroL_river_level_FLOOD1" style="fill:#67A5D9;" d="M1,57.6c0,0,6.6-0.2,15.9,1c8.9,1.1,18.5,1.6,28.2,1.6c6.9,0,13.3,0.2,19.6,1.4
		c7.2,1.3,16.2,4.3,23.9,4.9c6.7,0.5,18.9,0.3,27.2,0c2.5-0.1,6.2,0.1,9.1-0.5c9.9-2,11.3,1,12,1c12.7,0,117.1,0,129.2,0
		c1,0,8.6,0,13.6,0c3.3,0,5.9,0,11.4,0c10,0,17.5,0,28.4,0c14.4,0,30.1,0,46.7,0c11.1,0,34.8,0,34.8,0V153c0,1.7-1.3,3-3,3H4
		c-1.7,0-3-1.3-3-3V57.6z"/>

	<path id="zeroL_river_level_FLOOD2" data-name="zeroL_river_level_FLOOD2" style="fill:#67A5D9;" d="M1,57.6c0,0,6.6-0.2,15.9,1c8.9,1.1,18.5,1.6,28.2,1.6c6.9,0,13.3,0.2,19.6,1.4
		c7.2,1.3,16.1,1.3,23.9,1.3c6.6,0,17.3,0,25.5,0c2.5,0,5.4,0,7.6,0c5.8,0,13.2,0,14.9,0c12.7,0,121,0,133.1,0c1,0,4.6,0,11.6,0
		c4.2,0,7.1,0,12.6,0c9.8,0,14.8,0,25.7,0c14.1,0,30.1,0,46.7,0c11.4,0,34.8,0,34.8,0V153c0,1.7-1.3,3-3,3H4c-1.7,0-3-1.3-3-3V57.6z
		"/>

	<path id="zeroL_river_level_FLOOD3" data-name="zeroL_river_level_FLOOD3" style="fill:#67A5D9;" d="M1,57.6c0,0,6.6-0.2,15.9,1c8.9,1.1,21.1,0.2,28.2,0.2c6.9,0,13.2,0,19.6,0c7.2,0,16.1,0,23.9,0
		c6.9,0,15.3,0,23.7,0c2.5,0,5.6,0,7.8,0c6,0,12.8,0,14.5,0c12.7,0,126.6,0,138.7,0c1,0,3.2,0,8.9,0c4,0,8.3,0,13.7,0
		c9.8,0,12.8,0,23.8,0c13.7,0,30.1,0,46.7,0c11.2,0,34.8,0,34.8,0V153c0,1.7-1.3,3-3,3H4c-1.7,0-3-1.3-3-3V57.6z"/>

	<path id="zeroL_river_level_FLOOD3A" data-name="zeroL_river_level_FLOOD3A" style="fill:#67A5D9;" d="M1,57.5c0,0,6.5,0,15.9,0c9.1,0,18.5,0,28.2,0c6.7,0,13.2,0,19.6,0c7.3,0,16.1,0,23.9,0
		c6.8,0,14.7,0,23,0c2.6,0,7.4,0,9.6,0c3.3,0,10.9,0,12.6,0c12.7,0,126.7,0,138.8,0c1,0,10.7,0,12.9,0c4.5,0,10,0,15.4,0
		c8,0,16.2,0,27.2,0c13.5,0,23.1,0,39.6,0c11.2,0,33.4,0,33.4,0V153c0,1.7-1.3,3-3,3H4c-1.7,0-3-1.3-3-3V57.5z"/>

	<path id="zeroL_river_level_FLOOD3B" data-name="zeroL_river_level_FLOOD3B" style="fill:#67A5D9;" d="M1,56.5c0,0,6.5,0,15.9,0c9.3,0,18.5,0,28.2,0c7,0,13.2,0,19.6,0c7.4,0,16.1,0,23.9,0
		c6.7,0,15.1,0,23.2,0c2.5,0,7.2,0,9.3,0c5.6,0,10.6,0,12.3,0c12.7,0,128.7,0,140.8,0c1,0,9.1,0,14.2,0c4,0,12.9,0,18.4,0
		c10.2,0,14.6,0,25.6,0c13.4,0,21.7,0,38.2,0c10.4,0,30.5,0,30.5,0V153c0,1.7-1.3,3-3,3H4c-1.7,0-3-1.3-3-3V56.5z"/>

	<path id="zeroL_river_level_FLOOD3C" data-name="zeroL_river_level_FLOOD3C" style="fill:#67A5D9;" d="M1,55.6c0,0,6.5,0,15.9,0c9,0,18.5,0,28.2,0c7,0,13.2,0,19.6,0c7.2,0,16.1,0,23.9,0
		c6.7,0,14.7,0,23,0c2.5,0,7.5,0,9.7,0c5.8,0,9.8,0,11.5,0c12.7,0,129.4,0,141.5,0c1,0,11.7,0,16.9,0c7.5,0,12.5,0,18,0
		c8.9,0,13.8,0,24.7,0c13.8,0,21.1,0,37.6,0c10.6,0,29.6,0,29.6,0V153c0,1.7-1.3,3-3,3H4c-1.7,0-3-1.3-3-3V55.6z"/>

	<path id="zeroL_river_level_FLOOD4" data-name="zeroL_river_level_FLOOD4" style="fill:#67A5D9;" d="M1,54.7c0,0,6.5,0,15.9,0c9,0,18.5,0,28.2,0c6.8,0,13.2,0,19.6,0c7.4,0,16.1,0,23.9,0
		c6.7,0,14.5,0,22.8,0c3.3,0,7.8,0,10,0c4.4,0,7.9,0,10.1,0c12.6,0,130.9,0,142.9,0c2.4,0,11.7,0,16.8,0c7.8,0,13.4,0,18.9,0
		c10.1,0,17.3,0,28.3,0c12.1,0,18.7,0,35.3,0c11.3,0,27.4,0,27.4,0V153c0,1.7-1.3,3-3,3H4c-1.7,0-3-1.3-3-3V54.7z"/>


	<path id="rightL_river_level_FLOOD1" data-name="rightL_river_level_FLOOD1" style="fill:#67A5D9;" d="M1,57.6c0,0,6.6-0.2,15.9,1c8.9,1.1,18.5,1.6,28.2,1.6c6.9,0,13.3,0.2,19.6,1.4
		c7.2,1.3,16.2,4.3,23.9,4.9c6.7,0.5,18.9,0.3,27.2,0c2.5-0.1,6.2,0.1,9.1-0.5c9.9-2,11.3,1,12,1c12.7,0,117.1,0,129.2,0
		c1,0,8.9-1.3,13.6,0.6c3.1,1.2,2.7,6.4,8.2,6.3c9.6-0.1,20.7,0,31.7,0c13.9,0,30.2-0.7,46.7-2.3c10.7-1.1,34.8-2.5,34.8-2.5V153
		c0,1.7-1.3,3-3,3H4c-1.7,0-3-1.3-3-3V57.6z"/>

	<path id="rightL_river_level_FLOOD2" data-name="rightL_river_level_FLOOD2" style="fill:#67A5D9;" d="M1,57.6c0,0,6.6-0.2,15.9,1c8.9,1.1,18.5,1.6,28.2,1.6c6.9,0,13.3,0.2,19.6,1.4
		c7.2,1.3,16.1,1.3,23.9,1.3c6.6,0,17.3,0,25.5,0c2.5,0,5.4,0,7.6,0c5.8,0,13.2,0,14.9,0c12.7,0,121,0,133.1,0c1,0,4.9-1.5,11.6,0.3
		c4.1,1.1,1.1,10.5,6.6,10.5c9.6-0.1,20.7,0,31.7,0c13.9,0,30.2-0.7,46.7-2.3c10.7-1.1,34.8-2.5,34.8-2.5V153c0,1.7-1.3,3-3,3H4
		c-1.7,0-3-1.3-3-3V57.6z"/>

	<path id="rightL_river_level_FLOOD3" data-name="rightL_river_level_FLOOD3" style="fill:#67A5D9;" d="M1,57.6c0,0,6.6-0.2,15.9,1c8.9,1.1,21.1,0.2,28.2,0.2c6.9,0,13.2,0,19.6,0c7.2,0,16.1,0,23.9,0
		c6.9,0,15.3,0,23.7,0c2.5,0,5.6,0,7.8,0c6,0,12.8,0,14.5,0c12.7,0,126.6,0,138.7,0c1,0,3.2,0,8.9,0c4.2,0,0.4,14.9,5.8,14.8
		c9.6-0.1,20.7,0,31.7,0c13.9,0,30.2-0.7,46.7-2.3c10.7-1.1,34.8-2.5,34.8-2.5V153c0,1.7-1.3,3-3,3H4c-1.7,0-3-1.3-3-3V57.6z"/>

	<path id="rightL_river_level_FLOOD3A" data-name="rightL_river_level_FLOOD3A" style="fill:#67A5D9;" d="M1,57.5c0,0,6.5,0,15.9,0c9.1,0,18.5,0,28.2,0c6.7,0,13.2,0,19.6,0c7.3,0,16.1,0,23.9,0
		c6.8,0,14.7,0,23,0c2.6,0,7.4,0,9.6,0c3.3,0,10.9,0,12.6,0c12.7,0,126.7,0,138.8,0c1,0,10.8-0.2,12.9,0.3c4.1,1.1,5.9,8.1,11.3,9.2
		c8,1.6,20.4,0.5,31.3,0.5c13.9,0,23.1,1,39.6,0.5c10.6-0.3,33.4,0.8,33.4,0.8V153c0,1.7-1.3,3-3,3H4c-1.7,0-3-1.3-3-3V57.5z"/>

	<path id="rightL_river_level_FLOOD3B" data-name="rightL_river_level_FLOOD3B" style="fill:#67A5D9;" d="M1,56.5c0,0,6.5,0,15.9,0c9.3,0,18.5,0,28.2,0c7,0,13.2,0,19.6,0c7.4,0,16.1,0,23.9,0
		c6.7,0,15.1,0,23.2,0c2.5,0,7.2,0,9.3,0c5.6,0,10.6,0,12.3,0c12.7,0,128.7,0,140.8,0c1,0,9.3-0.2,14.2,1.2
		c4.1,1.2,12.9,3.5,18.4,4.1c10,1,13.4-0.2,24.4-0.2c13.9,0,22.9,0.9,39.5,0.4c10.6-0.3,30.5,0.1,30.5,0.1V153c0,1.7-1.3,3-3,3H4
		c-1.7,0-3-1.3-3-3V56.5z"/>

	<path id="rightL_river_level_FLOOD3C" data-name="rightL_river_level_FLOOD3C" style="fill:#67A5D9;" d="M1,55.6c0,0,6.5,0,15.9,0c9,0,18.5,0,28.2,0c7,0,13.2,0,19.6,0c7.2,0,16.1,0,23.9,0
		c6.7,0,14.7,0,23,0c2.5,0,7.5,0,9.7,0c5.8,0,9.8,0,11.5,0c12.7,0,129.4,0,141.5,0c1,0,11.8-0.5,16.9,0.5c7.6,1.6,12.5,1.9,18,2.5
		c10,1,13.8,0.5,24.7,0.5c13.9,0,21.1,0,37.6-0.4c10.7-0.3,29.6-0.1,29.6-0.1V153c0,1.7-1.3,3-3,3H4c-1.7,0-3-1.3-3-3V55.6z"/>

	<path id="rightL_river_level_FLOOD4" data-name="rightL_river_level_FLOOD4" style="fill:#67A5D9;" d="M1,54.7c0,0,6.5,0,15.9,0c9,0,18.5,0,28.2,0c6.8,0,13.2,0,19.6,0c7.4,0,16.1,0,23.9,0
		c6.7,0,14.5,0,22.8,0c3.3,0,7.8,0,10,0c4.4,0,7.9,0,10.1,0c12.6,0,130.9,0,142.9,0c2.4,0,11.7,0,16.8,0c7.8,0,13.4,0,18.9,0
		c10.1,0,17.3,0,28.3,0c12.1,0,18.7,0,35.3,0c11.3,0,27.4,0,27.4,0V153c0,1.7-1.3,3-3,3H4c-1.7,0-3-1.3-3-3V54.7z"/>

	<path id="leftL_river_level_FLOOD1" data-name="leftL_river_level_FLOOD1" style="fill:#67A5D9;" d="M1,57.6c0,0,6.6-0.2,15.9,1c8.9,1.1,18.5,1.6,28.2,1.6c6.9,0,13.3,0.2,19.6,1.4
		c7.2,1.3,16.2,4.3,23.9,4.9c6.7,0.5,18.9,0.3,27.2,0c2.5-0.1,6.2,0.1,9.1-0.5c9.9-2,11.3,1,12,1c12.7,0,117.1,0,129.2,0
		c1,0,8.6,0,13.6,0c3.6,0,6.2,0,11.7,0c10,0,17.2,0,28.2,0c14,0,30.1,0,46.7,0c11.4,0,34.8,0,34.8,0V153c0,1.7-1.3,3-3,3H4
		c-1.7,0-3-1.3-3-3V57.6z"/>

	<path id="leftL_river_level_FLOOD2" data-name="leftL_river_level_FLOOD2" style="fill:#67A5D9;" d="M1,57.6c0,0,6.6-0.2,15.9,1c8.9,1.1,18.5,1.6,28.2,1.6c6.9,0,13.3,0.2,19.6,1.4
		c7.2,1.3,16.2,4.3,23.9,4.9c6.7,0.5,18.9,0.3,27.2,0c2.5-0.1,3.9-4.1,6-4.6c5.6-1.5,13.2,1.1,14.9,1.1c12.7,0,121,0,133.1,0
		c1,0,4.6,0,11.6,0c4.5,0,9.1,0,14.6,0c9.3,0,14.7,0,25.7,0c13.8,0,28.1,0,44.7,0c11.2,0,34.8,0,34.8,0V153c0,1.7-1.3,3-3,3H4
		c-1.7,0-3-1.3-3-3V57.6z"/>

	<path id="leftL_river_level_FLOOD3" data-name="leftL_river_level_FLOOD3" style="fill:#67A5D9;" d="M1,57.6c0,0,6.6-0.2,15.9,1c8.9,1.1,18.5,1.6,28.2,1.6c6.9,0,13.3,0.2,19.6,1.4
		c7.2,1.3,16.2,4.3,23.9,4.9c6.7,0.5,18.9,0.3,27.2,0c2.5-0.1,2.2-6.8,4.3-7.4c5.6-1.5,12.8-0.2,14.5-0.2c12.7,0,126.6,0,138.7,0
		c1,0,3.2,0,8.9,0c4.7,0,10.5,0,16,0c9.6,0,14.2,0,25.2,0c13.9,0,26.5,0,43.1,0c11.5,0,34.8,0,34.8,0V153c0,1.7-1.3,3-3,3H4
		c-1.7,0-3-1.3-3-3V57.6z"/>

	<path id="leftL_river_level_FLOOD3A" data-name="leftL_river_level_FLOOD3A" style="fill:#67A5D9;" d="M1,57.6c0,0,6.6-0.2,15.9,1c8.9,1.1,18.5,1.6,28.2,1.6c6.9,0,13.3,0.2,19.6,1.4
		c7.2,1.3,16.2,4.3,23.9,4.9c6.7,0.5,18.9,0.3,27.2,0c2.5-0.1,3.3-8.3,5.4-9c2.8-0.8,10.9,0.1,12.6,0.1c12.7,0,126.7,0,138.8,0
		c1,0,10.7,0,12.9,0c3.5,0,9.3,0,14.8,0c8.3,0,16.9,0,27.8,0c13.7,0,23.1,0,39.6,0c11,0,33.4,0,33.4,0V153c0,1.7-1.3,3-3,3H4
		c-1.7,0-3-1.3-3-3V57.6z"/>

	<path id="leftL_river_level_FLOOD3B" data-name="leftL_river_level_FLOOD3B" style="fill:#67A5D9;" d="M1,57.6c0,0,6.6-0.2,15.9,1c8.9,1.1,18.5,1.6,28.2,1.6c6.9,0,13.3,0.2,19.6,1.4
		c7.2,1.3,16.2,4.3,23.9,4.9c6.7,0.5,18.9,0.3,27.2,0c2.5-0.1,3.3-8.4,5.4-9c5.6-1.5,10.6-0.9,12.3-0.9c12.7,0,128.7,0,140.8,0
		c1.3,0,9.1,0,14.2,0c4.2,0,12.9,0,18.4,0c9.9,0,13.4,0,24.4,0c13.9,0,22.9,0,39.5,0c10.8,0,30.5,0,30.5,0V153c0,1.7-1.3,3-3,3H4
		c-1.7,0-3-1.3-3-3V57.6z"/>

	<path id="leftL_river_level_FLOOD3C" data-name="leftL_river_level_FLOOD3C" style="fill:#67A5D9;" d="M1,57.6c0,0,6.6-0.2,15.9,1c8.9,1.1,18.5,1.6,28.2,1.6c6.9,0,13.3,0.2,19.6,1.4
		c7.2,1.3,16.2,4.3,23.9,4.9c6.7,0.5,18.9,0.3,27.2,0c2.5-0.1,3.5-9,5.6-9.6c5.6-1.5,9.8-1.2,11.5-1.2c12.7,0,129.4,0,141.5,0
		c1,0,11.7,0,16.9,0c7.5,0,12.5,0,18,0c9.9,0,13.8,0,24.7,0c12.8,0,21.1,0,37.6,0c11,0,29.6,0,29.6,0V153c0,1.7-1.3,3-3,3H4
		c-1.7,0-3-1.3-3-3V57.6z"/>

	<path id="leftL_river_level_FLOOD4" data-name="leftL_river_level_FLOOD4" style="fill:#67A5D9;" d="M1,57.6c0,0,6.6-0.2,15.9,1c8.9,1.1,18.5,1.6,28.2,1.6c6.9,0,13.3,0.2,19.6,1.4
		c7.2,1.3,16.2,4.3,23.9,4.9c6.7,0.5,18.9,0.3,27.2,0c2.5-0.1,3.5-9,5.6-9.6c5.6-1.5,7.9-2,10.1-2c12.6,0,130.9,0,142.9,0
		c2.4,0,11.7,0,16.8,0c7.8,0,13.4,0,18.9,0c10.1,0,17.3,0,28.3,0c12.1,0,18.7,0,35.3,0c11.3,0,27.4,0,27.4,0V153c0,1.7-1.3,3-3,3H4
		c-1.7,0-3-1.3-3-3V57.6z"/>


	<path id="twoL_river_level_FLOOD1" data-name="twoL_river_level_FLOOD1" style="fill:#67A5D9;" d="M1,57.6c0,0,6.6-0.2,15.9,1c8.9,1.1,18.5,1.6,28.2,1.6c6.9,0,13.3,0.2,19.6,1.4
		c7.2,1.3,16.2,4.3,23.9,4.9c6.7,0.5,18.9,0.3,27.2,0c2.5-0.1,6.2,0.1,9.1-0.5c9.9-2,11.3,1,12,1c12.7,0,117.1,0,129.2,0
		c1,0,8.9-1.3,13.6,0.6c3.1,1.2,2.7,6.4,8.2,6.3c9.6-0.1,20.7,0,31.7,0c13.9,0,30.2-0.7,46.7-2.3c10.7-1.1,34.8-2.5,34.8-2.5V153
		c0,1.7-1.3,3-3,3H4c-1.7,0-3-1.3-3-3V57.6z"/>

	<path id="twoL_river_level_FLOOD2" data-name="twoL_river_level_FLOOD2" style="fill:#67A5D9;" d="M1,57.6c0,0,6.6-0.2,15.9,1c8.9,1.1,18.5,1.6,28.2,1.6c6.9,0,13.3,0.2,19.6,1.4
		c7.2,1.3,16.2,4.3,23.9,4.9c6.7,0.5,18.9,0.3,27.2,0c2.5-0.1,3.9-4.1,6-4.6c5.6-1.5,13.2,1.1,14.9,1.1c12.7,0,121,0,133.1,0
		c1,0,4.9-1.5,11.6,0.3c4.1,1.1,1.1,10.5,6.6,10.5c9.6-0.1,20.7,0,31.7,0c13.9,0,30.2-0.7,46.7-2.3c10.7-1.1,34.8-2.5,34.8-2.5V153
		c0,1.7-1.3,3-3,3H4c-1.7,0-3-1.3-3-3V57.6z"/>

	<path id="twoL_river_level_FLOOD3" data-name="twoL_river_level_FLOOD3" style="fill:#67A5D9;" d="M1,57.6c0,0,6.6-0.2,15.9,1c8.9,1.1,18.5,1.6,28.2,1.6c6.9,0,13.3,0.2,19.6,1.4
		c7.2,1.3,16.2,4.3,23.9,4.9c6.7,0.5,18.9,0.3,27.2,0c2.5-0.1,2.2-6.8,4.3-7.4c5.6-1.5,12.8-0.2,14.5-0.2c12.7,0,126.6,0,138.7,0
		c1,0,3.2,0,8.9,0c4.2,0,0.4,14.9,5.8,14.8c9.6-0.1,20.7,0,31.7,0c13.9,0,30.2-0.7,46.7-2.3c10.7-1.1,34.8-2.5,34.8-2.5V153
		c0,1.7-1.3,3-3,3H4c-1.7,0-3-1.3-3-3V57.6z"/>

	<path id="twoL_river_level_FLOOD3A" data-name="twoL_river_level_FLOOD3A" style="fill:#67A5D9;" d="M1,57.6c0,0,6.6-0.2,15.9,1c8.9,1.1,18.5,1.6,28.2,1.6c6.9,0,13.3,0.2,19.6,1.4
		c7.2,1.3,16.2,4.3,23.9,4.9c6.7,0.5,18.9,0.3,27.2,0c2.5-0.1,3.3-8.3,5.4-9c2.8-0.8,10.9,0.1,12.6,0.1c12.7,0,126.7,0,138.8,0
		c1,0,10.8-0.2,12.9,0.3c4.1,1.1,5.9,8.1,11.3,9.2c8,1.6,20.4,0.5,31.3,0.5c13.9,0,23.1,1,39.6,0.5c10.6-0.3,33.4,0.8,33.4,0.8V153
		c0,1.7-1.3,3-3,3H4c-1.7,0-3-1.3-3-3V57.6z"/>

	<path id="twoL_river_level_FLOOD3B" data-name="twoL_river_level_FLOOD3B" style="fill:#67A5D9;" d="M1,57.6c0,0,6.6-0.2,15.9,1c8.9,1.1,18.5,1.6,28.2,1.6c6.9,0,13.3,0.2,19.6,1.4
		c7.2,1.3,16.2,4.3,23.9,4.9c6.7,0.5,18.9,0.3,27.2,0c2.5-0.1,3.3-8.4,5.4-9c5.6-1.5,10.6-0.9,12.3-0.9c12.7,0,128.7,0,140.8,0
		c1,0,9.3-0.2,14.2,1.2c4.1,1.2,12.9,3.5,18.4,4.1c10,1,13.4-0.2,24.4-0.2c13.9,0,22.9,0.9,39.5,0.4c10.6-0.3,30.5,0.1,30.5,0.1V153
		c0,1.7-1.3,3-3,3H4c-1.7,0-3-1.3-3-3V57.6z"/>

	<path id="twoL_river_level_FLOOD3C" data-name="twoL_river_level_FLOOD3C" style="fill:#67A5D9;" d="M1,57.6c0,0,6.6-0.2,15.9,1c8.9,1.1,18.5,1.6,28.2,1.6c6.9,0,13.3,0.2,19.6,1.4
		c7.2,1.3,16.2,4.3,23.9,4.9c6.7,0.5,18.9,0.3,27.2,0c2.5-0.1,3.5-9,5.6-9.6c5.6-1.5,9.8-1.2,11.5-1.2c12.7,0,129.4,0,141.5,0
		c1,0,11.8-0.5,16.9,0.5c7.6,1.6,12.5,1.9,18,2.5c10,1,13.8,0.5,24.7,0.5c13.9,0,21.1,0,37.6-0.4c10.7-0.3,29.6-0.1,29.6-0.1V153
		c0,1.7-1.3,3-3,3H4c-1.7,0-3-1.3-3-3V57.6z"/>

	<path id="twoL_river_level_FLOOD4" data-name="twoL_river_level_FLOOD4" style="fill:#67A5D9;" d="M1,57.6c0,0,6.6-0.2,15.9,1c8.9,1.1,18.5,1.6,28.2,1.6c6.9,0,13.3,0.2,19.6,1.4
		c7.2,1.3,16.2,4.3,23.9,4.9c6.7,0.5,18.9,0.3,27.2,0c2.5-0.1,3.5-9,5.6-9.6c5.6-1.5,7.9-2,10.1-2c12.6,0,130.9,0,142.9,0
		c2.4,0,11.7,0,16.8,0c7.8,0,13.4,0,18.9,0c10.1,0,17.3,0,28.3,0c12.1,0,18.7,0,35.3,0c11.3,0,27.4,0,27.4,0V153c0,1.7-1.3,3-3,3H4
		c-1.7,0-3-1.3-3-3V57.6z"/>


	<path id="water_level_LOW" data-name="water_level_LOW" style="fill:#67A5D9;opacity:0.4;" d="M1,98.3c0,0,5.2,0.1,13.2,0.1c4.2,0,9.2,0,14.7-0.1c12.1-0.1,19.8-1.3,29.2-2c2.9-0.2,6-0.4,9.4-0.4
		c12.3-0.2,34.6-0.6,45.6-1.1c1.1,0,2-0.1,2.8-0.1c9.3-0.5,31.5-4.2,38.3-4.2c12.7,0,75.2,0,87.3,0c5,0,21.1,1.8,28,2.1
		c4.5,0.2,11.8,0.6,20.1,1.1c7.9,0.4,16.7,1,25.1,1.5c14.9,0.9,37.6,1.9,52.1,2.2C381.3,97.6,401,98,401,98v55c0,1.7-1.3,3-3,3H4
		c-1.7,0-3-1.3-3-3V98.3z"/>

	<path id="water_level_MED" data-name="water_level_MED" style="fill:#67A5D9;opacity:0.4;" d="M1,80.6c0,0,4.8,0.2,12.3,0.7c4.4,0.3,9.8,0.7,15.6,1.1c13.7,1.1,24-1,35.2,0
		c1.9,0.2,3.9,0.4,5.9,0.8c19.1,3.6,34.7,2.8,44.9,2.1c2.4-0.2,4.5-0.3,6.3-0.4c9.3-0.5,20.3-1.1,27.1-1.1c12.7,0,89.6,0,101.7,0
		c5,0,14.2-0.1,21.2,0.2c4.3,0.2,10.3,0.6,17.3,1c7.1,0.4,15.2,0.7,23.9,0.9c16,0.3,32.7,0.8,47.1,0c13.6-0.8,41.7-2.1,41.7-2.1V153
		c0,1.7-1.3,3-3,3H4c-1.7,0-3-1.3-3-3V80.6z"/>

	<path id="water_level_HI" data-name="water_level_HI" style="fill:#67A5D9;opacity:0.4;" d="M1,66c0,0,6.8,0.6,16.1,1.2c8.5,0.5,19.3,1,28.9,1c6.9,0,13.3,1,19.5,2.1c7.2,1.3,14.2,2.8,22,3.4
		c9.7,0.7,19.6,0.1,27.9-0.2c2.5-0.1,4.9-0.2,7.1-0.2c11.6,0,19.4,2.6,21.1,2.6c12.7,0,102.1,0,114.2,0c1,0,8.8-2.4,15.5-0.5
		c4.1,1.1,9,1.7,14.5,2c9.6,0.5,20.8,0.2,31.7,0.2c13.9,0,30.5-0.2,47-1.9c10.7-1.1,34.6-2.7,34.6-2.7V153c0,1.7-1.3,3-3,3H4
		c-1.7,0-3-1.3-3-3V66z"/>

	<path id="water_level_CREST" data-name="water_level_CREST" style="fill:#67A5D9;opacity:0.4;" d="M1,59.9c0,0,6.8,0.8,16.1,1.4c8.5,0.5,18.4,1.6,28,1.6c6.9,0,13.3,2.3,19.6,3.5
		c7.2,1.3,14.6,2.8,22.4,3.4c9.7,0.7,19.5,1.1,27.8,0.8c2.5-0.1,5.9,0.1,8.1,0.1c11.6,0,15.8,0.3,17.5,0.3c12.7,0,114.2,0,126.3,0
		c1,0,3.8-0.3,8.2,1c4.1,1.2,7.4,1.8,12.9,1.7c9.6-0.1,20.7,0,31.7,0c13.9,0,30.2-0.7,46.7-2.3c10.7-1.1,34.8-2.5,34.8-2.5V153
		c0,1.7-1.3,3-3,3H4c-1.7,0-3-1.3-3-3V59.9z"/>


	<path id="zeroL_water_level_FLOOD1" data-name="zeroL_water_level_FLOOD1" style="fill:#67A5D9;opacity:0.4;" d="M1,57.6c0,0,6.6-0.2,15.9,1c8.9,1.1,18.5,1.6,28.2,1.6c6.9,0,13.3,0.2,19.6,1.4
		c7.2,1.3,16.2,4.3,23.9,4.9c6.7,0.5,18.9,0.3,27.2,0c2.5-0.1,6.2,0.1,9.1-0.5c9.9-2,11.3,1,12,1c12.7,0,117.1,0,129.2,0
		c1,0,8.6,0,13.6,0c3.3,0,5.9,0,11.4,0c10,0,17.5,0,28.4,0c14.4,0,30.1,0,46.7,0c11.1,0,34.8,0,34.8,0V153c0,1.7-1.3,3-3,3H4
		c-1.7,0-3-1.3-3-3V57.6z"/>

	<path id="zeroL_water_level_FLOOD2" data-name="zeroL_water_level_FLOOD2" style="fill:#67A5D9;opacity:0.4;" d="M1,57.6c0,0,6.6-0.2,15.9,1c8.9,1.1,18.5,1.6,28.2,1.6c6.9,0,13.3,0.2,19.6,1.4
		c7.2,1.3,16.1,1.3,23.9,1.3c6.6,0,17.3,0,25.5,0c2.5,0,5.4,0,7.6,0c5.8,0,13.2,0,14.9,0c12.7,0,121,0,133.1,0c1,0,4.6,0,11.6,0
		c4.2,0,7.1,0,12.6,0c9.8,0,14.8,0,25.7,0c14.1,0,30.1,0,46.7,0c11.4,0,34.8,0,34.8,0V153c0,1.7-1.3,3-3,3H4c-1.7,0-3-1.3-3-3V57.6z
		"/>

	<path id="zeroL_water_level_FLOOD3" data-name="zeroL_water_level_FLOOD3" style="fill:#67A5D9;opacity:0.4;" d="M1,57.6c0,0,6.6-0.2,15.9,1c8.9,1.1,21.1,0.2,28.2,0.2c6.9,0,13.2,0,19.6,0c7.2,0,16.1,0,23.9,0
		c6.9,0,15.3,0,23.7,0c2.5,0,5.6,0,7.8,0c6,0,12.8,0,14.5,0c12.7,0,126.6,0,138.7,0c1,0,3.2,0,8.9,0c4,0,8.3,0,13.7,0
		c9.8,0,12.8,0,23.8,0c13.7,0,30.1,0,46.7,0c11.2,0,34.8,0,34.8,0V153c0,1.7-1.3,3-3,3H4c-1.7,0-3-1.3-3-3V57.6z"/>

	<path id="zeroL_water_level_FLOOD3A" data-name="zeroL_water_level_FLOOD3A" style="fill:#67A5D9;opacity:0.4;" d="M1,57.5c0,0,6.5,0,15.9,0c9.1,0,18.5,0,28.2,0c6.7,0,13.2,0,19.6,0c7.3,0,16.1,0,23.9,0
		c6.8,0,14.7,0,23,0c2.6,0,7.4,0,9.6,0c3.3,0,10.9,0,12.6,0c12.7,0,126.7,0,138.8,0c1,0,10.7,0,12.9,0c4.5,0,10,0,15.4,0
		c8,0,16.2,0,27.2,0c13.5,0,23.1,0,39.6,0c11.2,0,33.4,0,33.4,0V153c0,1.7-1.3,3-3,3H4c-1.7,0-3-1.3-3-3V57.5z"/>

	<path id="zeroL_water_level_FLOOD3B" data-name="zeroL_water_level_FLOOD3B" style="fill:#67A5D9;opacity:0.4;" d="M1,56.5c0,0,6.5,0,15.9,0c9.3,0,18.5,0,28.2,0c7,0,13.2,0,19.6,0c7.4,0,16.1,0,23.9,0
		c6.7,0,15.1,0,23.2,0c2.5,0,7.2,0,9.3,0c5.6,0,10.6,0,12.3,0c12.7,0,128.7,0,140.8,0c1,0,9.1,0,14.2,0c4,0,12.9,0,18.4,0
		c10.2,0,14.6,0,25.6,0c13.4,0,21.7,0,38.2,0c10.4,0,30.5,0,30.5,0V153c0,1.7-1.3,3-3,3H4c-1.7,0-3-1.3-3-3V56.5z"/>

	<path id="zeroL_water_level_FLOOD3C" data-name="zeroL_water_level_FLOOD3C" style="fill:#67A5D9;opacity:0.4;" d="M1,55.6c0,0,6.5,0,15.9,0c9,0,18.5,0,28.2,0c7,0,13.2,0,19.6,0c7.2,0,16.1,0,23.9,0
		c6.7,0,14.7,0,23,0c2.5,0,7.5,0,9.7,0c5.8,0,9.8,0,11.5,0c12.7,0,129.4,0,141.5,0c1,0,11.7,0,16.9,0c7.5,0,12.5,0,18,0
		c8.9,0,13.8,0,24.7,0c13.8,0,21.1,0,37.6,0c10.6,0,29.6,0,29.6,0V153c0,1.7-1.3,3-3,3H4c-1.7,0-3-1.3-3-3V55.6z"/>


	<path id="zeroL_water_level_FLOOD4" data-name="zeroL_water_level_FLOOD4" style="fill:#67A5D9;opacity:0.4;" d="M1,54.7c0,0,6.5,0,15.9,0c9,0,18.5,0,28.2,0c6.8,0,13.2,0,19.6,0c7.4,0,16.1,0,23.9,0
		c6.7,0,14.5,0,22.8,0c3.3,0,7.8,0,10,0c4.4,0,7.9,0,10.1,0c12.6,0,130.9,0,142.9,0c2.4,0,11.7,0,16.8,0c7.8,0,13.4,0,18.9,0
		c10.1,0,17.3,0,28.3,0c12.1,0,18.7,0,35.3,0c11.3,0,27.4,0,27.4,0V153c0,1.7-1.3,3-3,3H4c-1.7,0-3-1.3-3-3V54.7z"/>

	<path id="rightL_water_level_FLOOD1" data-name="rightL_water_level_FLOOD1" style="fill:#67A5D9;opacity:0.4;" d="M1,57.6c0,0,6.6-0.2,15.9,1c8.9,1.1,18.5,1.6,28.2,1.6c6.9,0,13.3,0.2,19.6,1.4
		c7.2,1.3,16.2,4.3,23.9,4.9c6.7,0.5,18.9,0.3,27.2,0c2.5-0.1,6.2,0.1,9.1-0.5c9.9-2,11.3,1,12,1c12.7,0,117.1,0,129.2,0
		c1,0,8.9-1.3,13.6,0.6c3.1,1.2,2.7,6.4,8.2,6.3c9.6-0.1,20.7,0,31.7,0c13.9,0,30.2-0.7,46.7-2.3c10.7-1.1,34.8-2.5,34.8-2.5V153
		c0,1.7-1.3,3-3,3H4c-1.7,0-3-1.3-3-3V57.6z"/>

	<path id="rightL_water_level_FLOOD2" data-name="rightL_water_level_FLOOD2" style="fill:#67A5D9;opacity:0.4;" d="M1,57.6c0,0,6.6-0.2,15.9,1c8.9,1.1,18.5,1.6,28.2,1.6c6.9,0,13.3,0.2,19.6,1.4
		c7.2,1.3,16.1,1.3,23.9,1.3c6.6,0,17.3,0,25.5,0c2.5,0,5.4,0,7.6,0c5.8,0,13.2,0,14.9,0c12.7,0,121,0,133.1,0c1,0,4.9-1.5,11.6,0.3
		c4.1,1.1,1.1,10.5,6.6,10.5c9.6-0.1,20.7,0,31.7,0c13.9,0,30.2-0.7,46.7-2.3c10.7-1.1,34.8-2.5,34.8-2.5V153c0,1.7-1.3,3-3,3H4
		c-1.7,0-3-1.3-3-3V57.6z"/>

	<path id="rightL_water_level_FLOOD3" data-name="rightL_water_level_FLOOD3" style="fill:#67A5D9;opacity:0.4;" d="M1,57.6c0,0,6.6-0.2,15.9,1c8.9,1.1,21.1,0.2,28.2,0.2c6.9,0,13.2,0,19.6,0c7.2,0,16.1,0,23.9,0
		c6.9,0,15.3,0,23.7,0c2.5,0,5.6,0,7.8,0c6,0,12.8,0,14.5,0c12.7,0,126.6,0,138.7,0c1,0,3.2,0,8.9,0c4.2,0,0.4,14.9,5.8,14.8
		c9.6-0.1,20.7,0,31.7,0c13.9,0,30.2-0.7,46.7-2.3c10.7-1.1,34.8-2.5,34.8-2.5V153c0,1.7-1.3,3-3,3H4c-1.7,0-3-1.3-3-3V57.6z"/>

	<path id="rightL_water_level_FLOOD3A" data-name="rightL_water_level_FLOOD3A" style="fill:#67A5D9;opacity:0.4;" d="M1,57.5c0,0,6.5,0,15.9,0c9.1,0,18.5,0,28.2,0c6.7,0,13.2,0,19.6,0c7.3,0,16.1,0,23.9,0
		c6.8,0,14.7,0,23,0c2.6,0,7.4,0,9.6,0c3.3,0,10.9,0,12.6,0c12.7,0,126.7,0,138.8,0c1,0,10.8-0.2,12.9,0.3c4.1,1.1,5.9,8.1,11.3,9.2
		c8,1.6,20.4,0.5,31.3,0.5c13.9,0,23.1,1,39.6,0.5c10.6-0.3,33.4,0.8,33.4,0.8V153c0,1.7-1.3,3-3,3H4c-1.7,0-3-1.3-3-3V57.5z"/>

	<path id="rightL_water_level_FLOOD3B" data-name="rightL_water_level_FLOOD3B" style="fill:#67A5D9;opacity:0.4;" d="M1,56.5c0,0,6.5,0,15.9,0c9.3,0,18.5,0,28.2,0c7,0,13.2,0,19.6,0c7.4,0,16.1,0,23.9,0
		c6.7,0,15.1,0,23.2,0c2.5,0,7.2,0,9.3,0c5.6,0,10.6,0,12.3,0c12.7,0,128.7,0,140.8,0c1,0,9.3-0.2,14.2,1.2
		c4.1,1.2,12.9,3.5,18.4,4.1c10,1,13.4-0.2,24.4-0.2c13.9,0,22.9,0.9,39.5,0.4c10.6-0.3,30.5,0.1,30.5,0.1V153c0,1.7-1.3,3-3,3H4
		c-1.7,0-3-1.3-3-3V56.5z"/>

	<path id="rightL_water_level_FLOOD3C" data-name="rightL_water_level_FLOOD3C" style="fill:#67A5D9;opacity:0.4;" d="M1,55.6c0,0,6.5,0,15.9,0c9,0,18.5,0,28.2,0c7,0,13.2,0,19.6,0c7.2,0,16.1,0,23.9,0
		c6.7,0,14.7,0,23,0c2.5,0,7.5,0,9.7,0c5.8,0,9.8,0,11.5,0c12.7,0,129.4,0,141.5,0c1,0,11.8-0.5,16.9,0.5c7.6,1.6,12.5,1.9,18,2.5
		c10,1,13.8,0.5,24.7,0.5c13.9,0,21.1,0,37.6-0.4c10.7-0.3,29.6-0.1,29.6-0.1V153c0,1.7-1.3,3-3,3H4c-1.7,0-3-1.3-3-3V55.6z"/>

	<path id="rightL_water_level_FLOOD4" data-name="rightL_water_level_FLOOD4" style="fill:#67A5D9;opacity:0.4;" d="M1,54.7c0,0,6.5,0,15.9,0c9,0,18.5,0,28.2,0c6.8,0,13.2,0,19.6,0c7.4,0,16.1,0,23.9,0
		c6.7,0,14.5,0,22.8,0c3.3,0,7.8,0,10,0c4.4,0,7.9,0,10.1,0c12.6,0,130.9,0,142.9,0c2.4,0,11.7,0,16.8,0c7.8,0,13.4,0,18.9,0
		c10.1,0,17.3,0,28.3,0c12.1,0,18.7,0,35.3,0c11.3,0,27.4,0,27.4,0V153c0,1.7-1.3,3-3,3H4c-1.7,0-3-1.3-3-3V54.7z"/>


	<path id="leftL_water_level_FLOOD1" data-name="leftL_water_level_FLOOD1" style="fill:#67A5D9;opacity:0.4;" d="M1,57.6c0,0,6.6-0.2,15.9,1c8.9,1.1,18.5,1.6,28.2,1.6c6.9,0,13.3,0.2,19.6,1.4
		c7.2,1.3,16.2,4.3,23.9,4.9c6.7,0.5,18.9,0.3,27.2,0c2.5-0.1,6.2,0.1,9.1-0.5c9.9-2,11.3,1,12,1c12.7,0,117.1,0,129.2,0
		c1,0,8.6,0,13.6,0c3.6,0,6.2,0,11.7,0c10,0,17.2,0,28.2,0c14,0,30.1,0,46.7,0c11.4,0,34.8,0,34.8,0V153c0,1.7-1.3,3-3,3H4
		c-1.7,0-3-1.3-3-3V57.6z"/>

	<path id="leftL_water_level_FLOOD2" data-name="leftL_water_level_FLOOD2" style="fill:#67A5D9;opacity:0.4;" d="M1,57.6c0,0,6.6-0.2,15.9,1c8.9,1.1,18.5,1.6,28.2,1.6c6.9,0,13.3,0.2,19.6,1.4
		c7.2,1.3,16.2,4.3,23.9,4.9c6.7,0.5,18.9,0.3,27.2,0c2.5-0.1,3.9-4.1,6-4.6c5.6-1.5,13.2,1.1,14.9,1.1c12.7,0,121,0,133.1,0
		c1,0,4.6,0,11.6,0c4.5,0,9.1,0,14.6,0c9.3,0,14.7,0,25.7,0c13.8,0,28.1,0,44.7,0c11.2,0,34.8,0,34.8,0V153c0,1.7-1.3,3-3,3H4
		c-1.7,0-3-1.3-3-3V57.6z"/>

	<path id="leftL_water_level_FLOOD3" data-name="leftL_water_level_FLOOD3" style="fill:#67A5D9;opacity:0.4;" d="M1,57.6c0,0,6.6-0.2,15.9,1c8.9,1.1,18.5,1.6,28.2,1.6c6.9,0,13.3,0.2,19.6,1.4
		c7.2,1.3,16.2,4.3,23.9,4.9c6.7,0.5,18.9,0.3,27.2,0c2.5-0.1,2.2-6.8,4.3-7.4c5.6-1.5,12.8-0.2,14.5-0.2c12.7,0,126.6,0,138.7,0
		c1,0,3.2,0,8.9,0c4.7,0,10.5,0,16,0c9.6,0,14.2,0,25.2,0c13.9,0,26.5,0,43.1,0c11.5,0,34.8,0,34.8,0V153c0,1.7-1.3,3-3,3H4
		c-1.7,0-3-1.3-3-3V57.6z"/>

	<path id="leftL_water_level_FLOOD3A" data-name="leftL_water_level_FLOOD3A" style="fill:#67A5D9;opacity:0.4;" d="M1,57.6c0,0,6.6-0.2,15.9,1c8.9,1.1,18.5,1.6,28.2,1.6c6.9,0,13.3,0.2,19.6,1.4
		c7.2,1.3,16.2,4.3,23.9,4.9c6.7,0.5,18.9,0.3,27.2,0c2.5-0.1,3.3-8.3,5.4-9c2.8-0.8,10.9,0.1,12.6,0.1c12.7,0,126.7,0,138.8,0
		c1,0,10.7,0,12.9,0c3.5,0,9.3,0,14.8,0c8.3,0,16.9,0,27.8,0c13.7,0,23.1,0,39.6,0c11,0,33.4,0,33.4,0V153c0,1.7-1.3,3-3,3H4
		c-1.7,0-3-1.3-3-3V57.6z"/>

	<path id="leftL_water_level_FLOOD3B" data-name="leftL_water_level_FLOOD3B" style="fill:#67A5D9;opacity:0.4;" d="M1,57.6c0,0,6.6-0.2,15.9,1c8.9,1.1,18.5,1.6,28.2,1.6c6.9,0,13.3,0.2,19.6,1.4
		c7.2,1.3,16.2,4.3,23.9,4.9c6.7,0.5,18.9,0.3,27.2,0c2.5-0.1,3.3-8.4,5.4-9c5.6-1.5,10.6-0.9,12.3-0.9c12.7,0,128.7,0,140.8,0
		c1.3,0,9.1,0,14.2,0c4.2,0,12.9,0,18.4,0c9.9,0,13.4,0,24.4,0c13.9,0,22.9,0,39.5,0c10.8,0,30.5,0,30.5,0V153c0,1.7-1.3,3-3,3H4
		c-1.7,0-3-1.3-3-3V57.6z"/>

	<path id="leftL_water_level_FLOOD3C" data-name="leftL_water_level_FLOOD3C" style="fill:#67A5D9;opacity:0.4;" d="M1,57.6c0,0,6.6-0.2,15.9,1c8.9,1.1,18.5,1.6,28.2,1.6c6.9,0,13.3,0.2,19.6,1.4
		c7.2,1.3,16.2,4.3,23.9,4.9c6.7,0.5,18.9,0.3,27.2,0c2.5-0.1,3.5-9,5.6-9.6c5.6-1.5,9.8-1.2,11.5-1.2c12.7,0,129.4,0,141.5,0
		c1,0,11.7,0,16.9,0c7.5,0,12.5,0,18,0c9.9,0,13.8,0,24.7,0c12.8,0,21.1,0,37.6,0c11,0,29.6,0,29.6,0V153c0,1.7-1.3,3-3,3H4
		c-1.7,0-3-1.3-3-3V57.6z"/>

	<path id="leftL_water_level_FLOOD4" data-name="leftL_water_level_FLOOD4" style="fill:#67A5D9;opacity:0.4;" d="M1,57.6c0,0,6.6-0.2,15.9,1c8.9,1.1,18.5,1.6,28.2,1.6c6.9,0,13.3,0.2,19.6,1.4
		c7.2,1.3,16.2,4.3,23.9,4.9c6.7,0.5,18.9,0.3,27.2,0c2.5-0.1,3.5-9,5.6-9.6c5.6-1.5,7.9-2,10.1-2c12.6,0,130.9,0,142.9,0
		c2.4,0,11.7,0,16.8,0c7.8,0,13.4,0,18.9,0c10.1,0,17.3,0,28.3,0c12.1,0,18.7,0,35.3,0c11.3,0,27.4,0,27.4,0V153c0,1.7-1.3,3-3,3H4
		c-1.7,0-3-1.3-3-3V57.6z"/>


	<path id="twoL_water_level_FLOOD1" data-name="twoL_water_level_FLOOD1" style="fill:#67A5D9;opacity:0.4;" d="M1,57.6c0,0,6.6-0.2,15.9,1c8.9,1.1,18.5,1.6,28.2,1.6c6.9,0,13.3,0.2,19.6,1.4
		c7.2,1.3,16.2,4.3,23.9,4.9c6.7,0.5,18.9,0.3,27.2,0c2.5-0.1,6.2,0.1,9.1-0.5c9.9-2,11.3,1,12,1c12.7,0,117.1,0,129.2,0
		c1,0,8.9-1.3,13.6,0.6c3.1,1.2,2.7,6.4,8.2,6.3c9.6-0.1,20.7,0,31.7,0c13.9,0,30.2-0.7,46.7-2.3c10.7-1.1,34.8-2.5,34.8-2.5V153
		c0,1.7-1.3,3-3,3H4c-1.7,0-3-1.3-3-3V57.6z"/>

	<path id="twoL_water_level_FLOOD2" data-name="twoL_water_level_FLOOD2" style="fill:#67A5D9;opacity:0.4;" d="M1,57.6c0,0,6.6-0.2,15.9,1c8.9,1.1,18.5,1.6,28.2,1.6c6.9,0,13.3,0.2,19.6,1.4
		c7.2,1.3,16.2,4.3,23.9,4.9c6.7,0.5,18.9,0.3,27.2,0c2.5-0.1,3.9-4.1,6-4.6c5.6-1.5,13.2,1.1,14.9,1.1c12.7,0,121,0,133.1,0
		c1,0,4.9-1.5,11.6,0.3c4.1,1.1,1.1,10.5,6.6,10.5c9.6-0.1,20.7,0,31.7,0c13.9,0,30.2-0.7,46.7-2.3c10.7-1.1,34.8-2.5,34.8-2.5V153
		c0,1.7-1.3,3-3,3H4c-1.7,0-3-1.3-3-3V57.6z"/>

	<path id="twoL_water_level_FLOOD3" data-name="twoL_water_level_FLOOD3" style="fill:#67A5D9;opacity:0.4;" d="M1,57.6c0,0,6.6-0.2,15.9,1c8.9,1.1,18.5,1.6,28.2,1.6c6.9,0,13.3,0.2,19.6,1.4
		c7.2,1.3,16.2,4.3,23.9,4.9c6.7,0.5,18.9,0.3,27.2,0c2.5-0.1,2.2-6.8,4.3-7.4c5.6-1.5,12.8-0.2,14.5-0.2c12.7,0,126.6,0,138.7,0
		c1,0,3.2,0,8.9,0c4.2,0,0.4,14.9,5.8,14.8c9.6-0.1,20.7,0,31.7,0c13.9,0,30.2-0.7,46.7-2.3c10.7-1.1,34.8-2.5,34.8-2.5V153
		c0,1.7-1.3,3-3,3H4c-1.7,0-3-1.3-3-3V57.6z"/>

	<path id="twoL_water_level_FLOOD3A" data-name="twoL_water_level_FLOOD3A" style="fill:#67A5D9;opacity:0.4;" d="M1,57.6c0,0,6.6-0.2,15.9,1c8.9,1.1,18.5,1.6,28.2,1.6c6.9,0,13.3,0.2,19.6,1.4
		c7.2,1.3,16.2,4.3,23.9,4.9c6.7,0.5,18.9,0.3,27.2,0c2.5-0.1,3.3-8.3,5.4-9c2.8-0.8,10.9,0.1,12.6,0.1c12.7,0,126.7,0,138.8,0
		c1,0,10.8-0.2,12.9,0.3c4.1,1.1,5.9,8.1,11.3,9.2c8,1.6,20.4,0.5,31.3,0.5c13.9,0,23.1,1,39.6,0.5c10.6-0.3,33.4,0.8,33.4,0.8V153
		c0,1.7-1.3,3-3,3H4c-1.7,0-3-1.3-3-3V57.6z"/>

	<path id="twoL_water_level_FLOOD3B" data-name="twoL_water_level_FLOOD3B" style="fill:#67A5D9;opacity:0.4;" d="M1,57.6c0,0,6.6-0.2,15.9,1c8.9,1.1,18.5,1.6,28.2,1.6c6.9,0,13.3,0.2,19.6,1.4
		c7.2,1.3,16.2,4.3,23.9,4.9c6.7,0.5,18.9,0.3,27.2,0c2.5-0.1,3.3-8.4,5.4-9c5.6-1.5,10.6-0.9,12.3-0.9c12.7,0,128.7,0,140.8,0
		c1,0,9.3-0.2,14.2,1.2c4.1,1.2,12.9,3.5,18.4,4.1c10,1,13.4-0.2,24.4-0.2c13.9,0,22.9,0.9,39.5,0.4c10.6-0.3,30.5,0.1,30.5,0.1V153
		c0,1.7-1.3,3-3,3H4c-1.7,0-3-1.3-3-3V57.6z"/>

	<path id="twoL_water_level_FLOOD3C" data-name="twoL_water_level_FLOOD3C" style="fill:#67A5D9;opacity:0.4;" d="M1,57.6c0,0,6.6-0.2,15.9,1c8.9,1.1,18.5,1.6,28.2,1.6c6.9,0,13.3,0.2,19.6,1.4
		c7.2,1.3,16.2,4.3,23.9,4.9c6.7,0.5,18.9,0.3,27.2,0c2.5-0.1,3.5-9,5.6-9.6c5.6-1.5,9.8-1.2,11.5-1.2c12.7,0,129.4,0,141.5,0
		c1,0,11.8-0.5,16.9,0.5c7.6,1.6,12.5,1.9,18,2.5c10,1,13.8,0.5,24.7,0.5c13.9,0,21.1,0,37.6-0.4c10.7-0.3,29.6-0.1,29.6-0.1V153
		c0,1.7-1.3,3-3,3H4c-1.7,0-3-1.3-3-3V57.6z"/>

	<path id="twoL_water_level_FLOOD4" data-name="twoL_water_level_FLOOD4" style="fill:#67A5D9;opacity:0.4;" d="M1,57.6c0,0,6.6-0.2,15.9,1c8.9,1.1,18.5,1.6,28.2,1.6c6.9,0,13.3,0.2,19.6,1.4
		c7.2,1.3,16.2,4.3,23.9,4.9c6.7,0.5,18.9,0.3,27.2,0c2.5-0.1,3.5-9,5.6-9.6c5.6-1.5,7.9-2,10.1-2c12.6,0,130.9,0,142.9,0
		c2.4,0,11.7,0,16.8,0c7.8,0,13.4,0,18.9,0c10.1,0,17.3,0,28.3,0c12.1,0,18.7,0,35.3,0c11.3,0,27.4,0,27.4,0V153c0,1.7-1.3,3-3,3H4
		c-1.7,0-3-1.3-3-3V57.6z"/>

<path id="water_line_LOW" data-name="water_line_LOW" style="fill:none;stroke:#2D95D2;stroke-miterlimit:10;" d="M1,98.3c0,0,5.2,0.1,13.2,0.1
	c4.2,0,9.2,0,14.7-0.1c12.1-0.1,19.8-1.3,29.2-2c2.9-0.2,6-0.4,9.4-0.4c12.3-0.2,34.6-0.6,45.6-1.1c1.1,0,2-0.1,2.8-0.1
	c9.3-0.5,31.5-4.2,38.3-4.2c12.7,0,75.2,0,87.3,0c5,0,21.1,1.8,28,2.1c4.5,0.2,11.8,0.6,20.1,1.1c7.9,0.4,16.7,1,25.1,1.5
	c14.9,0.9,37.6,1.9,52.1,2.2C381.3,97.6,401,98,401,98"/>
	
<path id="water_line_MED" data-name="water_line_MED" style="fill:none;stroke:#2D95D2;stroke-miterlimit:10;" d="M1,80.6c0,0,4.8,0.2,12.3,0.7
	c4.4,0.3,9.8,0.7,15.6,1.1c13.7,1.1,24-1,35.2,0c1.9,0.2,3.9,0.4,5.9,0.8c19.1,3.6,34.7,2.8,44.9,2.1c2.4-0.2,4.5-0.3,6.3-0.4
	c9.3-0.5,20.3-1.1,27.1-1.1c12.7,0,89.6,0,101.7,0c5,0,14.2-0.1,21.2,0.2c4.3,0.2,10.3,0.6,17.3,1c7.1,0.4,15.2,0.7,23.9,0.9
	c16,0.3,32.7,0.8,47.1,0c13.6-0.8,41.7-2.1,41.7-2.1"/>
	
<path id="water_line_HI" data-name="water_line_HI" style="fill:none;stroke:#2D95D2;stroke-miterlimit:10;" d="M1,66c0,0,6.8,0.6,16.1,1.2
	c8.5,0.5,19.3,1,28.9,1c6.9,0,13.3,1,19.5,2.1c7.2,1.3,14.2,2.8,22,3.4c9.7,0.7,19.6,0.1,27.9-0.2c2.5-0.1,4.9-0.2,7.1-0.2
	c11.6,0,19.4,2.6,21.1,2.6c12.7,0,102.1,0,114.2,0c1,0,8.8-2.4,15.5-0.5c4.1,1.1,9,1.7,14.5,2c9.6,0.5,20.8,0.2,31.7,0.2
	c13.9,0,30.5-0.2,47-1.9c10.7-1.1,34.6-2.7,34.6-2.7"/>
	
<path id="water_line_CREST" data-name="water_line_CREST" style="fill:none;stroke:#2D95D2;stroke-miterlimit:10;" d="M1,59.9c0,0,6.8,0.8,16.1,1.4
	c8.5,0.5,18.4,1.6,28,1.6c6.9,0,13.3,2.3,19.6,3.5c7.2,1.3,14.6,2.8,22.4,3.4c9.7,0.7,19.5,1.1,27.8,0.8c2.5-0.1,5.9,0.1,8.1,0.1
	c11.6,0,15.8,0.3,17.5,0.3c12.7,0,114.2,0,126.3,0c1,0,3.8-0.3,8.2,1c4.1,1.2,7.4,1.8,12.9,1.7c9.6-0.1,20.7,0,31.7,0
	c13.9,0,30.2-0.7,46.7-2.3c10.7-1.1,34.8-2.5,34.8-2.5"/>
	
	
<path id="water_right_dotted_line_LOW" data-name="water_right_dotted_line_LOW" style="opacity:0.75;fill:none;stroke:#FFFFFF;stroke-miterlimit:10;stroke-dasharray:4,8;" d="
	M241.5,90.5c5,0,21.1,1.8,28,2.1c4.5,0.2,11.8,0.6,20.1,1.1c7.9,0.4,16.7,1,25.1,1.5c14.9,0.9,37.6,1.9,52.1,2.2
	C381.3,97.6,401,98,401,98"/>
	
<path id="water_right_dotted_line_MED" data-name="water_right_dotted_line_MED" style="opacity:0.75;fill:none;stroke:#FFFFFF;stroke-miterlimit:10;stroke-dasharray:4,8;" d="
	M249.9,83.8c5,0,14.2-0.1,21.2,0.2c4.3,0.2,10.3,0.6,17.3,1c7.1,0.4,15.2,0.7,23.9,0.9c16,0.3,32.7,0.8,47.1,0
	c13.6-0.8,41.7-2.1,41.7-2.1"/>
	
<path id="water_right_dotted_line_HI" data-name="water_right_dotted_line_HI" style="opacity:0.75;fill:none;stroke:#FFFFFF;stroke-miterlimit:10;stroke-dasharray:4,8;" d="
	M257.7,76c1,0,8.8-2.4,15.5-0.5c4.1,1.1,9,1.7,14.5,2c9.6,0.5,20.8,0.2,31.7,0.2c13.9,0,30.5-0.2,47-1.9c10.7-1.1,34.6-2.7,34.6-2.7
	"/>
	
<path id="water_right_dotted_line_CREST" data-name="water_right_dotted_line_CREST" style="opacity:0.75;fill:none;stroke:#FFFFFF;stroke-miterlimit:10;stroke-dasharray:4,8;" d="
	M266.7,70.9c1,0,3.8-0.3,8.2,1c4.1,1.2,7.4,1.8,12.9,1.7c9.6-0.1,20.7,0,31.7,0c13.9,0,30.2-0.7,46.7-2.3
	c10.7-1.1,34.8-2.5,34.8-2.5"/>
	
	
<path id="water_left_dotted_line_LOW" data-name="water_left_dotted_line_LOW" style="opacity:0.75;fill:none;stroke:#FFFFFF;stroke-miterlimit:10;stroke-dasharray:4,8;" d="
	M1,98.3c0,0,5.2,0.1,13.2,0.1c4.2,0,9.2,0,14.7-0.1c12.1-0.1,19.8-1.3,29.2-2c2.9-0.2,6-0.4,9.4-0.4c12.3-0.2,34.6-0.6,45.6-1.1
	c1.1,0,2-0.1,2.8-0.1c9.3-0.5,31.5-4.2,38.3-4.2"/>
	
<path id="water_left_dotted_line_MED" data-name="water_left_dotted_line_MED" style="opacity:0.75;fill:none;stroke:#FFFFFF;stroke-miterlimit:10;stroke-dasharray:4,8;" d="
	M1,80.6c0,0,4.8,0.2,12.3,0.7c4.4,0.3,9.8,0.7,15.6,1.1c13.7,1.1,24-1,35.2,0c1.9,0.2,3.9,0.4,5.9,0.8c19.1,3.6,34.7,2.8,44.9,2.1
	c2.4-0.2,4.5-0.3,6.3-0.4c9.3-0.5,20.3-1.1,27.1-1.1"/>
	
<path id="water_left_dotted_line_HI" data-name="water_left_dotted_line_HI" style="opacity:0.75;fill:none;stroke:#FFFFFF;stroke-miterlimit:10;stroke-dasharray:4,8;" d="
	M1,66c0,0,6.8,0.6,16.1,1.2c8.5,0.5,19.3,1,28.9,1c6.9,0,13.3,1,19.5,2.1c7.2,1.3,14.2,2.8,22,3.4c9.7,0.7,19.6,0.1,27.9-0.2
	c2.5-0.1,4.9-0.2,7.1-0.2c11.6,0,19.4,2.6,21.1,2.6"/>
	
<path id="water_left_dotted_line_CREST" data-name="water_left_dotted_line_CREST" style="opacity:0.75;fill:none;stroke:#FFFFFF;stroke-miterlimit:10;stroke-dasharray:4,8;" d="
	M1,59.9c0,0,6.8,0.8,16.1,1.4c8.5,0.5,18.4,1.6,28,1.6c6.9,0,13.3,2.3,19.6,3.5c7.2,1.3,14.6,2.8,22.4,3.4
	c9.7,0.7,19.5,1.1,27.8,0.8c2.5-0.1,5.9,0.1,8.1,0.1c11.6,0,15.8,0.3,17.5,0.3"/>
	
	
<path id="zeroL_water_line_FLOOD1" data-name="zeroL_water_line_FLOOD1" style="fill:none;stroke:#2D95D2;stroke-miterlimit:10;" d="M1,57.6c0,0,6.6-0.2,15.9,1
	c8.9,1.1,18.5,1.6,28.2,1.6c6.9,0,13.3,0.2,19.6,1.4c7.2,1.3,16.2,4.3,23.9,4.9c6.7,0.5,18.9,0.3,27.2,0c2.5-0.1,6.2,0.1,9.1-0.5
	c9.9-2,11.3,1,12,1c12.7,0,117.1,0,129.2,0c1,0,8.6,0,13.6,0c3.3,0,5.9,0,11.4,0c10,0,17.5,0,28.4,0c14.4,0,30.1,0,46.7,0
	c11.1,0,34.8,0,34.8,0"/>
	
<path id="zeroL_water_line_FLOOD2" data-name="zeroL_water_line_FLOOD2" style="fill:none;stroke:#2D95D2;stroke-miterlimit:10;" d="M1,57.6c0,0,6.6-0.2,15.9,1
	c8.9,1.1,18.5,1.6,28.2,1.6c6.9,0,13.3,0.2,19.6,1.4c7.2,1.3,16.1,1.3,23.9,1.3c6.6,0,17.3,0,25.5,0c2.5,0,5.4,0,7.6,0
	c5.8,0,13.2,0,14.9,0c12.7,0,121,0,133.1,0c1,0,4.6,0,11.6,0c4.2,0,7.1,0,12.6,0c9.8,0,14.8,0,25.7,0c14.1,0,30.1,0,46.7,0
	c11.4,0,34.8,0,34.8,0"/>
	
<path id="zeroL_water_line_FLOOD3" data-name="zeroL_water_line_FLOOD3" style="fill:none;stroke:#2D95D2;stroke-miterlimit:10;" d="M1,57.6c0,0,6.6-0.2,15.9,1
	c8.9,1.1,21.1,0.2,28.2,0.2c6.9,0,13.2,0,19.6,0c7.2,0,16.1,0,23.9,0c6.9,0,15.3,0,23.7,0c2.5,0,5.6,0,7.8,0c6,0,12.8,0,14.5,0
	c12.7,0,126.6,0,138.7,0c1,0,3.2,0,8.9,0c4,0,8.3,0,13.7,0c9.8,0,12.8,0,23.8,0c13.7,0,30.1,0,46.7,0c11.2,0,34.8,0,34.8,0"/>
	
<path id="zeroL_water_line_FLOOD3A" data-name="zeroL_water_line_FLOOD3A" style="fill:none;stroke:#2D95D2;stroke-miterlimit:10;" d="M1,57.5c0,0,6.5,0,15.9,0
	c9.1,0,18.5,0,28.2,0c6.7,0,13.2,0,19.6,0c7.3,0,16.1,0,23.9,0c6.8,0,14.7,0,23,0c2.6,0,7.4,0,9.6,0c3.3,0,10.9,0,12.6,0
	c12.7,0,126.7,0,138.8,0c1,0,10.7,0,12.9,0c4.5,0,10,0,15.4,0c8,0,16.2,0,27.2,0c13.5,0,23.1,0,39.6,0c11.2,0,33.4,0,33.4,0"/>
	
<path id="zeroL_water_line_FLOOD3B" data-name="zeroL_water_line_FLOOD3B" style="fill:none;stroke:#2D95D2;stroke-miterlimit:10;" d="M1,56.5c0,0,6.5,0,15.9,0
	c9.3,0,18.5,0,28.2,0c7,0,13.2,0,19.6,0c7.4,0,16.1,0,23.9,0c6.7,0,15.1,0,23.2,0c2.5,0,7.2,0,9.3,0c5.6,0,10.6,0,12.3,0
	c12.7,0,128.7,0,140.8,0c1,0,9.1,0,14.2,0c4,0,12.9,0,18.4,0c10.2,0,14.6,0,25.6,0c13.4,0,21.7,0,38.2,0c10.4,0,30.5,0,30.5,0"/>
	
<path id="zeroL_water_line_FLOOD3C" data-name="zeroL_water_line_FLOOD3C" style="fill:none;stroke:#2D95D2;stroke-miterlimit:10;" d="M1,55.6c0,0,6.5,0,15.9,0
	c9,0,18.5,0,28.2,0c7,0,13.2,0,19.6,0c7.2,0,16.1,0,23.9,0c6.7,0,14.7,0,23,0c2.5,0,7.5,0,9.7,0c5.8,0,9.8,0,11.5,0
	c12.7,0,129.4,0,141.5,0c1,0,11.7,0,16.9,0c7.5,0,12.5,0,18,0c8.9,0,13.8,0,24.7,0c13.8,0,21.1,0,37.6,0c10.6,0,29.6,0,29.6,0"/>
	
<path id="zeroL_water_line_FLOOD4" data-name="zeroL_water_line_FLOOD4" style="fill:none;stroke:#2D95D2;stroke-miterlimit:10;" d="M1,54.7c0,0,6.5,0,15.9,0
	c9,0,18.5,0,28.2,0c6.8,0,13.2,0,19.6,0c7.4,0,16.1,0,23.9,0c6.7,0,14.5,0,22.8,0c3.3,0,7.8,0,10,0c4.4,0,7.9,0,10.1,0
	c12.6,0,130.9,0,142.9,0c2.4,0,11.7,0,16.8,0c7.8,0,13.4,0,18.9,0c10.1,0,17.3,0,28.3,0c12.1,0,18.7,0,35.3,0c11.3,0,27.4,0,27.4,0"
	/>
	
	
<path id="zeroL_water_right_dotted_line_FLOOD1" data-name="zeroL_water_right_dotted_line_FLOOD1" style="opacity:0.75;fill:none;stroke:#FFFFFF;stroke-miterlimit:10;stroke-dasharray:4,8;" d="
	M266.7,70.9c1,0,3.8-0.3,8.2,1c4.1,1.2,7.4,1.8,12.9,1.7c9.6-0.1,20.7,0,31.7,0c13.9,0,30.2-0.7,46.7-2.3
	c10.7-1.1,34.8-2.5,34.8-2.5"/>
	
<path id="zeroL_water_right_dotted_line_FLOOD2" data-name="zeroL_water_right_dotted_line_FLOOD2" style="opacity:0.75;fill:none;stroke:#FFFFFF;stroke-miterlimit:10;stroke-dasharray:4,8;" d="
	M266.7,70.9c1,0,3.8-0.3,8.2,1c4.1,1.2,7.4,1.8,12.9,1.7c9.6-0.1,20.7,0,31.7,0c13.9,0,30.2-0.7,46.7-2.3
	c10.7-1.1,34.8-2.5,34.8-2.5"/>
	
<path id="zeroL_water_right_dotted_line_FLOOD3" data-name="zeroL_water_right_dotted_line_FLOOD3" style="opacity:0.75;fill:none;stroke:#FFFFFF;stroke-miterlimit:10;stroke-dasharray:4,8;" d="
	M266.7,70.9c1,0,3.8-0.3,8.2,1c4.1,1.2,7.4,1.8,12.9,1.7c9.6-0.1,20.7,0,31.7,0c13.9,0,30.2-0.7,46.7-2.3
	c10.7-1.1,34.8-2.5,34.8-2.5"/>
	
<path id="zeroL_water_right_dotted_line_FLOOD3A" data-name="zeroL_water_right_dotted_line_FLOOD3A" style="opacity:0.75;fill:none;stroke:#FFFFFF;stroke-miterlimit:10;stroke-dasharray:4,8;" d="
	M266.7,70.9c1,0,3.8-0.3,8.2,1c4.1,1.2,7.4,1.8,12.9,1.7c9.6-0.1,20.7,0,31.7,0c13.9,0,30.2-0.7,46.7-2.3
	c10.7-1.1,34.8-2.5,34.8-2.5"/>
	
<path id="zeroL_water_right_dotted_line_FLOOD3B" data-name="zeroL_water_right_dotted_line_FLOOD3B" style="opacity:0.75;fill:none;stroke:#FFFFFF;stroke-miterlimit:10;stroke-dasharray:4,8;" d="
	M266.7,70.9c1,0,3.8-0.3,8.2,1c4.1,1.2,7.4,1.8,12.9,1.7c9.6-0.1,20.7,0,31.7,0c13.9,0,30.2-0.7,46.7-2.3
	c10.7-1.1,34.8-2.5,34.8-2.5"/>
	
<path id="zeroL_water_right_dotted_line_FLOOD3C" data-name="zeroL_water_right_dotted_line_FLOOD3C" style="opacity:0.75;fill:none;stroke:#FFFFFF;stroke-miterlimit:10;stroke-dasharray:4,8;" d="
	M266.7,70.9c1,0,3.8-0.3,8.2,1c4.1,1.2,7.4,1.8,12.9,1.7c9.6-0.1,20.7,0,31.7,0c13.9,0,30.2-0.7,46.7-2.3
	c10.7-1.1,34.8-2.5,34.8-2.5"/>
	
<path id="zeroL_water_right_dotted_line_FLOOD4" data-name="zeroL_water_right_dotted_line_FLOOD4" style="opacity:0.75;fill:none;stroke:#FFFFFF;stroke-miterlimit:10;stroke-dasharray:4,8;" d="
	M266.7,70.9c1,0,3.8-0.3,8.2,1c4.1,1.2,7.4,1.8,12.9,1.7c9.6-0.1,20.7,0,31.7,0c13.9,0,30.2-0.7,46.7-2.3
	c10.7-1.1,34.8-2.5,34.8-2.5"/>
	
	
<path id="zeroL_water_left_dotted_line_FLOOD1" data-name="zeroL_water_left_dotted_line_FLOOD1" style="opacity:0.75;fill:none;stroke:#FFFFFF;stroke-miterlimit:10;stroke-dasharray:4,8;" d="
	M1,57.6c0,0,6.6-0.2,15.9,1c8.9,1.1,18.5,1.6,28.2,1.6c6.9,0,13.3,0.2,19.6,1.4c7.2,1.3,16.2,4.3,23.9,4.9c6.7,0.5,18.9,0.3,27.2,0
	c2.5-0.1,6.2,0.1,9.1-0.5c9.9-2,11.3,1,12,1"/>
	
<path id="zeroL_water_left_dotted_line_FLOOD2" data-name="zeroL_water_left_dotted_line_FLOOD2" style="opacity:0.75;fill:none;stroke:#FFFFFF;stroke-miterlimit:10;stroke-dasharray:4,8;" d="
	M1,57.6c0,0,6.6-0.2,15.9,1c8.9,1.1,18.5,1.6,28.2,1.6c6.9,0,13.3,0.2,19.6,1.4c7.2,1.3,16.2,4.3,23.9,4.9c6.7,0.5,18.9,0.3,27.2,0
	c2.5-0.1,6.2,0.1,9.1-0.5c9.9-2,11.3,1,12,1"/>
	
<path id="zeroL_water_left_dotted_line_FLOOD3" data-name="zeroL_water_left_dotted_line_FLOOD3" style="opacity:0.75;fill:none;stroke:#FFFFFF;stroke-miterlimit:10;stroke-dasharray:4,8;" d="
	M1,57.6c0,0,6.6-0.2,15.9,1c8.9,1.1,18.5,1.6,28.2,1.6c6.9,0,13.3,0.2,19.6,1.4c7.2,1.3,16.2,4.3,23.9,4.9c6.7,0.5,18.9,0.3,27.2,0
	c2.5-0.1,6.2,0.1,9.1-0.5c9.9-2,11.3,1,12,1"/>
	
<path id="zeroL_water_left_dotted_line_FLOOD3A" data-name="zeroL_water_left_dotted_line_FLOOD3A" style="opacity:0.75;fill:none;stroke:#FFFFFF;stroke-miterlimit:10;stroke-dasharray:4,8;" d="
	M1,57.6c0,0,6.6-0.2,15.9,1c8.9,1.1,18.5,1.6,28.2,1.6c6.9,0,13.3,0.2,19.6,1.4c7.2,1.3,16.2,4.3,23.9,4.9c6.7,0.5,18.9,0.3,27.2,0
	c2.5-0.1,6.2,0.1,9.1-0.5c9.9-2,11.3,1,12,1"/>
	
<path id="zeroL_water_left_dotted_line_FLOOD3B" data-name="zeroL_water_left_dotted_line_FLOOD3B" style="opacity:0.75;fill:none;stroke:#FFFFFF;stroke-miterlimit:10;stroke-dasharray:4,8;" d="
	M1,57.6c0,0,6.6-0.2,15.9,1c8.9,1.1,18.5,1.6,28.2,1.6c6.9,0,13.3,0.2,19.6,1.4c7.2,1.3,16.2,4.3,23.9,4.9c6.7,0.5,18.9,0.3,27.2,0
	c2.5-0.1,6.2,0.1,9.1-0.5c9.9-2,11.3,1,12,1"/>
	
<path id="zeroL_water_left_dotted_line_FLOOD3C" data-name="zeroL_water_left_dotted_line_FLOOD3C" style="opacity:0.75;fill:none;stroke:#FFFFFF;stroke-miterlimit:10;stroke-dasharray:4,8;" d="
	M1,57.6c0,0,6.6-0.2,15.9,1c8.9,1.1,18.5,1.6,28.2,1.6c6.9,0,13.3,0.2,19.6,1.4c7.2,1.3,16.2,4.3,23.9,4.9c6.7,0.5,18.9,0.3,27.2,0
	c2.5-0.1,6.2,0.1,9.1-0.5c9.9-2,11.3,1,12,1"/>
	
<path id="zeroL_water_left_dotted_line_FLOOD4" data-name="zeroL_water_left_dotted_line_FLOOD4" style="opacity:0.75;fill:none;stroke:#FFFFFF;stroke-miterlimit:10;stroke-dasharray:4,8;" d="
	M1,57.6c0,0,6.6-0.2,15.9,1c8.9,1.1,18.5,1.6,28.2,1.6c6.9,0,13.3,0.2,19.6,1.4c7.2,1.3,16.2,4.3,23.9,4.9c6.7,0.5,18.9,0.3,27.2,0
	c2.5-0.1,6.2,0.1,9.1-0.5c9.9-2,11.3,1,12,1"/>
	
	
<path id="rightL_water_line_FLOOD1" data-name="rightL_water_line_FLOOD1" style="fill:none;stroke:#2D95D2;stroke-miterlimit:10;" d="M1,57.6c0,0,6.6-0.2,15.9,1
	c8.9,1.1,18.5,1.6,28.2,1.6c6.9,0,13.3,0.2,19.6,1.4c7.2,1.3,16.2,4.3,23.9,4.9c6.7,0.5,18.9,0.3,27.2,0c2.5-0.1,6.2,0.1,9.1-0.5
	c9.9-2,11.3,1,12,1c12.7,0,117.1,0,129.2,0c1,0,8.9-1.3,13.6,0.6c3.1,1.2,2.7,6.4,8.2,6.3c9.6-0.1,20.7,0,31.7,0
	c13.9,0,30.2-0.7,46.7-2.3c10.7-1.1,34.8-2.5,34.8-2.5"/>
	
<path id="rightL_water_line_FLOOD2" data-name="rightL_water_line_FLOOD2" style="fill:none;stroke:#2D95D2;stroke-miterlimit:10;" d="M1,57.6c0,0,6.6-0.2,15.9,1
	c8.9,1.1,18.5,1.6,28.2,1.6c6.9,0,13.3,0.2,19.6,1.4c7.2,1.3,16.1,1.3,23.9,1.3c6.6,0,17.3,0,25.5,0c2.5,0,5.4,0,7.6,0
	c5.8,0,13.2,0,14.9,0c12.7,0,121,0,133.1,0c1,0,4.9-1.5,11.6,0.3c4.1,1.1,1.1,10.5,6.6,10.5c9.6-0.1,20.7,0,31.7,0
	c13.9,0,30.2-0.7,46.7-2.3c10.7-1.1,34.8-2.5,34.8-2.5"/>
	
<path id="rightL_water_line_FLOOD3" data-name="rightL_water_line_FLOOD3" style="fill:none;stroke:#2D95D2;stroke-miterlimit:10;" d="M1,57.6c0,0,6.6-0.2,15.9,1
	c8.9,1.1,21.1,0.2,28.2,0.2c6.9,0,13.2,0,19.6,0c7.2,0,16.1,0,23.9,0c6.9,0,15.3,0,23.7,0c2.5,0,5.6,0,7.8,0c6,0,12.8,0,14.5,0
	c12.7,0,126.6,0,138.7,0c1,0,3.2,0,8.9,0c4.2,0,0.4,14.9,5.8,14.8c9.6-0.1,20.7,0,31.7,0c13.9,0,30.2-0.7,46.7-2.3
	c10.7-1.1,34.8-2.5,34.8-2.5"/>
	
<path id="rightL_water_line_FLOOD3A" data-name="rightL_water_line_FLOOD3A" style="fill:none;stroke:#2D95D2;stroke-miterlimit:10;" d="M1,57.5c0,0,6.5,0,15.9,0
	c9.1,0,18.5,0,28.2,0c6.7,0,13.2,0,19.6,0c7.3,0,16.1,0,23.9,0c6.8,0,14.7,0,23,0c2.6,0,7.4,0,9.6,0c3.3,0,10.9,0,12.6,0
	c12.7,0,126.7,0,138.8,0c1,0,10.8-0.2,12.9,0.3c4.1,1.1,5.9,8.1,11.3,9.2c8,1.6,20.4,0.5,31.3,0.5c13.9,0,23.1,1,39.6,0.5
	c10.6-0.3,33.4,0.8,33.4,0.8"/>
	
<path id="rightL_water_line_FLOOD3B" data-name="rightL_water_line_FLOOD3B" style="fill:none;stroke:#2D95D2;stroke-miterlimit:10;" d="M1,56.5c0,0,6.5,0,15.9,0
	c9.3,0,18.5,0,28.2,0c7,0,13.2,0,19.6,0c7.4,0,16.1,0,23.9,0c6.7,0,15.1,0,23.2,0c2.5,0,7.2,0,9.3,0c5.6,0,10.6,0,12.3,0
	c12.7,0,128.7,0,140.8,0c1,0,9.3-0.2,14.2,1.2c4.1,1.2,12.9,3.5,18.4,4.1c10,1,13.4-0.2,24.4-0.2c13.9,0,22.9,0.9,39.5,0.4
	c10.6-0.3,30.5,0.1,30.5,0.1"/>
	
<path id="rightL_water_line_FLOOD3C" data-name="rightL_water_line_FLOOD3C" style="fill:none;stroke:#2D95D2;stroke-miterlimit:10;" d="M1,55.6c0,0,6.5,0,15.9,0
	c9,0,18.5,0,28.2,0c7,0,13.2,0,19.6,0c7.2,0,16.1,0,23.9,0c6.7,0,14.7,0,23,0c2.5,0,7.5,0,9.7,0c5.8,0,9.8,0,11.5,0
	c12.7,0,129.4,0,141.5,0c1,0,11.8-0.5,16.9,0.5c7.6,1.6,12.5,1.9,18,2.5c10,1,13.8,0.5,24.7,0.5c13.9,0,21.1,0,37.6-0.4
	c10.7-0.3,29.6-0.1,29.6-0.1"/>
	
<path id="rightL_water_line_FLOOD4" data-name="rightL_water_line_FLOOD4" style="fill:none;stroke:#2D95D2;stroke-miterlimit:10;" d="M1,54.7c0,0,6.5,0,15.9,0
	c9,0,18.5,0,28.2,0c6.8,0,13.2,0,19.6,0c7.4,0,16.1,0,23.9,0c6.7,0,14.5,0,22.8,0c3.3,0,7.8,0,10,0c4.4,0,7.9,0,10.1,0
	c12.6,0,130.9,0,142.9,0c2.4,0,11.7,0,16.8,0c7.8,0,13.4,0,18.9,0c10.1,0,17.3,0,28.3,0c12.1,0,18.7,0,35.3,0c11.3,0,27.4,0,27.4,0"
	/>
	
	
<path id="rightL_water_right_dotted_line_FLOOD1" data-name="rightL_water_right_dotted_line_FLOOD1" style="opacity:0.75;fill:none;stroke:#FFFFFF;stroke-miterlimit:10;stroke-dasharray:4,8;" d="
	M266.7,70.9c1,0,3.8-0.3,8.2,1c4.1,1.2,7.4,1.8,12.9,1.7c9.6-0.1,20.7,0,31.7,0c13.9,0,30.2-0.7,46.7-2.3
	c10.7-1.1,34.8-2.5,34.8-2.5"/>
	
<path id="rightL_water_right_dotted_line_FLOOD2" data-name="rightL_water_right_dotted_line_FLOOD2" style="opacity:0.75;fill:none;stroke:#FFFFFF;stroke-miterlimit:10;stroke-dasharray:4,8;" d="
	M266.7,70.9c1,0,3.8-0.3,8.2,1c4.1,1.2,7.4,1.8,12.9,1.7c9.6-0.1,20.7,0,31.7,0c13.9,0,30.2-0.7,46.7-2.3
	c10.7-1.1,34.8-2.5,34.8-2.5"/>
	
<path id="rightL_water_right_dotted_line_FLOOD3" data-name="rightL_water_right_dotted_line_FLOOD3" style="opacity:0.75;fill:none;stroke:#FFFFFF;stroke-miterlimit:10;stroke-dasharray:4,8;" d="
	M266.7,70.9c1,0,3.8-0.3,8.2,1c4.1,1.2,7.4,1.8,12.9,1.7c9.6-0.1,20.7,0,31.7,0c13.9,0,30.2-0.7,46.7-2.3
	c10.7-1.1,34.8-2.5,34.8-2.5"/>
	
<path id="rightL_water_right_dotted_line_FLOOD3A" data-name="rightL_water_right_dotted_line_FLOOD3A" style="opacity:0.75;fill:none;stroke:#FFFFFF;stroke-miterlimit:10;stroke-dasharray:4,8;" d="
	M266.7,70.9c1,0,3.8-0.3,8.2,1c4.1,1.2,7.4,1.8,12.9,1.7c9.6-0.1,20.7,0,31.7,0c13.9,0,30.2-0.7,46.7-2.3
	c10.7-1.1,34.8-2.5,34.8-2.5"/>
	
<path id="rightL_water_right_dotted_line_FLOOD3B" data-name="rightL_water_right_dotted_line_FLOOD3B" style="opacity:0.75;fill:none;stroke:#FFFFFF;stroke-miterlimit:10;stroke-dasharray:4,8;" d="
	M266.7,70.9c1,0,3.8-0.3,8.2,1c4.1,1.2,7.4,1.8,12.9,1.7c9.6-0.1,20.7,0,31.7,0c13.9,0,30.2-0.7,46.7-2.3
	c10.7-1.1,34.8-2.5,34.8-2.5"/>
	
<path id="rightL_water_right_dotted_line_FLOOD3C" data-name="rightL_water_right_dotted_line_FLOOD3C" style="opacity:0.75;fill:none;stroke:#FFFFFF;stroke-miterlimit:10;stroke-dasharray:4,8;" d="
	M266.7,70.9c1,0,3.8-0.3,8.2,1c4.1,1.2,7.4,1.8,12.9,1.7c9.6-0.1,20.7,0,31.7,0c13.9,0,30.2-0.7,46.7-2.3
	c10.7-1.1,34.8-2.5,34.8-2.5"/>
	
<path id="rightL_water_right_dotted_line_FLOOD4" data-name="rightL_water_right_dotted_line_FLOOD4" style="opacity:0.75;fill:none;stroke:#FFFFFF;stroke-miterlimit:10;stroke-dasharray:4,8;" d="
	M266.7,70.9c1,0,3.8-0.3,8.2,1c4.1,1.2,7.4,1.8,12.9,1.7c9.6-0.1,20.7,0,31.7,0c13.9,0,30.2-0.7,46.7-2.3
	c10.7-1.1,34.8-2.5,34.8-2.5"/>
	
	
<path id="rightL_water_left_dotted_line_FLOOD1" data-name="rightL_water_left_dotted_line_FLOOD1" style="opacity:0.75;fill:none;stroke:#FFFFFF;stroke-miterlimit:10;stroke-dasharray:4,8;" d="
	M1,57.6c0,0,6.6-0.2,15.9,1c8.9,1.1,18.5,1.6,28.2,1.6c6.9,0,13.3,0.2,19.6,1.4c7.2,1.3,16.2,4.3,23.9,4.9c6.7,0.5,18.9,0.3,27.2,0
	c2.5-0.1,6.2,0.1,9.1-0.5c9.9-2,11.3,1,12,1"/>
	
<path id="rightL_water_left_dotted_line_FLOOD2" data-name="rightL_water_left_dotted_line_FLOOD2" style="opacity:0.75;fill:none;stroke:#FFFFFF;stroke-miterlimit:10;stroke-dasharray:4,8;" d="
	M1,57.6c0,0,6.6-0.2,15.9,1c8.9,1.1,18.5,1.6,28.2,1.6c6.9,0,13.3,0.2,19.6,1.4c7.2,1.3,16.2,4.3,23.9,4.9c6.7,0.5,18.9,0.3,27.2,0
	c2.5-0.1,6.2,0.1,9.1-0.5c9.9-2,11.3,1,12,1"/>
	
<path id="rightL_water_left_dotted_line_FLOOD3" data-name="rightL_water_left_dotted_line_FLOOD3" style="opacity:0.75;fill:none;stroke:#FFFFFF;stroke-miterlimit:10;stroke-dasharray:4,8;" d="
	M1,57.6c0,0,6.6-0.2,15.9,1c8.9,1.1,18.5,1.6,28.2,1.6c6.9,0,13.3,0.2,19.6,1.4c7.2,1.3,16.2,4.3,23.9,4.9c6.7,0.5,18.9,0.3,27.2,0
	c2.5-0.1,6.2,0.1,9.1-0.5c9.9-2,11.3,1,12,1"/>
	
<path id="rightL_water_left_dotted_line_FLOOD3A" data-name="rightL_water_left_dotted_line_FLOOD3A" style="opacity:0.75;fill:none;stroke:#FFFFFF;stroke-miterlimit:10;stroke-dasharray:4,8;" d="
	M1,57.6c0,0,6.6-0.2,15.9,1c8.9,1.1,18.5,1.6,28.2,1.6c6.9,0,13.3,0.2,19.6,1.4c7.2,1.3,16.2,4.3,23.9,4.9c6.7,0.5,18.9,0.3,27.2,0
	c2.5-0.1,6.2,0.1,9.1-0.5c9.9-2,11.3,1,12,1"/>
	
<path id="rightL_water_left_dotted_line_FLOOD3B" data-name="rightL_water_left_dotted_line_FLOOD3B" style="opacity:0.75;fill:none;stroke:#FFFFFF;stroke-miterlimit:10;stroke-dasharray:4,8;" d="
	M1,57.6c0,0,6.6-0.2,15.9,1c8.9,1.1,18.5,1.6,28.2,1.6c6.9,0,13.3,0.2,19.6,1.4c7.2,1.3,16.2,4.3,23.9,4.9c6.7,0.5,18.9,0.3,27.2,0
	c2.5-0.1,6.2,0.1,9.1-0.5c9.9-2,11.3,1,12,1"/>
	
<path id="rightL_water_left_dotted_line_FLOOD3C" data-name="rightL_water_left_dotted_line_FLOOD3C" style="opacity:0.75;fill:none;stroke:#FFFFFF;stroke-miterlimit:10;stroke-dasharray:4,8;" d="
	M1,57.6c0,0,6.6-0.2,15.9,1c8.9,1.1,18.5,1.6,28.2,1.6c6.9,0,13.3,0.2,19.6,1.4c7.2,1.3,16.2,4.3,23.9,4.9c6.7,0.5,18.9,0.3,27.2,0
	c2.5-0.1,6.2,0.1,9.1-0.5c9.9-2,11.3,1,12,1"/>
	
<path id="rightL_water_left_dotted_line_FLOOD4" data-name="rightL_water_left_dotted_line_FLOOD4" style="opacity:0.75;fill:none;stroke:#FFFFFF;stroke-miterlimit:10;stroke-dasharray:4,8;" d="
	M1,57.6c0,0,6.6-0.2,15.9,1c8.9,1.1,18.5,1.6,28.2,1.6c6.9,0,13.3,0.2,19.6,1.4c7.2,1.3,16.2,4.3,23.9,4.9c6.7,0.5,18.9,0.3,27.2,0
	c2.5-0.1,6.2,0.1,9.1-0.5c9.9-2,11.3,1,12,1"/>
	
	
<path id="leftL_water_line_FLOOD1" data-name="leftL_water_line_FLOOD1" style="fill:none;stroke:#2D95D2;stroke-miterlimit:10;" d="M1,57.6c0,0,6.6-0.2,15.9,1
	c8.9,1.1,18.5,1.6,28.2,1.6c6.9,0,13.3,0.2,19.6,1.4c7.2,1.3,16.2,4.3,23.9,4.9c6.7,0.5,18.9,0.3,27.2,0c2.5-0.1,6.2,0.1,9.1-0.5
	c9.9-2,11.3,1,12,1c12.7,0,117.1,0,129.2,0c1,0,8.6,0,13.6,0c3.6,0,6.2,0,11.7,0c10,0,17.2,0,28.2,0c14,0,30.1,0,46.7,0
	c11.4,0,34.8,0,34.8,0"/>
	
<path id="leftL_water_line_FLOOD2" data-name="leftL_water_line_FLOOD2" style="fill:none;stroke:#2D95D2;stroke-miterlimit:10;" d="M1,57.6c0,0,6.6-0.2,15.9,1
	c8.9,1.1,18.5,1.6,28.2,1.6c6.9,0,13.3,0.2,19.6,1.4c7.2,1.3,16.2,4.3,23.9,4.9c6.7,0.5,18.9,0.3,27.2,0c2.5-0.1,3.9-4.1,6-4.6
	c5.6-1.5,13.2,1.1,14.9,1.1c12.7,0,121,0,133.1,0c1,0,4.6,0,11.6,0c4.5,0,9.1,0,14.6,0c9.3,0,14.7,0,25.7,0c13.8,0,28.1,0,44.7,0
	c11.2,0,34.8,0,34.8,0"/>
	
<path id="leftL_water_line_FLOOD3" data-name="leftL_water_line_FLOOD3" style="fill:none;stroke:#2D95D2;stroke-miterlimit:10;" d="M1,57.6c0,0,6.6-0.2,15.9,1
	c8.9,1.1,18.5,1.6,28.2,1.6c6.9,0,13.3,0.2,19.6,1.4c7.2,1.3,16.2,4.3,23.9,4.9c6.7,0.5,18.9,0.3,27.2,0c2.5-0.1,2.2-6.8,4.3-7.4
	c5.6-1.5,12.8-0.2,14.5-0.2c12.7,0,126.6,0,138.7,0c1,0,3.2,0,8.9,0c4.7,0,10.5,0,16,0c9.6,0,14.2,0,25.2,0c13.9,0,26.5,0,43.1,0
	c11.5,0,34.8,0,34.8,0"/>
	
<path id="leftL_water_line_FLOOD3A" data-name="leftL_water_line_FLOOD3A" style="fill:none;stroke:#2D95D2;stroke-miterlimit:10;" d="M1,57.6c0,0,6.6-0.2,15.9,1
	c8.9,1.1,18.5,1.6,28.2,1.6c6.9,0,13.3,0.2,19.6,1.4c7.2,1.3,16.2,4.3,23.9,4.9c6.7,0.5,18.9,0.3,27.2,0c2.5-0.1,3.3-8.3,5.4-9
	c2.8-0.8,10.9,0.1,12.6,0.1c12.7,0,126.7,0,138.8,0c1,0,10.7,0,12.9,0c3.5,0,9.3,0,14.8,0c8.3,0,16.9,0,27.8,0c13.7,0,23.1,0,39.6,0
	c11,0,33.4,0,33.4,0"/>
	
<path id="leftL_water_line_FLOOD3B" data-name="leftL_water_line_FLOOD3B" style="fill:none;stroke:#2D95D2;stroke-miterlimit:10;" d="M1,57.6c0,0,6.6-0.2,15.9,1
	c8.9,1.1,18.5,1.6,28.2,1.6c6.9,0,13.3,0.2,19.6,1.4c7.2,1.3,16.2,4.3,23.9,4.9c6.7,0.5,18.9,0.3,27.2,0c2.5-0.1,3.3-8.4,5.4-9
	c5.6-1.5,10.6-0.9,12.3-0.9c12.7,0,128.7,0,140.8,0c1.3,0,9.1,0,14.2,0c4.2,0,12.9,0,18.4,0c9.9,0,13.4,0,24.4,0
	c13.9,0,22.9,0,39.5,0c10.8,0,30.5,0,30.5,0"/>
	
<path id="leftL_water_line_FLOOD3C" data-name="leftL_water_line_FLOOD3C" style="fill:none;stroke:#2D95D2;stroke-miterlimit:10;" d="M1,57.6c0,0,6.6-0.2,15.9,1
	c8.9,1.1,18.5,1.6,28.2,1.6c6.9,0,13.3,0.2,19.6,1.4c7.2,1.3,16.2,4.3,23.9,4.9c6.7,0.5,18.9,0.3,27.2,0c2.5-0.1,3.5-9,5.6-9.6
	c5.6-1.5,9.8-1.2,11.5-1.2c12.7,0,129.4,0,141.5,0c1,0,11.7,0,16.9,0c7.5,0,12.5,0,18,0c9.9,0,13.8,0,24.7,0c12.8,0,21.1,0,37.6,0
	c11,0,29.6,0,29.6,0"/>
	
<path id="leftL_water_line_FLOOD4" data-name="leftL_water_line_FLOOD4" style="fill:none;stroke:#2D95D2;stroke-miterlimit:10;" d="M1,57.6c0,0,6.6-0.2,15.9,1
	c8.9,1.1,18.5,1.6,28.2,1.6c6.9,0,13.3,0.2,19.6,1.4c7.2,1.3,16.2,4.3,23.9,4.9c6.7,0.5,18.9,0.3,27.2,0c2.5-0.1,3.5-9,5.6-9.6
	c5.6-1.5,7.9-2,10.1-2c12.6,0,130.9,0,142.9,0c2.4,0,11.7,0,16.8,0c7.8,0,13.4,0,18.9,0c10.1,0,17.3,0,28.3,0c12.1,0,18.7,0,35.3,0
	c11.3,0,27.4,0,27.4,0"/>
	
	
<path id="leftL_water_right_dotted_line_FLOOD1" data-name="leftL_water_right_dotted_line_FLOOD1" style="opacity:0.75;fill:none;stroke:#FFFFFF;stroke-miterlimit:10;stroke-dasharray:4,8;" d="
	M266.7,70.9c1,0,3.8-0.3,8.2,1c4.1,1.2,7.4,1.8,12.9,1.7c9.6-0.1,20.7,0,31.7,0c13.9,0,30.2-0.7,46.7-2.3
	c10.7-1.1,34.8-2.5,34.8-2.5"/>
	
<path id="leftL_water_right_dotted_line_FLOOD2" data-name="leftL_water_right_dotted_line_FLOOD2" style="opacity:0.75;fill:none;stroke:#FFFFFF;stroke-miterlimit:10;stroke-dasharray:4,8;" d="
	M266.7,70.9c1,0,3.8-0.3,8.2,1c4.1,1.2,7.4,1.8,12.9,1.7c9.6-0.1,20.7,0,31.7,0c13.9,0,30.2-0.7,46.7-2.3
	c10.7-1.1,34.8-2.5,34.8-2.5"/>
	
<path id="leftL_water_right_dotted_line_FLOOD3" data-name="leftL_water_right_dotted_line_FLOOD3" style="opacity:0.75;fill:none;stroke:#FFFFFF;stroke-miterlimit:10;stroke-dasharray:4,8;" d="
	M266.7,70.9c1,0,3.8-0.3,8.2,1c4.1,1.2,7.4,1.8,12.9,1.7c9.6-0.1,20.7,0,31.7,0c13.9,0,30.2-0.7,46.7-2.3
	c10.7-1.1,34.8-2.5,34.8-2.5"/>
	
<path id="leftL_water_right_dotted_line_FLOOD3A" data-name="leftL_water_right_dotted_line_FLOOD3A" style="opacity:0.75;fill:none;stroke:#FFFFFF;stroke-miterlimit:10;stroke-dasharray:4,8;" d="
	M266.7,70.9c1,0,3.8-0.3,8.2,1c4.1,1.2,7.4,1.8,12.9,1.7c9.6-0.1,20.7,0,31.7,0c13.9,0,30.2-0.7,46.7-2.3
	c10.7-1.1,34.8-2.5,34.8-2.5"/>
	
<path id="leftL_water_right_dotted_line_FLOOD3B" data-name="leftL_water_right_dotted_line_FLOOD3B" style="opacity:0.75;fill:none;stroke:#FFFFFF;stroke-miterlimit:10;stroke-dasharray:4,8;" d="
	M266.7,70.9c1,0,3.8-0.3,8.2,1c4.1,1.2,7.4,1.8,12.9,1.7c9.6-0.1,20.7,0,31.7,0c13.9,0,30.2-0.7,46.7-2.3
	c10.7-1.1,34.8-2.5,34.8-2.5"/>
	
<path id="leftL_water_right_dotted_line_FLOOD3C" data-name="leftL_water_right_dotted_line_FLOOD3C" style="opacity:0.75;fill:none;stroke:#FFFFFF;stroke-miterlimit:10;stroke-dasharray:4,8;" d="
	M266.7,70.9c1,0,3.8-0.3,8.2,1c4.1,1.2,7.4,1.8,12.9,1.7c9.6-0.1,20.7,0,31.7,0c13.9,0,30.2-0.7,46.7-2.3
	c10.7-1.1,34.8-2.5,34.8-2.5"/>
	
<path id="leftL_water_right_dotted_line_FLOOD4" data-name="leftL_water_right_dotted_line_FLOOD4" style="opacity:0.75;fill:none;stroke:#FFFFFF;stroke-miterlimit:10;stroke-dasharray:4,8;" d="
	M266.7,70.9c1,0,3.8-0.3,8.2,1c4.1,1.2,7.4,1.8,12.9,1.7c9.6-0.1,20.7,0,31.7,0c13.9,0,30.2-0.7,46.7-2.3
	c10.7-1.1,34.8-2.5,34.8-2.5"/>
	
	
<path id="leftL_water_left_dotted_line_FLOOD1" data-name="leftL_water_left_dotted_line_FLOOD1" style="opacity:0.75;fill:none;stroke:#FFFFFF;stroke-miterlimit:10;stroke-dasharray:4,8;" d="
	M1,57.6c0,0,6.6-0.2,15.9,1c8.9,1.1,18.5,1.6,28.2,1.6c6.9,0,13.3,0.2,19.6,1.4c7.2,1.3,16.2,4.3,23.9,4.9c6.7,0.5,18.9,0.3,27.2,0
	c2.5-0.1,6.2,0.1,9.1-0.5c9.9-2,11.3,1,12,1"/>
	
<path id="leftL_water_left_dotted_line_FLOOD2" data-name="leftL_water_left_dotted_line_FLOOD2" style="opacity:0.75;fill:none;stroke:#FFFFFF;stroke-miterlimit:10;stroke-dasharray:4,8;" d="
	M1,57.6c0,0,6.6-0.2,15.9,1c8.9,1.1,18.5,1.6,28.2,1.6c6.9,0,13.3,0.2,19.6,1.4c7.2,1.3,16.2,4.3,23.9,4.9c6.7,0.5,18.9,0.3,27.2,0
	c2.5-0.1,6.2,0.1,9.1-0.5c9.9-2,11.3,1,12,1"/>
	
<path id="leftL_water_left_dotted_line_FLOOD3" data-name="leftL_water_left_dotted_line_FLOOD3" style="opacity:0.75;fill:none;stroke:#FFFFFF;stroke-miterlimit:10;stroke-dasharray:4,8;" d="
	M1,57.6c0,0,6.6-0.2,15.9,1c8.9,1.1,18.5,1.6,28.2,1.6c6.9,0,13.3,0.2,19.6,1.4c7.2,1.3,16.2,4.3,23.9,4.9c6.7,0.5,18.9,0.3,27.2,0
	c2.5-0.1,6.2,0.1,9.1-0.5c9.9-2,11.3,1,12,1"/>
	
<path id="leftL_water_left_dotted_line_FLOOD3A" data-name="leftL_water_left_dotted_line_FLOOD3A" style="opacity:0.75;fill:none;stroke:#FFFFFF;stroke-miterlimit:10;stroke-dasharray:4,8;" d="
	M1,57.6c0,0,6.6-0.2,15.9,1c8.9,1.1,18.5,1.6,28.2,1.6c6.9,0,13.3,0.2,19.6,1.4c7.2,1.3,16.2,4.3,23.9,4.9c6.7,0.5,18.9,0.3,27.2,0
	c2.5-0.1,6.2,0.1,9.1-0.5c9.9-2,11.3,1,12,1"/>
	
<path id="leftL_water_left_dotted_line_FLOOD3B" data-name="leftL_water_left_dotted_line_FLOOD3B" style="opacity:0.75;fill:none;stroke:#FFFFFF;stroke-miterlimit:10;stroke-dasharray:4,8;" d="
	M1,57.6c0,0,6.6-0.2,15.9,1c8.9,1.1,18.5,1.6,28.2,1.6c6.9,0,13.3,0.2,19.6,1.4c7.2,1.3,16.2,4.3,23.9,4.9c6.7,0.5,18.9,0.3,27.2,0
	c2.5-0.1,6.2,0.1,9.1-0.5c9.9-2,11.3,1,12,1"/>
	
<path id="leftL_water_left_dotted_line_FLOOD3C" data-name="leftL_water_left_dotted_line_FLOOD3C" style="opacity:0.75;fill:none;stroke:#FFFFFF;stroke-miterlimit:10;stroke-dasharray:4,8;" d="
	M1,57.6c0,0,6.6-0.2,15.9,1c8.9,1.1,18.5,1.6,28.2,1.6c6.9,0,13.3,0.2,19.6,1.4c7.2,1.3,16.2,4.3,23.9,4.9c6.7,0.5,18.9,0.3,27.2,0
	c2.5-0.1,6.2,0.1,9.1-0.5c9.9-2,11.3,1,12,1"/>
	
<path id="leftL_water_left_dotted_line_FLOOD4" data-name="leftL_water_left_dotted_line_FLOOD4" style="opacity:0.75;fill:none;stroke:#FFFFFF;stroke-miterlimit:10;stroke-dasharray:4,8;" d="
	M1,57.6c0,0,6.6-0.2,15.9,1c8.9,1.1,18.5,1.6,28.2,1.6c6.9,0,13.3,0.2,19.6,1.4c7.2,1.3,16.2,4.3,23.9,4.9c6.7,0.5,18.9,0.3,27.2,0
	c2.5-0.1,6.2,0.1,9.1-0.5c9.9-2,11.3,1,12,1"/>
	
	
<path id="twoL_water_line_FLOOD1" data-name="twoL_water_line_FLOOD1" style="fill:none;stroke:#2D95D2;stroke-miterlimit:10;" d="M1,57.6c0,0,6.6-0.2,15.9,1
	c8.9,1.1,18.5,1.6,28.2,1.6c6.9,0,13.3,0.2,19.6,1.4c7.2,1.3,16.2,4.3,23.9,4.9c6.7,0.5,18.9,0.3,27.2,0c2.5-0.1,6.2,0.1,9.1-0.5
	c9.9-2,11.3,1,12,1c12.7,0,117.1,0,129.2,0c1,0,8.9-1.3,13.6,0.6c3.1,1.2,2.7,6.4,8.2,6.3c9.6-0.1,20.7,0,31.7,0
	c13.9,0,30.2-0.7,46.7-2.3c10.7-1.1,34.8-2.5,34.8-2.5"/>
	
<path id="twoL_water_line_FLOOD2" data-name="twoL_water_line_FLOOD2" style="fill:none;stroke:#2D95D2;stroke-miterlimit:10;" d="M1,57.6c0,0,6.6-0.2,15.9,1
	c8.9,1.1,18.5,1.6,28.2,1.6c6.9,0,13.3,0.2,19.6,1.4c7.2,1.3,16.2,4.3,23.9,4.9c6.7,0.5,18.9,0.3,27.2,0c2.5-0.1,3.9-4.1,6-4.6
	c5.6-1.5,13.2,1.1,14.9,1.1c12.7,0,121,0,133.1,0c1,0,4.9-1.5,11.6,0.3c4.1,1.1,1.1,10.5,6.6,10.5c9.6-0.1,20.7,0,31.7,0
	c13.9,0,30.2-0.7,46.7-2.3c10.7-1.1,34.8-2.5,34.8-2.5"/>
	
<path id="twoL_water_line_FLOOD3" data-name="twoL_water_line_FLOOD3" style="fill:none;stroke:#2D95D2;stroke-miterlimit:10;" d="M1,57.6c0,0,6.6-0.2,15.9,1
	c8.9,1.1,18.5,1.6,28.2,1.6c6.9,0,13.3,0.2,19.6,1.4c7.2,1.3,16.2,4.3,23.9,4.9c6.7,0.5,18.9,0.3,27.2,0c2.5-0.1,2.2-6.8,4.3-7.4
	c5.6-1.5,12.8-0.2,14.5-0.2c12.7,0,126.6,0,138.7,0c1,0,3.2,0,8.9,0c4.2,0,0.4,14.9,5.8,14.8c9.6-0.1,20.7,0,31.7,0
	c13.9,0,30.2-0.7,46.7-2.3c10.7-1.1,34.8-2.5,34.8-2.5"/>
	
<path id="twoL_water_line_FLOOD3A" data-name="twoL_water_line_FLOOD3A" style="fill:none;stroke:#2D95D2;stroke-miterlimit:10;" d="M1,57.6c0,0,6.6-0.2,15.9,1
	c8.9,1.1,18.5,1.6,28.2,1.6c6.9,0,13.3,0.2,19.6,1.4c7.2,1.3,16.2,4.3,23.9,4.9c6.7,0.5,18.9,0.3,27.2,0c2.5-0.1,3.3-8.3,5.4-9
	c2.8-0.8,10.9,0.1,12.6,0.1c12.7,0,126.7,0,138.8,0c1,0,10.8-0.2,12.9,0.3c4.1,1.1,5.9,8.1,11.3,9.2c8,1.6,20.4,0.5,31.3,0.5
	c13.9,0,23.1,1,39.6,0.5c10.6-0.3,33.4,0.8,33.4,0.8"/>
	
<path id="twoL_water_line_FLOOD3B" data-name="twoL_water_line_FLOOD3B" style="fill:none;stroke:#2D95D2;stroke-miterlimit:10;" d="M1,57.6c0,0,6.6-0.2,15.9,1
	c8.9,1.1,18.5,1.6,28.2,1.6c6.9,0,13.3,0.2,19.6,1.4c7.2,1.3,16.2,4.3,23.9,4.9c6.7,0.5,18.9,0.3,27.2,0c2.5-0.1,3.3-8.4,5.4-9
	c5.6-1.5,10.6-0.9,12.3-0.9c12.7,0,128.7,0,140.8,0c1,0,9.3-0.2,14.2,1.2c4.1,1.2,12.9,3.5,18.4,4.1c10,1,13.4-0.2,24.4-0.2
	c13.9,0,22.9,0.9,39.5,0.4c10.6-0.3,30.5,0.1,30.5,0.1"/>
	
<path id="twoL_water_line_FLOOD3C" data-name="twoL_water_line_FLOOD3C" style="fill:none;stroke:#2D95D2;stroke-miterlimit:10;" d="M1,57.6c0,0,6.6-0.2,15.9,1
	c8.9,1.1,18.5,1.6,28.2,1.6c6.9,0,13.3,0.2,19.6,1.4c7.2,1.3,16.2,4.3,23.9,4.9c6.7,0.5,18.9,0.3,27.2,0c2.5-0.1,3.5-9,5.6-9.6
	c5.6-1.5,9.8-1.2,11.5-1.2c12.7,0,129.4,0,141.5,0c1,0,11.8-0.5,16.9,0.5c7.6,1.6,12.5,1.9,18,2.5c10,1,13.8,0.5,24.7,0.5
	c13.9,0,21.1,0,37.6-0.4c10.7-0.3,29.6-0.1,29.6-0.1"/>
	
<path id="twoL_water_line_FLOOD4" data-name="twoL_water_line_FLOOD4" style="fill:none;stroke:#2D95D2;stroke-miterlimit:10;" d="M1,57.6c0,0,6.6-0.2,15.9,1
	c8.9,1.1,18.5,1.6,28.2,1.6c6.9,0,13.3,0.2,19.6,1.4c7.2,1.3,16.2,4.3,23.9,4.9c6.7,0.5,18.9,0.3,27.2,0c2.5-0.1,3.5-9,5.6-9.6
	c5.6-1.5,7.9-2,10.1-2c12.6,0,130.9,0,142.9,0c2.4,0,11.7,0,16.8,0c7.8,0,13.4,0,18.9,0c10.1,0,17.3,0,28.3,0c12.1,0,18.7,0,35.3,0
	c11.3,0,27.4,0,27.4,0"/>
	
	
<path id="twoL_water_right_dotted_line_FLOOD1" data-name="twoL_water_right_dotted_line_FLOOD1" style="opacity:0.75;fill:none;stroke:#FFFFFF;stroke-miterlimit:10;stroke-dasharray:4,8;" d="
	M266.7,70.9c1,0,3.8-0.3,8.2,1c4.1,1.2,7.4,1.8,12.9,1.7c9.6-0.1,20.7,0,31.7,0c13.9,0,30.2-0.7,46.7-2.3
	c10.7-1.1,34.8-2.5,34.8-2.5"/>
	
<path id="twoL_water_right_dotted_line_FLOOD2" data-name="twoL_water_right_dotted_line_FLOOD2" style="opacity:0.75;fill:none;stroke:#FFFFFF;stroke-miterlimit:10;stroke-dasharray:4,8;" d="
	M266.7,70.9c1,0,3.8-0.3,8.2,1c4.1,1.2,7.4,1.8,12.9,1.7c9.6-0.1,20.7,0,31.7,0c13.9,0,30.2-0.7,46.7-2.3
	c10.7-1.1,34.8-2.5,34.8-2.5"/>
	
<path id="twoL_water_right_dotted_line_FLOOD3" data-name="twoL_water_right_dotted_line_FLOOD3" style="opacity:0.75;fill:none;stroke:#FFFFFF;stroke-miterlimit:10;stroke-dasharray:4,8;" d="
	M266.7,70.9c1,0,3.8-0.3,8.2,1c4.1,1.2,7.4,1.8,12.9,1.7c9.6-0.1,20.7,0,31.7,0c13.9,0,30.2-0.7,46.7-2.3
	c10.7-1.1,34.8-2.5,34.8-2.5"/>
	
<path id="twoL_water_right_dotted_line_FLOOD3A" data-name="twoL_water_right_dotted_line_FLOOD3A" style="opacity:0.75;fill:none;stroke:#FFFFFF;stroke-miterlimit:10;stroke-dasharray:4,8;" d="
	M266.7,70.9c1,0,3.8-0.3,8.2,1c4.1,1.2,7.4,1.8,12.9,1.7c9.6-0.1,20.7,0,31.7,0c13.9,0,30.2-0.7,46.7-2.3
	c10.7-1.1,34.8-2.5,34.8-2.5"/>
	
<path id="twoL_water_right_dotted_line_FLOOD3B" data-name="twoL_water_right_dotted_line_FLOOD3B" style="opacity:0.75;fill:none;stroke:#FFFFFF;stroke-miterlimit:10;stroke-dasharray:4,8;" d="
	M266.7,70.9c1,0,3.8-0.3,8.2,1c4.1,1.2,7.4,1.8,12.9,1.7c9.6-0.1,20.7,0,31.7,0c13.9,0,30.2-0.7,46.7-2.3
	c10.7-1.1,34.8-2.5,34.8-2.5"/>
	
<path id="twoL_water_right_dotted_line_FLOOD3C" data-name="twoL_water_right_dotted_line_FLOOD3C" style="opacity:0.75;fill:none;stroke:#FFFFFF;stroke-miterlimit:10;stroke-dasharray:4,8;" d="
	M266.7,70.9c1,0,3.8-0.3,8.2,1c4.1,1.2,7.4,1.8,12.9,1.7c9.6-0.1,20.7,0,31.7,0c13.9,0,30.2-0.7,46.7-2.3
	c10.7-1.1,34.8-2.5,34.8-2.5"/>
	
<path id="twoL_water_right_dotted_line_FLOOD4" data-name="twoL_water_right_dotted_line_FLOOD4" style="opacity:0.75;fill:none;stroke:#FFFFFF;stroke-miterlimit:10;stroke-dasharray:4,8;" d="
	M266.7,70.9c1,0,3.8-0.3,8.2,1c4.1,1.2,7.4,1.8,12.9,1.7c9.6-0.1,20.7,0,31.7,0c13.9,0,30.2-0.7,46.7-2.3
	c10.7-1.1,34.8-2.5,34.8-2.5"/>
	
	
<path id="twoL_water_left_dotted_line_FLOOD1" data-name="twoL_water_left_dotted_line_FLOOD1" style="opacity:0.75;fill:none;stroke:#FFFFFF;stroke-miterlimit:10;stroke-dasharray:4,8;" d="
	M1,57.6c0,0,6.6-0.2,15.9,1c8.9,1.1,18.5,1.6,28.2,1.6c6.9,0,13.3,0.2,19.6,1.4c7.2,1.3,16.2,4.3,23.9,4.9c6.7,0.5,18.9,0.3,27.2,0
	c2.5-0.1,6.2,0.1,9.1-0.5c9.9-2,11.3,1,12,1"/>
	
<path id="twoL_water_left_dotted_line_FLOOD2" data-name="twoL_water_left_dotted_line_FLOOD2" style="opacity:0.75;fill:none;stroke:#FFFFFF;stroke-miterlimit:10;stroke-dasharray:4,8;" d="
	M1,57.6c0,0,6.6-0.2,15.9,1c8.9,1.1,18.5,1.6,28.2,1.6c6.9,0,13.3,0.2,19.6,1.4c7.2,1.3,16.2,4.3,23.9,4.9c6.7,0.5,18.9,0.3,27.2,0
	c2.5-0.1,6.2,0.1,9.1-0.5c9.9-2,11.3,1,12,1"/>
	
<path id="twoL_water_left_dotted_line_FLOOD3" data-name="twoL_water_left_dotted_line_FLOOD3" style="opacity:0.75;fill:none;stroke:#FFFFFF;stroke-miterlimit:10;stroke-dasharray:4,8;" d="
	M1,57.6c0,0,6.6-0.2,15.9,1c8.9,1.1,18.5,1.6,28.2,1.6c6.9,0,13.3,0.2,19.6,1.4c7.2,1.3,16.2,4.3,23.9,4.9c6.7,0.5,18.9,0.3,27.2,0
	c2.5-0.1,6.2,0.1,9.1-0.5c9.9-2,11.3,1,12,1"/>
	
<path id="twoL_water_left_dotted_line_FLOOD3A" data-name="twoL_water_left_dotted_line_FLOOD3A" style="opacity:0.75;fill:none;stroke:#FFFFFF;stroke-miterlimit:10;stroke-dasharray:4,8;" d="
	M1,57.6c0,0,6.6-0.2,15.9,1c8.9,1.1,18.5,1.6,28.2,1.6c6.9,0,13.3,0.2,19.6,1.4c7.2,1.3,16.2,4.3,23.9,4.9c6.7,0.5,18.9,0.3,27.2,0
	c2.5-0.1,6.2,0.1,9.1-0.5c9.9-2,11.3,1,12,1"/>
	
<path id="twoL_water_left_dotted_line_FLOOD3B" data-name="twoL_water_left_dotted_line_FLOOD3B" style="opacity:0.75;fill:none;stroke:#FFFFFF;stroke-miterlimit:10;stroke-dasharray:4,8;" d="
	M1,57.6c0,0,6.6-0.2,15.9,1c8.9,1.1,18.5,1.6,28.2,1.6c6.9,0,13.3,0.2,19.6,1.4c7.2,1.3,16.2,4.3,23.9,4.9c6.7,0.5,18.9,0.3,27.2,0
	c2.5-0.1,6.2,0.1,9.1-0.5c9.9-2,11.3,1,12,1"/>
	
<path id="twoL_water_left_dotted_line_FLOOD3C" data-name="twoL_water_left_dotted_line_FLOOD3C" style="opacity:0.75;fill:none;stroke:#FFFFFF;stroke-miterlimit:10;stroke-dasharray:4,8;" d="
	M1,57.6c0,0,6.6-0.2,15.9,1c8.9,1.1,18.5,1.6,28.2,1.6c6.9,0,13.3,0.2,19.6,1.4c7.2,1.3,16.2,4.3,23.9,4.9c6.7,0.5,18.9,0.3,27.2,0
	c2.5-0.1,6.2,0.1,9.1-0.5c9.9-2,11.3,1,12,1"/>
	
<path id="twoL_water_left_dotted_line_FLOOD4" data-name="twoL_water_left_dotted_line_FLOOD4" style="opacity:0.75;fill:none;stroke:#FFFFFF;stroke-miterlimit:10;stroke-dasharray:4,8;" d="
	M1,57.6c0,0,6.6-0.2,15.9,1c8.9,1.1,18.5,1.6,28.2,1.6c6.9,0,13.3,0.2,19.6,1.4c7.2,1.3,16.2,4.3,23.9,4.9c6.7,0.5,18.9,0.3,27.2,0
	c2.5-0.1,6.2,0.1,9.1-0.5c9.9-2,11.3,1,12,1"/>
</svg>
