<?xml version="1.0" encoding="utf-8"?>
<!-- Generator: Adobe Illustrator 24.3.0, SVG Export Plug-In . SVG Version: 6.00 Build 0)  -->
<svg version="1.1" id="Model_2_Gauge_2_CS_WATER" xmlns="http://www.w3.org/2000/svg" xmlns:xlink="http://www.w3.org/1999/xlink"
	 x="0px" y="0px" viewBox="0 0 402 157" enable-background="new 0 0 402 157" xml:space="preserve">
	 

	<path id="flood_right_water_level_CREST" data-name="flood_right_water_level_CREST" style="fill:#67A5D9;opacity:0.4;" d="M401,94.3H250.4V71.4H401V94.3z"/>
	<path id="flood_right_water_level_FLOOD4" data-name="flood_right_water_level_FLOOD4" style="fill:#67A5D9;opacity:0.4;" d="M401,94.3H250.4V54.5H401V94.3z"/>
	<path id="center_water_level_LOW" data-name="center_water_level_LOW" style="fill:#67A5D9;opacity:0.4;" d="M250.4,94.3h-77.3v-4.6h77.3V94.3z"/>
	<path id="center_water_level_MED" data-name="center_water_level_MED" style="fill:#67A5D9;opacity:0.4;" d="M250.4,94.3h-77.3V83.9h77.3V94.3z"/>
	<path id="center_water_level_HI" data-name="center_water_level_HI" style="fill:#67A5D9;opacity:0.4;" d="M250.4,94.3h-77.3V77.8h77.3V94.3z"/>
	<path id="center_water_level_CREST" data-name="center_water_level_CREST" style="fill:#67A5D9;opacity:0.4;" d="M250.4,94.3h-77.3V71.4h77.3V94.3z"/>
	<path id="center_water_level_FLOOD4" data-name="center_water_level_FLOOD4" style="fill:#67A5D9;opacity:0.4;" d="M250.4,94.3h-77.3V54.5h77.3V94.3z"/>
	<path id="flood_left_water_level_CREST" data-name="flood_left_water_level_CREST" style="fill:#67A5D9;opacity:0.4;" d="M173.1,94.3H1V71.4h172.1V94.3z"/>
	<path id="flood_left_water_level_FLOOD4" data-name="flood_left_water_level_FLOOD4" style="fill:#67A5D9;opacity:0.4;" d="M173.1,94.3H1V54.5h172.1V94.3z"/>


	<path id="right_water_level_LOW" data-name="right_water_level_LOW" style="fill:#67A5D9;opacity:0.4;" d="M398,156H201V93.3c5.4,0,10-0.5,12.1-1.1
		c2.1-0.6,3.4-1.3,4.3-2.5c0.1-0.2,0.6,0,0.9,0c0.1,0,0.4,0,0.7,0.1c0.2,0,0.8,0.1,1.1,0.1c0.2,0,0.7,0.1,1,0.1
		c0.4,0,1.2,0.1,1.5,0.2c0.3,0.1,1,0.1,1.6,0.1c0.5,0,1.8,0.2,2.2,0.3c0.9,0.1,5.2,0.6,9.1,0.9c2.6,0.2,8.1-0.7,14.7-1.3
		c1.3-0.1,6.7-0.4,7.9-0.4c2.5,0,6.9,0,10.4,0.1c10.1,0.3,19.8,0.5,27.4,0.7c11.1,0.3,30,1,33.7,1.2c4.6,0.2,22.4,1,33.9,0.4
		C369,92,391.7,93.6,401,95v58C401,154.7,399.7,156,398,156z"/>
		
	<path id="right_water_level_MED" data-name="right_water_level_MED" style="fill:#67A5D9;opacity:0.4;" d="M398,156H201V93.3c5.4,0,10-0.5,12.1-1.1
		c2.1-0.6,3.4-1.3,4.3-2.5c0.8-1.2,1.3-3,1.8-5.7c0-0.1,0.3,0,0.7,0c0.1,0,0.5,0,0.8,0c0.1,0,0.4,0,0.7,0c0.4,0,0.7,0,1,0
		c0.3,0,0.6,0,1.2-0.1c0.4,0,1-0.1,1.5-0.1c0.9-0.1,5.4-0.5,9.3-1.3c2.6-0.5,5.5-1.7,12-3.7c1.3-0.4,6.3-1.3,7.6-1.5
		c2.5-0.3,6.1-0.4,9.7-0.2c10,0.5,22.4,0.9,30,1.4c11.1,0.7,32.3,0.8,36,0.6c4.5-0.3,27.8-1.6,39.3-1.4c5.4,0.1,27.5,0.9,32,1V153
		C401,154.7,399.7,156,398,156z"/>
		
	<path id="right_water_level_HI" data-name="right_water_level_HI" style="fill:#67A5D9;opacity:0.4;" d="M398,156H201V93.3c5.4,0,10-0.5,12.1-1.1
		c2.1-0.6,3.4-1.3,4.3-2.5c0.8-1.2,1.3-2.9,1.8-5.7c0.1-0.3,0.1-0.6,0.2-1c0.5-2.4,0.8-4,1-5.2c0-0.1,0.5,0,0.9,0
		c0.4,0,0.5-0.1,0.8-0.3c0.3-0.1,0.4-0.2,1-0.4c0.4-0.2,0.5-0.2,1-0.4c0.9-0.4,4.1-2.1,7.9-5.3c2-1.7,5.9-4.6,12.5-6.1
		c1.3-0.3,4.2-0.5,5.4-0.5c2.5,0,7.6-0.1,11.2-0.1c9.9,0,19.6,0.3,27.2,0.4c11.1,0.1,52-0.3,55.7-0.4c4.3-0.2,22-0.6,26.6-0.8
		c5.4-0.2,26-0.1,30.3-0.1V153C401,154.7,399.7,156,398,156z"/>
		
	<path id="right_water_level_CREST" data-name="right_water_level_CREST" style="fill:#67A5D9;opacity:0.4;" d="M398,156H201V93.3c5.4,0,10-0.5,12.1-1.1
		c2.1-0.6,3.4-1.3,4.3-2.5c0.8-1.2,1.3-2.9,1.8-5.7c0.1-0.3,0.1-0.6,0.2-1c0.5-2.4,0.8-4,1-5.2c0.3-1.2,0.5-2.5,1.1-4.3
		c0.1-0.4,0.3-0.9,0.8-2.1c0.1-0.3,0.7-1.4,1-1.9c0.3-0.4,1.6-2.1,2.1-3.4c0.3-0.9,2.4-7.6,6.2-10.8c2-1.7,5.1-1.6,9.3-1.5
		c1.3,0,7.5-0.1,8.8-0.1c2.5,0,8.6,0.1,12.2,0.1c9.9,0,19.9-0.2,27.5-0.1c11.1,0.1,52-0.1,55.7-0.2c4.3-0.2,21.9-0.5,26.6-0.7
		c5.4-0.2,25-0.2,29.3-0.2V153C401,154.7,399.7,156,398,156z"/>
		
	<path id="right_water_level_FLOOD4" data-name="right_water_level_FLOOD4" style="fill:#67A5D9;opacity:0.4;" d="M398,156H201V93.3c5.4,0,10-0.5,12.1-1.1
		c2.1-0.6,3.4-1.3,4.3-2.5c0.8-1.2,1.3-2.9,1.8-5.7c0.1-0.3,0.1-0.6,0.2-1c0.5-2.4,0.8-4,1-5.2c0.3-1.2,0.5-2.5,1.1-4.3
		c0.1-0.4,0.3-0.9,0.8-2.1c0.1-0.3,0.7-1.4,1-1.9c0.3-0.4,1.6-2.1,2.1-3.4c0.3-0.9,2.4-7.6,6.2-10.8c2-1.7,5.1-1.6,9.3-1.5
		c1.3,0,7.5-0.1,8.8-0.1c2.5,0,8.6,0.1,12.2,0.1c9.9,0,19.9-0.2,27.5-0.1c11.1,0.1,52-0.1,55.7-0.2c4.3-0.2,21.9-0.5,26.6-0.7
		c5.4-0.2,25-0.2,29.3-0.2V153C401,154.7,399.7,156,398,156z"/>
		
	<path id="left_water_level_LOW" data-name="left_water_level_LOW" style="fill:#67A5D9;opacity:0.4;" d="M201,156H4c-1.7,0-3-1.3-3-3V98.8c7.2,0,32.8-0.9,38.1-1.2
		c3.3-0.2,34.4-1.6,39.6-1.6c4.2,0,46.8,0.1,64.3-1.3c4.8-0.4,10.4-0.6,11.3-0.6c1.1-0.1,8.4-1,9.9-1.2c1.4-0.3,7.6-1.3,8.9-1.5
		c5.7-1,9.1-1.4,10-1.5c0.3,0,0.8-0.1,0.9-0.1c0.1,0,0.5-0.1,0.7-0.1c0.2,0,0.4,0,0.6,0c0.2,0,0.4,0,0.6,0c0.2,0,0.3,0,0.5,0
		c0.2,0,0.6-0.1,0.7,0c1.1,1.6,2.6,2.7,7.2,3.3c2.2,0.3,4.9,0.4,6.9,0.4V156z"/>
		
	<path id="left_water_level_MED" data-name="left_water_level_MED" style="fill:#67A5D9;opacity:0.4;" d="M201,156H4c-1.7,0-3-1.3-3-3V88.4c7.2,0.2,30.4-0.1,35.8-0.4
		c3.3-0.2,35.7-1.1,40.9-1c4.2,0.1,59.8-0.3,64.1-0.7c2.4-0.2,9.7-0.5,10.7-0.5c1.1-0.1,9.9-0.6,11.3-0.7c1.3-0.1,5.5-0.5,6.8-0.6
		c8.1-0.5,10.8-0.6,11.7-0.6c0.2,0,1,0,1.2,0c0.1,0,0.3,0,0.5,0c0.2,0,0.6-0.1,0.7,0c0.3,1.6,0.6,3,1,3.7c0.2,0.3,0.3,0.6,0.5,0.8
		c0.3,0.4,0.5,0.9,0.8,1.3c1.1,1.6,2.6,2.7,7.2,3.3c2.2,0.3,4.9,0.4,6.9,0.4V156z"/>
		
	<path id="left_water_level_HI" data-name="left_water_level_HI" style="fill:#67A5D9;opacity:0.4;" d="M201,156H4c-1.7,0-3-1.3-3-3V78.3C8.1,78.3,30.9,79,36.1,79
		c3.3-0.1,35.8-0.9,41-0.7c4,0.2,59.4,0.5,63.7,0.2c2.4-0.2,10.2-0.5,11.1-0.5c1.1-0.1,13-0.4,14.5-0.4c0.8,0,2.9,0,4.2,0.1
		c8.1,0.2,11.3,0.2,12.2,0.2c0.2,0,0.8-0.1,0.8,0.1c0.2,1,0.4,2.1,0.6,3.2c0.2,0.9,0.3,1.9,0.5,2.8c0.3,1.6,0.6,3,1,3.7
		c0.2,0.3,0.3,0.6,0.5,0.8c0.3,0.4,0.5,0.9,0.8,1.3c1.1,1.6,2.6,2.7,7.2,3.3c2.2,0.3,4.9,0.4,6.9,0.4V156z"/>
		
	<path id="left_water_level_CREST" data-name="left_water_level_CREST" style="fill:#67A5D9;opacity:0.4;" d="M201,156H4c-1.7,0-3-1.3-3-3V69.5c7.3,0.4,29,0.9,34.2,0.8
		c3.3-0.1,36.3,0.3,41.4,0.5c4,0.2,56.6,0.2,60.9,0.1c3.6,0,13.1-0.1,14.1-0.1c1.1-0.1,11.6,0,13.1,0c0.8,0,6.4-0.1,7.7-0.1
		c5,0,7.4-0.1,8.3,0.1c1.7,0.5,2.8,6.8,2.8,7c0.2,1,0.4,2.1,0.6,3.2c0.2,0.9,0.3,1.9,0.5,2.8c0.3,1.6,0.6,3,1,3.7
		c0.2,0.3,0.3,0.6,0.5,0.8c0.3,0.4,0.5,0.9,0.8,1.3c1.1,1.6,2.6,2.7,7.2,3.3c2.2,0.3,4.9,0.4,6.9,0.4V156z"/>
		
	<path id="left_water_level_FLOOD4" data-name="left_water_level_FLOOD4" style="fill:#67A5D9;opacity:0.4;" d="M201,156H4c-1.7,0-3-1.3-3-3V69.5c7.3,0.4,29,0.9,34.2,0.8
		c3.3-0.1,36.3,0.3,41.4,0.5c4,0.2,56.6,0.2,60.9,0.1c3.6,0,13.1-0.1,14.1-0.1c1.1-0.1,11.6,0,13.1,0c0.8,0,6.4-0.1,7.7-0.1
		c5,0,7.4-0.1,8.3,0.1c1.7,0.5,2.8,6.8,2.8,7c0.2,1,0.4,2.1,0.6,3.2c0.2,0.9,0.3,1.9,0.5,2.8c0.3,1.6,0.6,3,1,3.7
		c0.2,0.3,0.3,0.6,0.5,0.8c0.3,0.4,0.5,0.9,0.8,1.3c1.1,1.6,2.6,2.7,7.2,3.3c2.2,0.3,4.9,0.4,6.9,0.4V156z"/>


	<path id="right_water_line_LOW" data-name="right_water_line_LOW" style="fill:none;stroke:#2D95D2;stroke-miterlimit:10;" d="M218.2,89.7c2.7,0.2,14.1,1.6,16.9,1.8
		c4.9,0.2,12.6-1.6,22.3-1.7c8.8-0.1,23.3,0.5,44.6,1c19.4,0.4,41.4,2.1,57.4,1.6C377.3,91.8,401,95,401,95"/>
		
	<path id="center_water_line_LOW" data-name="center_water_line_LOW" style="fill:none;stroke:#2D95D2;stroke-miterlimit:10;" d="M173.1,89.7c8.6,0,67.9,0,77.3,0"/>
	
	<path id="left_water_line_LOW" data-name="left_water_line_LOW" style="fill:none;stroke:#2D95D2;stroke-miterlimit:10;" d="M1,98.8c0,0,16.7-0.4,34.7-1.1
		C52.7,97,67.1,96,89.5,96c23.1,0,38.4-0.4,63-1.8c10.9-0.6,27.4-4.5,33.6-4.5"/>
		
	<path id="right_water_line_MED" data-name="right_water_line_MED" style="fill:none;stroke:#2D95D2;stroke-miterlimit:10;" d="M219.9,83.9c2.7,0.2,12.4-0.9,15.1-1.6
		c5-1.2,13.6-5.2,23.3-5.4c8.8-0.1,32,1.6,53.3,2.1c19.4,0.4,26.6-0.6,42.7-1.2c17.6-0.7,46.6,0.9,46.6,0.9"/>
		
	<path id="center_water_line_MED" data-name="center_water_line_MED" style="fill:none;stroke:#2D95D2;stroke-miterlimit:10;" d="M173.1,83.9c8.6,0,67.9,0,77.3,0"/>
	
	<path id="left_water_line_MED" data-name="left_water_line_MED" style="fill:none;stroke:#2D95D2;stroke-miterlimit:10;" d="M1,88.5c0,0,17.4,0.3,35.4-0.4
		c17-0.7,32.6-1,55.1-1c23.1,0,38.9,0,59.2-1.1c10.4-0.5,25.7-2,33.4-2"/>
		
	<path id="right_water_line_HI" data-name="right_water_line_HI" style="fill:none;stroke:#2D95D2;stroke-miterlimit:10;" d="M221,77.8c2.5-0.6,7.9-3.5,10-5.3
		c4.8-4.3,9.8-7.1,17.7-7.6c8.8-0.5,24.3,0.1,45.6,0.3c19.4,0.2,52.7-0.4,68.8-1c17.6-0.7,37.9-0.3,37.9-0.3"/>
		
	<path id="center_water_line_HI" data-name="center_water_line_HI" style="fill:none;stroke:#2D95D2;stroke-miterlimit:10;" d="M173.1,77.8c8.6,0,67.9,0,77.3,0"/>
	
	<path id="left_water_line_HI" data-name="left_water_line_HI" style="fill:none;stroke:#2D95D2;stroke-miterlimit:10;" d="M1,78.3c12.7-0.2,27.3,1,37.9,0.6
		c17.1-0.6,28.4-0.8,50.9-0.6c24.7,0.2,42.8,0.7,58.7-0.2c16.9-1,26.4-0.2,34.4-0.2"/>
		
	<path id="right_water_line_CREST" data-name="right_water_line_CREST" style="fill:none;stroke:#2D95D2;stroke-miterlimit:10;" d="M223,71.4c0.6-1.8,1.6-2.6,2.5-5.3
		c1.9-5.6,4.7-12.2,10.4-12.4c2.7-0.1,29.8,0.1,51.1,0c19.3-0.1,57.5,0.1,73.6-0.6c17.6-0.7,40.3-0.5,40.3-0.5"/>
		
	<path id="right_water_line_FLOOD4" data-name="right_water_line_FLOOD4" style="fill:none;stroke:#2D95D2;stroke-miterlimit:10;" d="M223,71.4c0.6-1.8,1.6-2.6,2.5-5.3
		c1.9-5.6,4.7-12.2,10.4-12.4c2.7-0.1,29.8,0.1,51.1,0c19.3-0.1,57.5,0.1,73.6-0.6c17.6-0.7,40.3-0.5,40.3-0.5"/>
		
	<path id="center_water_line_CREST" data-name="center_water_line_CREST" style="fill:none;stroke:#2D95D2;stroke-miterlimit:10;" d="M173.1,71.4c8.6,0,67.9,0,77.3,0"/>
	
	<path id="left_water_line_CREST" data-name="left_water_line_CREST" style="fill:none;stroke:#2D95D2;stroke-miterlimit:10;" d="M1,69.6c11.9,0.8,30.3,0.7,41,0.8
		C59,70.5,71.9,71,94.6,71c24.8,0,45.1,0,58-0.1c13.6-0.1,27.8-0.3,28.1,0.5"/>
		
	<path id="left_water_line_FLOOD4" data-name="left_water_line_FLOOD4" style="fill:none;stroke:#2D95D2;stroke-miterlimit:10;" d="M1,69.6c11.9,0.8,30.3,0.7,41,0.8
		C59,70.5,71.9,71,94.6,71c24.8,0,45.1,0,58-0.1c13.6-0.1,27.8-0.3,28.1,0.5"/>
		
	<path id="flood_right_water_line_CREST" data-name="flood_right_water_line_CREST" style="fill:none;stroke:#2D95D2;stroke-miterlimit:10;" d="M250.4,71.4
		c11.3,0,150.6,0,150.6,0"/>
		
	<path id="flood_left_water_line_CREST" data-name="flood_left_water_line_CREST" style="fill:none;stroke:#2D95D2;stroke-miterlimit:10;" d="M1,71.4c12.2,0,167.1,0,172.1,0
		"/>
		
	<path id="flood_right_water_line_FLOOD4" data-name="flood_right_water_line_FLOOD4" style="fill:none;stroke:#2D95D2;stroke-miterlimit:10;" d="M250.4,54.5
		c11.3,0,150.6,0,150.6,0"/>
		
	<path id="center_water_line_FLOOD4" data-name="center_water_line_FLOOD4" style="fill:none;stroke:#2D95D2;stroke-miterlimit:10;" d="M173.1,54.5c8.6,0,67.9,0,77.3,0"
		/>
		
	<path id="flood_left_water_line_FLOOD4" data-name="flood_left_water_line_FLOOD4" style="fill:none;stroke:#2D95D2;stroke-miterlimit:10;" d="M1,54.5c12,0,167.1,0,172.1,0"
		/>

</svg>
