<?xml version="1.0" encoding="utf-8"?>
<!-- Generator: Adobe Illustrator 24.3.0, SVG Export Plug-In . SVG Version: 6.00 Build 0)  -->
<svg version="1.1" id="Model_2_Gauge_2_CS_WATER" xmlns="http://www.w3.org/2000/svg" xmlns:xlink="http://www.w3.org/1999/xlink"
	 x="0px" y="0px" viewBox="0 0 402 157" enable-background="new 0 0 402 157" xml:space="preserve">
	 

	<path id="flood_right_water_level_CREST" data-name="flood_right_water_level_CREST" style="fill:#67A5D9;opacity:0.4;" d="M401,94.30449H250.4109V71.429H401V94.30449z"/>
	<path id="flood_right_water_level_FLOOD4" data-name="flood_right_water_level_FLOOD4" style="fill:#67A5D9;opacity:0.4;" d="M401,94.30449H250.4109V54.5H401V94.30449z"/>
	<path id="center_water_level_LOW" data-name="center_water_level_LOW" style="fill:#67A5D9;opacity:0.4;" d="M250.4109,94.30449h-77.282V89.7228h77.282V94.30449z"/>
	<path id="center_water_level_MED" data-name="center_water_level_MED" style="fill:#67A5D9;opacity:0.4;" d="M250.4109,94.30449h-77.282V83.9085h77.282V94.30449z"/>
	<path id="center_water_level_HI" data-name="center_water_level_HI" style="fill:#67A5D9;opacity:0.4;" d="M250.4109,94.30449h-77.282V77.8403h77.282V94.30449z"/>
	<path id="center_water_level_CREST" data-name="center_water_level_CREST" style="fill:#67A5D9;opacity:0.4;" d="M250.4109,94.30449h-77.282V71.429h77.282V94.30449z"/>
	<path id="center_water_level_FLOOD4" data-name="center_water_level_FLOOD4" style="fill:#67A5D9;opacity:0.4;" d="M250.4109,94.30449h-77.282V54.5h77.282V94.30449z"/>
	<path id="flood_left_water_level_CREST" data-name="flood_left_water_level_CREST" style="fill:#67A5D9;opacity:0.4;" d="M173.12891,94.30449H1V71.429h172.12891V94.30449z"/>
	<path id="flood_left_water_level_FLOOD4" data-name="flood_left_water_level_FLOOD4" style="fill:#67A5D9;opacity:0.4;" d="M173.12891,94.30449H1V54.5h172.12891V94.30449z"/>


	<path id="right_water_level_LOW" data-name="right_water_level_LOW" style="fill:#67A5D9;opacity:0.4;" d="M398,156H201V93.34872
			c5.41927,0,9.96265-0.49654,12.13281-1.13535c2.13246-0.62771,3.40974-1.27312,4.27042-2.52076
			c0.14961-0.21688,0.57544,0.01243,0.88016,0.02992c0.13467,0.00772,0.37053,0.0464,0.70923,0.07336
			c0.1788,0.01424,0.81421,0.10467,1.07607,0.12228c0.19041,0.01281,0.68129,0.07618,1.02715,0.12228
			c0.36128,0.04816,1.17792,0.14488,1.51627,0.19565c0.34778,0.05218,1.01006,0.08948,1.56519,0.14674
			c0.45876,0.04731,1.7533,0.21672,2.24995,0.26901c0.88857,0.09357,5.20912,0.6114,9.07317,0.90488
			c2.62483,0.19935,8.14384-0.66032,14.69804-1.34509c1.32503-0.13844,6.67177-0.39129,7.92372-0.39129
			c2.49451,0,6.88492,0.03447,10.44272,0.14673c10.07584,0.31793,19.83673,0.47211,27.44254,0.66776
			c11.10309,0.28561,29.9675,1.00765,33.66855,1.16515c4.59772,0.19565,22.42236,1.01467,33.86533,0.43423
			c5.41998-0.27493,28.14633,1.34587,37.45871,2.79178V153C401,154.65686,399.65686,156,398,156z"/>
		
	<path id="right_water_level_MED" data-name="right_water_level_MED" style="fill:#67A5D9;opacity:0.4;" d="M398,156H201V93.34872
			c5.41927,0,9.96265-0.49654,12.13281-1.13535c2.13246-0.62771,3.40773-1.27503,4.27042-2.52076
			c0.82484-1.19107,1.31044-3.00775,1.83646-5.71063c0.02577-0.1324,0.31209-0.0489,0.65132-0.02983
			c0.1353,0.00761,0.50992,0.02299,0.77229,0.0162c0.11693-0.00302,0.35857-0.01902,0.70747-0.02161
			c0.35664-0.00264,2.58824-0.1273,4.01802-0.24168c1.41632-0.1133,3.4438-0.36298,5.43867-0.62318
			c1.30302-0.16995,2.49274-0.28326,3.79576-0.67983c0.88271-0.26865,3.28587-0.79314,5.26872-1.52963
			c2.46768-0.91656,3.28587-1.18971,6.53879-2.18111c1.27437-0.3884,6.34602-1.3396,7.5901-1.47989
			c2.47763-0.27938,6.1329-0.38643,9.68738-0.1957c10.02988,0.53819,22.40149,0.9343,30.01306,1.42312
			c11.08392,0.71181,32.30133,0.80845,35.99731,0.55928c4.52509-0.30506,27.76065-1.62699,39.30215-1.37278
			c5.42566,0.11951,27.54971,0.8521,31.97925,1.04675V153C401,154.65686,399.65686,156,398,156z"/>
		
	<path id="right_water_level_HI" data-name="right_water_level_HI" style="fill:#67A5D9;opacity:0.4;" d="M398,156H201V93.34872
			c5.41927,0,9.96265-0.49654,12.13281-1.13535c2.13246-0.62771,3.40773-1.27503,4.27042-2.52076
			c0.82484-1.19107,1.29039-2.92755,1.83646-5.71063c0.06036-0.30764,0.1217-0.62807,0.18463-0.96197
			c0.45541-2.41756,0.7644-4.03412,1.01848-5.21845c0.02454-0.11437,0.97037,0.02961,1.45235-0.14252
			c1.0439-0.37283,5.76584-2.65881,6.46225-3.13171c0.58966-0.40041,2.04472-1.38305,2.78374-2.03809
			c0.50072-0.44382,2.49179-2.00548,2.98257-2.41091c0.57166-0.47224,1.00467-0.89445,3.16219-2.20793
			c2.00726-1.22202,5.10103-2.12122,7.28488-2.56573c1.30548-0.26573,4.15382-0.46643,5.40578-0.46643
			c2.48633,0,7.63786-0.06175,11.19743-0.05589c9.94775,0.01514,19.60614,0.33864,27.23285,0.43203
			c11.06058,0.13544,51.96219-0.27087,55.66412-0.40631c4.25397-0.15563,22.02097-0.62218,26.63571-0.81261
			c5.42236-0.22363,25.95349-0.08638,30.29333-0.09029V153C401,154.65686,399.65686,156,398,156z"/>
		
	<path id="right_water_level_CREST" data-name="right_water_level_CREST" style="fill:#67A5D9;opacity:0.4;" d="M398,156H201V93.34872
			c5.41927,0,9.96265-0.49654,12.13281-1.13535c2.13246-0.62771,3.40773-1.27503,4.27042-2.52076
			c0.82484-1.19107,1.29039-2.92755,1.83646-5.71063c0.06036-0.30764,0.1217-0.62807,0.18463-0.96197
			c0.45541-2.41756,0.76076-4.01089,1.01848-5.21845c0.25334-1.18709,0.52747-2.49223,1.14787-4.2812
			c0.14609-0.42123,0.28816-0.9228,0.82372-2.07497c0.14671-0.31562,0.67389-1.43088,1.02216-1.94592
			c0.2502-0.37,1.62038-2.09349,2.0836-3.41248c0.30727-0.87489,2.36194-7.60658,6.16272-10.81879
			c2.01054-1.69919,5.11096-1.64918,9.32457-1.49195c1.33131,0.04967,7.5032-0.05267,8.75516-0.05267
			c2.48633,0,8.63429,0.09534,12.19386,0.1012c9.94775,0.01514,19.89667-0.19469,27.52335-0.1013
			c11.06061,0.13544,51.95609-0.06684,55.65802-0.20228c4.25397-0.15564,21.9437-0.5224,26.55844-0.71283
			c5.42236-0.22363,24.9639-0.18307,29.30374-0.18698V153C401,154.65686,399.65686,156,398,156z"/>
		
	<path id="right_water_level_FLOOD4" data-name="right_water_level_FLOOD4" style="fill:#67A5D9;opacity:0.4;" d="M398,156H201V93.34872
			c5.41927,0,9.96265-0.49654,12.13281-1.13535c2.13246-0.62771,3.40773-1.27503,4.27042-2.52076
			c0.82484-1.19107,1.29039-2.92755,1.83646-5.71063c0.06036-0.30764,0.1217-0.62807,0.18463-0.96197
			c0.45541-2.41756,0.76076-4.01089,1.01848-5.21845c0.25334-1.18709,0.52747-2.49223,1.14787-4.2812
			c0.14609-0.42123,0.28816-0.9228,0.82372-2.07497c0.14671-0.31562,0.67389-1.43088,1.02216-1.94592
			c0.2502-0.37,1.62038-2.09349,2.0836-3.41248c0.30727-0.87489,2.36194-7.60658,6.16272-10.81879
			c2.01054-1.69919,5.11096-1.64918,9.32457-1.49195c1.33131,0.04967,7.5032-0.05267,8.75516-0.05267
			c2.48633,0,8.63429,0.09534,12.19386,0.1012c9.94775,0.01514,19.89667-0.19469,27.52335-0.1013
			c11.06061,0.13544,51.95609-0.06684,55.65802-0.20228c4.25397-0.15564,21.9437-0.5224,26.55844-0.71283
			c5.42236-0.22363,24.9639-0.18307,29.30374-0.18698V153C401,154.65686,399.65686,156,398,156z"/>
		
	<path id="left_water_level_LOW" data-name="left_water_level_LOW" style="fill:#67A5D9;opacity:0.4;" d="M201,156H4c-1.65685,0-3-1.34314-3-3V98.80651
			c7.24369,0.03471,32.7778-0.88232,38.09553-1.16584c3.28935-0.17537,34.40981-1.58041,39.5511-1.57388
			c4.23455,0.00539,46.83737,0.05619,64.2669-1.25327c4.79604-0.36032,10.36636-0.57547,11.30864-0.64121
			c1.12401-0.07842,8.41127-0.96146,9.85133-1.22413c1.39668-0.25476,7.62695-1.26905,8.86038-1.48645
			c5.69566-1.00388,9.1138-1.42856,10.03383-1.53169c0.25824-0.02895,0.7583-0.08247,0.94972-0.09498
			c0.1481-0.00967,0.49623-0.05496,0.71242-0.05785c0.2169-0.00289,0.44099-0.02821,0.58495-0.04129
			c0.22711-0.02065,0.37445-0.03568,0.57808-0.02753c0.17204,0.00688,0.30583-0.01512,0.46796-0.02065
			c0.16272-0.00555,0.61893-0.11407,0.69135-0.01149c1.12546,1.59431,2.58328,2.70178,7.19675,3.27394
			c2.15128,0.2668,4.90253,0.39853,6.85107,0.39853V156z"/>
		
	<path id="left_water_level_MED" data-name="left_water_level_MED" style="fill:#67A5D9;opacity:0.4;" d="M201,156H4c-1.65685,0-3-1.34314-3-3V88.44619
			c7.24341,0.1692,30.43522-0.13771,35.75295-0.42123c3.28935-0.17538,35.71001-1.09539,40.85923-0.98287
			c4.20038,0.09178,59.77643-0.3343,64.11563-0.67411c2.41373-0.18903,9.74661-0.46973,10.68887-0.53548
			c1.12401-0.07841,9.89032-0.60663,11.34792-0.74142c1.29019-0.11931,5.54645-0.49764,6.7964-0.57666
			c8.08987-0.51142,10.80086-0.62749,11.72659-0.63783c0.16548-0.00185,1.00107-0.02129,1.19276-0.0142
			c0.13576,0.00503,0.2879,0.00288,0.50407,0c0.21692-0.00289,0.63474-0.10876,0.66187,0.03321
			c0.31215,1.63393,0.64638,3.02522,1.04901,3.68838c0.17432,0.28662,0.33594,0.56738,0.49365,0.84131
			c0.2547,0.44224,0.49525,0.85995,0.76321,1.25096c1.07228,1.5647,2.58328,2.70178,7.19675,3.27394
			c2.15128,0.2668,4.90253,0.39853,6.85107,0.39853V156z"/>
		
	<path id="left_water_level_HI" data-name="left_water_level_HI" style="fill:#67A5D9;opacity:0.4;" d="M201,156H4c-1.65685,0-3-1.34314-3-3V78.25676
			c7.06366,0.05228,29.86996,0.78815,35.05932,0.70577c3.29361-0.05228,35.84063-0.90792,40.98711-0.70577
			c4.02344,0.1582,59.38948,0.5228,63.72868,0.18298c2.41373-0.18903,10.19327-0.45705,11.13553-0.5228
			c1.12401-0.07842,13.01759-0.3921,14.48141-0.3921c0.79872,0,2.89099,0.0451,4.18236,0.07842
			c8.10332,0.20911,11.27527,0.24333,12.201,0.233c0.16548-0.00185,0.78282-0.13177,0.81813,0.05222
			c0.19814,1.0326,0.3847,2.14616,0.5666,3.22967c0.15817,0.94114,0.31816,1.89358,0.48615,2.77744
			c0.3096,1.62908,0.64638,3.02522,1.04901,3.68838c0.17432,0.28662,0.33594,0.56738,0.49365,0.84131
			c0.2547,0.44224,0.49525,0.85995,0.76321,1.25096c1.07228,1.5647,2.58328,2.70178,7.19675,3.27394
			c2.15128,0.2668,4.90253,0.39853,6.85107,0.39853V156z"/>
		
	<path id="left_water_level_CREST" data-name="left_water_level_CREST" style="fill:#67A5D9;opacity:0.4;" d="M201,156H4c-1.65685,0-3-1.34314-3-3V69.52943
			c7.25214,0.36339,29.04431,0.85457,34.23366,0.77219c3.29361-0.05228,36.2797,0.34293,41.42618,0.54508
			c4.02344,0.1582,56.56069,0.19136,60.91283,0.13628c3.58846-0.04543,13.13899-0.07053,14.08127-0.13628
			c1.12401-0.07841,11.61812,0,13.08195,0c0.79871,0,6.37933-0.06542,7.67114-0.06542c5.03938,0,7.44885-0.11387,8.34161,0.13125
			c1.69856,0.46636,2.80959,6.79197,2.84489,6.97597c0.19814,1.0326,0.3847,2.14616,0.5666,3.22967
			c0.15817,0.94114,0.31816,1.89358,0.48615,2.77744c0.3096,1.62908,0.64638,3.02522,1.04901,3.68838
			c0.17432,0.28662,0.33594,0.56738,0.49365,0.84131c0.2547,0.44224,0.49525,0.85995,0.76321,1.25096
			c1.07228,1.5647,2.58328,2.70178,7.19675,3.27394c2.15128,0.2668,4.90253,0.39853,6.85107,0.39853V156z"/>
		
	<path id="left_water_level_FLOOD4" data-name="left_water_level_FLOOD4" style="fill:#67A5D9;opacity:0.4;" d="M201,156H4c-1.65685,0-3-1.34314-3-3V69.52943
			c7.25214,0.36339,29.04431,0.85457,34.23366,0.77219c3.29361-0.05228,36.2797,0.34293,41.42618,0.54508
			c4.02344,0.1582,56.56069,0.19136,60.91283,0.13628c3.58846-0.04543,13.13899-0.07053,14.08127-0.13628
			c1.12401-0.07841,11.61812,0,13.08195,0c0.79871,0,6.37933-0.06542,7.67114-0.06542c5.03938,0,7.44885-0.11387,8.34161,0.13125
			c1.69856,0.46636,2.80959,6.79197,2.84489,6.97597c0.19814,1.0326,0.3847,2.14616,0.5666,3.22967
			c0.15817,0.94114,0.31816,1.89358,0.48615,2.77744c0.3096,1.62908,0.64638,3.02522,1.04901,3.68838
			c0.17432,0.28662,0.33594,0.56738,0.49365,0.84131c0.2547,0.44224,0.49525,0.85995,0.76321,1.25096
			c1.07228,1.5647,2.58328,2.70178,7.19675,3.27394c2.15128,0.2668,4.90253,0.39853,6.85107,0.39853V156z"/>


	<path id="right_water_line_LOW" data-name="right_water_line_LOW" style="fill:none;stroke:#2D95D2;stroke-miterlimit:10;" d="M218.2,89.7c2.7,0.2,14.1,1.6,16.9,1.8
		c4.9,0.2,12.6-1.6,22.3-1.7c8.8-0.1,23.3,0.5,44.6,1c19.4,0.4,41.4,2.1,57.4,1.6C377.3,91.8,401,95,401,95"/>
		
	<path id="center_water_line_LOW" data-name="center_water_line_LOW" style="fill:none;stroke:#2D95D2;stroke-miterlimit:10;" d="M173.1,89.7c8.6,0,67.9,0,77.3,0"/>
	
	<path id="left_water_line_LOW" data-name="left_water_line_LOW" style="fill:none;stroke:#2D95D2;stroke-miterlimit:10;" d="M1,98.8c0,0,16.7-0.4,34.7-1.1
		C52.7,97,67.1,96,89.5,96c23.1,0,38.4-0.4,63-1.8c10.9-0.6,27.4-4.5,33.6-4.5"/>
		
	<path id="right_water_line_MED" data-name="right_water_line_MED" style="fill:none;stroke:#2D95D2;stroke-miterlimit:10;" d="M219.9,83.9c2.7,0.2,12.4-0.9,15.1-1.6
		c5-1.2,13.6-5.2,23.3-5.4c8.8-0.1,32,1.6,53.3,2.1c19.4,0.4,26.6-0.6,42.7-1.2c17.6-0.7,46.6,0.9,46.6,0.9"/>
		
	<path id="center_water_line_MED" data-name="center_water_line_MED" style="fill:none;stroke:#2D95D2;stroke-miterlimit:10;" d="M173.1,83.9c8.6,0,67.9,0,77.3,0"/>
	
	<path id="left_water_line_MED" data-name="left_water_line_MED" style="fill:none;stroke:#2D95D2;stroke-miterlimit:10;" d="M1,88.5c0,0,17.4,0.3,35.4-0.4
		c17-0.7,32.6-1,55.1-1c23.1,0,38.9,0,59.2-1.1c10.4-0.5,25.7-2,33.4-2"/>
		
	<path id="right_water_line_HI" data-name="right_water_line_HI" style="fill:none;stroke:#2D95D2;stroke-miterlimit:10;" d="M221,77.8c2.5-0.6,7.9-3.5,10-5.3
		c4.8-4.3,9.8-7.1,17.7-7.6c8.8-0.5,24.3,0.1,45.6,0.3c19.4,0.2,52.7-0.4,68.8-1c17.6-0.7,37.9-0.3,37.9-0.3"/>
		
	<path id="center_water_line_HI" data-name="center_water_line_HI" style="fill:none;stroke:#2D95D2;stroke-miterlimit:10;" d="M173.1,77.8c8.6,0,67.9,0,77.3,0"/>
	
	<path id="left_water_line_HI" data-name="left_water_line_HI" style="fill:none;stroke:#2D95D2;stroke-miterlimit:10;" d="M1,78.3c12.7-0.2,27.3,1,37.9,0.6
		c17.1-0.6,28.4-0.8,50.9-0.6c24.7,0.2,42.8,0.7,58.7-0.2c16.9-1,26.4-0.2,34.4-0.2"/>
		
	<path id="right_water_line_CREST" data-name="right_water_line_CREST" style="fill:none;stroke:#2D95D2;stroke-miterlimit:10;" d="M223,71.4c0.6-1.8,1.6-2.6,2.5-5.3
		c1.9-5.6,4.7-12.2,10.4-12.4c2.7-0.1,29.8,0.1,51.1,0c19.3-0.1,57.5,0.1,73.6-0.6c17.6-0.7,40.3-0.5,40.3-0.5"/>
		
	<path id="right_water_line_FLOOD4" data-name="right_water_line_FLOOD4" style="fill:none;stroke:#2D95D2;stroke-miterlimit:10;" d="M223,71.4c0.6-1.8,1.6-2.6,2.5-5.3
		c1.9-5.6,4.7-12.2,10.4-12.4c2.7-0.1,29.8,0.1,51.1,0c19.3-0.1,57.5,0.1,73.6-0.6c17.6-0.7,40.3-0.5,40.3-0.5"/>
		
	<path id="center_water_line_CREST" data-name="center_water_line_CREST" style="fill:none;stroke:#2D95D2;stroke-miterlimit:10;" d="M173.1,71.4c8.6,0,67.9,0,77.3,0"/>
	
	<path id="left_water_line_CREST" data-name="left_water_line_CREST" style="fill:none;stroke:#2D95D2;stroke-miterlimit:10;" d="M1,69.6c11.9,0.8,30.3,0.7,41,0.8
		C59,70.5,71.9,71,94.6,71c24.8,0,45.1,0,58-0.1c13.6-0.1,27.8-0.3,28.1,0.5"/>
		
	<path id="left_water_line_FLOOD4" data-name="left_water_line_FLOOD4" style="fill:none;stroke:#2D95D2;stroke-miterlimit:10;" d="M1,69.6c11.9,0.8,30.3,0.7,41,0.8
		C59,70.5,71.9,71,94.6,71c24.8,0,45.1,0,58-0.1c13.6-0.1,27.8-0.3,28.1,0.5"/>
		
	<path id="flood_right_water_line_CREST" data-name="flood_right_water_line_CREST" style="fill:none;stroke:#2D95D2;stroke-miterlimit:10;" d="M250.4,71.4
		c11.3,0,150.6,0,150.6,0"/>
		
	<path id="flood_left_water_line_CREST" data-name="flood_left_water_line_CREST" style="fill:none;stroke:#2D95D2;stroke-miterlimit:10;" d="M1,71.4c12.2,0,167.1,0,172.1,0
		"/>
		
	<path id="flood_right_water_line_FLOOD4" data-name="flood_right_water_line_FLOOD4" style="fill:none;stroke:#2D95D2;stroke-miterlimit:10;" d="M250.4,54.5
		c11.3,0,150.6,0,150.6,0"/>
		
	<path id="center_water_line_FLOOD4" data-name="center_water_line_FLOOD4" style="fill:none;stroke:#2D95D2;stroke-miterlimit:10;" d="M173.1,54.5c8.6,0,67.9,0,77.3,0"
		/>
		
	<path id="flood_left_water_line_FLOOD4" data-name="flood_left_water_line_FLOOD4" style="fill:none;stroke:#2D95D2;stroke-miterlimit:10;" d="M1,54.5c12,0,167.1,0,172.1,0"
		/>

</svg>
