<?xml version="1.0" encoding="utf-8"?>
<!-- Generator: Adobe Illustrator 25.2.1, SVG Export Plug-In . SVG Version: 6.00 Build 0)  -->
<svg version="1.1" id="Zoom_Reset" xmlns="http://www.w3.org/2000/svg" xmlns:xlink="http://www.w3.org/1999/xlink" x="0px" y="0px"
	 viewBox="0 0 18 18" style="enable-background:new 0 0 18 18;" xml:space="preserve">
<style type="text/css">
	.st0{fill:none;}
</style>
<rect id="Rectangle" class="st0" width="18" height="18"/>
<path id="Shape" d="M2,12v4h4v2H2c-1.1,0-2-0.9-2-2v-4H2z M18,12v4c0,1.1-0.9,2-2,2h-4v-2h4v-4H18z M6,0v2H2v4H0V2c0-1.1,0.9-2,2-2
	H6z M16,0c1.1,0,2,0.9,2,2v4h-2V2h-4V0H16z"/>
<circle id="Oval" cx="9" cy="9" r="4"/>
</svg>
